<svg width="111" height="111" viewBox="0 0 111 111" fill="none" xmlns="http://www.w3.org/2000/svg">
<g clip-path="url(#clip0_221_2670)">
<path d="M71.3089 100.64C46.7184 109.337 19.5414 95.8948 10.6074 70.6155C1.67337 45.3363 14.3655 17.7931 38.956 9.09602C63.5465 0.398978 90.7235 13.8415 99.6576 39.1208C108.592 64.4 95.8995 91.9433 71.3089 100.64Z" stroke="black" stroke-width="0.00382729" stroke-miterlimit="1.5" stroke-linecap="round" stroke-linejoin="round"/>
<path fill-rule="evenodd" clip-rule="evenodd" d="M101.344 64.7491C99.6617 64.3847 97.9578 64.1811 96.2632 64.489C94.2742 64.8512 92.4153 65.7613 90.3615 65.7599C88.6213 65.7586 87.0097 64.8594 85.3234 64.4975C83.4296 64.0895 81.5211 64.4297 79.8149 65.2868C77.4261 66.4864 75.9451 68.7292 73.9739 70.4447C71.1211 72.9241 67.2591 74.9468 63.5828 75.7206C60.8599 76.2938 57.9729 75.9317 55.3959 74.8525C53.1712 73.9243 50.9625 72.4035 48.5171 72.2787C45.6533 72.1346 43.3267 73.3853 40.6776 74.2367C38.7588 74.853 36.6165 74.948 34.7672 75.7745C33.6078 76.2932 32.9256 77.4684 31.7125 77.8907C30.3512 78.3649 28.8105 78.0406 27.5176 78.6528C26.317 79.2214 25.5119 80.3679 24.3289 80.9584C23.2205 81.5104 21.9144 81.0594 20.7318 81.2352C19.3816 81.436 18.2248 82.3361 17.2677 83.2608L17.3064 83.3423C19.8558 86.8386 22.8187 89.9384 26.1027 92.5877L25.9967 92.7315C28.8507 91.0042 31.8653 90.0498 34.9652 88.8934C36.5023 88.3203 37.8558 87.3804 39.3754 86.7857C41.2785 86.0419 43.3206 85.6912 45.2664 85.0683C49.2504 83.7928 53.2318 82.3571 57.2933 81.3423C60.8549 80.4519 64.5687 79.9923 68.1721 79.2897C71.2113 78.6963 74.184 77.9562 77.2737 77.6301C79.1587 77.4311 81.0383 77.619 82.9265 77.5262C85.1089 77.4201 87.1234 76.6032 89.2364 76.1483C92.0233 75.5479 95.1715 75.3321 98.0077 75.8693L98.0883 76.0141C99.682 72.5376 100.871 68.8586 101.611 65.0603" fill="#A3896D"/>
<path fill-rule="evenodd" clip-rule="evenodd" d="M102.04 60.7033C100.766 59.9412 99.6847 59.4738 98.1885 59.6914C97.3589 59.8119 96.5853 60.23 95.7404 60.238C95.2231 60.2441 94.7128 60.159 94.2449 59.9169C94.1493 59.8681 93.7673 59.5639 93.695 59.595C93.3672 59.735 93.0014 60.4195 92.6918 60.6665C91.6998 61.4645 90.3816 61.7139 89.1282 61.551C86.3946 61.1931 84.3308 59.001 81.7043 58.5856C80.1168 58.3368 78.8466 60.1223 77.2508 59.5313C74.9721 58.6857 73.5598 56.285 70.9688 56.0534C68.0339 55.7914 65.4258 57.7985 62.5613 58.0268C59.7402 58.253 57.3052 57.2983 54.5704 58.5311C51.8692 59.748 49.7367 62.1164 48.1443 64.5845C47.3851 65.7636 46.8563 67.2623 45.882 68.2767C44.8652 69.3374 43.44 68.591 42.2598 69.1754C41.5049 69.5491 41.3915 70.6284 40.5357 70.9939C39.4629 71.4528 37.9581 70.3844 36.7482 70.7738C35.1951 71.274 34.8059 73.1395 33.3056 73.6225C31.7745 74.1154 30.0937 73.3672 28.5332 73.7355C26.8913 74.123 26.1825 75.8052 24.7616 76.5267C23.5236 77.1558 22.0001 77.1851 20.6863 77.6133C18.665 78.2724 16.9675 79.5839 15.6854 81.2803L15.7567 81.0939C16.2533 81.8609 16.7729 82.6096 17.3063 83.3424L17.2677 83.2608C18.2247 82.3361 19.3816 81.436 20.7318 81.2352C21.9144 81.0594 23.2205 81.5104 24.3289 80.9584C25.5118 80.3679 26.317 79.2214 27.5175 78.6529C28.8105 78.0407 30.3511 78.3649 31.7125 77.8907C32.9255 77.4684 33.6078 76.2933 34.7672 75.7746C36.6165 74.948 38.7588 74.8531 40.6775 74.2367C43.3266 73.3853 45.6532 72.1346 48.5171 72.2787C50.9625 72.4036 53.1712 73.9243 55.3959 74.8525C57.9728 75.9318 60.8598 76.2939 63.5828 75.7206C67.2591 74.9469 71.1211 72.9242 73.9738 70.4447C75.945 68.7293 77.426 66.4865 79.8148 65.2868C81.521 64.4298 83.4296 64.0895 85.3233 64.4975C87.0096 64.8595 88.6212 65.7586 90.3614 65.76C92.4152 65.7613 94.2742 64.8512 96.2632 64.4891C97.9577 64.1812 99.6616 64.3848 101.344 64.7492L101.611 65.0604C101.764 64.2747 101.901 63.4833 102.012 62.6893C102.126 61.9153 102.219 61.138 102.295 60.3563" fill="#90320E"/>
<path fill-rule="evenodd" clip-rule="evenodd" d="M31.7124 77.8907C32.9255 77.4684 33.6077 76.2933 34.7671 75.7746C36.6164 74.948 38.7587 74.8531 40.6775 74.2367C43.3266 73.3853 45.6532 72.1346 48.517 72.2788C50.9624 72.4036 53.1711 73.9243 55.3958 74.8526C57.9728 75.9318 60.8598 76.2939 63.5827 75.7207C67.259 74.9469 71.121 72.9242 73.9738 70.4447C75.945 68.7293 77.4259 66.4865 79.8147 65.2869C81.521 64.4298 83.4295 64.0895 85.3233 64.4975C87.0096 64.8595 88.6212 65.7586 90.3614 65.76C92.4151 65.7613 94.2741 64.8512 96.2631 64.4891C97.9577 64.1812 99.6615 64.3848 101.344 64.7492L101.611 65.0604C101.764 64.2747 101.901 63.4833 102.012 62.6894L101.649 62.7995C99.7852 62.2395 97.6833 61.7142 95.7475 61.8802C93.9113 62.0367 92.1786 62.7913 90.3314 62.8751C87.8909 62.9858 85.9945 61.5033 83.6662 61.2937C81.702 61.1162 79.8213 62.1866 77.9005 61.9654C76.609 61.8191 75.554 60.7755 74.532 60.0472C73.6287 59.4049 72.6478 59.0007 71.5986 58.6945C68.8358 57.8936 66.1163 59.3497 63.3915 59.502C60.3694 59.6727 57.6572 58.0861 54.666 59.3839C52.0913 60.5012 50.1001 62.7148 48.9208 65.2701C48.3073 66.5982 48.904 68.3136 47.4586 69.1878C46.6591 69.6709 45.6185 69.597 44.7665 69.9869C43.6233 70.5099 42.9138 71.7188 41.7589 72.2777C39.5744 73.3346 37.0833 73.6627 34.9942 74.9337C33.9256 75.5845 33.1936 76.5913 32.3559 77.5071" fill="#D58D68"/>
<path fill-rule="evenodd" clip-rule="evenodd" d="M102.295 60.3564C102.796 55.1461 102.466 49.7784 101.223 44.4456L100.996 44.4835C96.4021 43.7153 91.7462 44.9891 87.313 45.8813C84.9109 46.3643 82.3049 46.2564 79.8695 46.5341C79.0029 46.6334 78.2445 47.1217 77.3915 47.2318C76.5809 47.337 75.7574 47.1839 74.9447 47.2833C73.8832 47.4133 72.9153 47.8778 71.8732 48.0629C70.8178 48.2517 69.7371 48.1753 68.6921 48.3936C67.5834 48.6259 66.5741 49.153 65.4794 49.3974C64.5394 49.6078 63.5736 49.5236 62.6432 49.8027C61.9432 50.0128 61.3476 50.4768 60.6337 50.6476C59.7073 50.8688 58.7316 50.7704 57.816 51.0221C57.1415 51.2072 56.6604 51.7178 56.0023 51.9217C54.6821 52.332 53.3128 52.2846 51.9845 52.6026C51.0176 52.8341 50.2093 53.4171 49.2575 53.6634C47.942 54.004 46.557 53.9537 45.2384 54.2854C44.1807 54.551 43.2586 55.1449 42.2226 55.4719C40.7591 55.9344 39.1979 55.9539 37.7257 56.3781C36.5249 56.7241 35.4605 57.4419 34.2679 57.8252C31.9754 58.5626 29.5674 58.8346 27.285 59.6561C25.7287 60.2164 24.6006 61.461 23.0815 62.0434C21.9377 62.4815 20.6674 62.3674 19.5249 62.7814C18.4779 63.1606 17.7305 64.0268 16.7247 64.467C15.4645 65.0193 14.0423 64.9886 12.7726 65.4863C11.6622 65.9217 10.7704 66.8506 9.71425 67.4118L9.62441 67.5182C9.91992 68.5481 10.2446 69.5773 10.6071 70.6027C11.9403 74.3739 13.6806 77.8827 15.7568 81.094L15.6854 81.2804C16.9675 79.5839 18.6651 78.2725 20.6863 77.6134C22.0001 77.1851 23.5236 77.1558 24.7616 76.5267C26.1825 75.8053 26.8913 74.1231 28.5332 73.7356C30.0937 73.3673 31.7745 74.1155 33.3056 73.6226C34.8059 73.1395 35.1951 71.2741 36.7482 70.7739C37.9582 70.3844 39.463 71.4528 40.5357 70.994C41.3915 70.6285 41.5049 69.5492 42.2598 69.1755C43.44 68.591 44.8653 69.3374 45.882 68.2768C46.8564 67.2623 47.3851 65.7637 48.1443 64.5845C49.7368 62.1164 51.8692 59.7481 54.5704 58.5312C57.3052 57.2984 59.7402 58.253 62.5613 58.0269C65.4258 57.7985 68.0339 55.7914 70.9688 56.0535C73.5598 56.285 74.9721 58.6858 77.2509 59.5314C78.8466 60.1223 80.1168 58.3369 81.7043 58.5857C84.3309 59.0011 86.3947 61.1931 89.1283 61.551C90.3816 61.714 91.6998 61.4645 92.6918 60.6665C93.0015 60.4195 93.3672 59.7351 93.695 59.595C93.7673 59.5639 94.1493 59.8681 94.245 59.9169C94.7128 60.1591 95.2231 60.2441 95.7404 60.2381C96.5854 60.23 97.3589 59.812 98.1886 59.6914C99.6847 59.4738 100.766 59.9412 102.04 60.7033" fill="#DC6426"/>
<path fill-rule="evenodd" clip-rule="evenodd" d="M96.5675 31.5691C95.1436 31.4781 93.7272 31.4499 92.3312 31.7983C90.4804 32.2602 88.8032 33.1025 86.8772 33.2686C84.9559 33.434 83.1046 32.6191 81.1626 32.948C78.7719 33.3519 76.7823 34.8769 74.2933 35.1417C72.1446 35.3709 69.8306 34.7584 67.7314 35.2663C65.8309 35.7261 64.1763 36.9649 62.2519 37.4543C60.0665 38.0093 57.7051 37.6925 55.5706 38.4054C53.6814 39.036 52.0469 40.2898 50.1133 40.781C48.0718 41.2997 46.0199 40.389 44.0454 40.9168C42.2321 41.4017 41.0371 43.0532 39.2407 43.5442C37.7124 43.9621 36.1091 43.2666 34.5827 43.6621C33.411 43.9655 32.6671 45.2022 31.483 45.3599C30.2011 45.532 28.9068 44.9897 27.6469 45.4043C26.5011 45.7812 25.7141 46.8402 24.6075 47.3141C23.3563 47.8501 21.9118 47.715 20.7284 48.429C19.5285 49.1519 18.6076 50.2895 17.2565 50.7511C15.7173 51.2766 14.16 50.9471 12.5891 51.1473C10.8916 51.3636 9.38758 52.058 7.95078 52.9564L7.76081 53.015C7.66035 57.8042 8.25933 62.6868 9.62431 67.5181L9.71414 67.4118C10.7703 66.8506 11.6621 65.9217 12.7725 65.4863C14.0422 64.9886 15.4644 65.0193 16.7246 64.467C17.7304 64.0268 18.4778 63.1606 19.5248 62.7814C20.6673 62.3674 21.9376 62.4815 23.0814 62.0434C24.6005 61.461 25.7286 60.2164 27.2849 59.6561C29.5673 58.8346 31.9753 58.5626 34.2678 57.8252C35.4603 57.4419 36.5248 56.724 37.7256 56.3781C39.1977 55.9539 40.759 55.9344 42.2225 55.4719C43.2585 55.1449 44.1805 54.551 45.2383 54.2853C46.5569 53.9537 47.9419 54.004 49.2574 53.6634C50.2092 53.4171 51.0175 52.8341 51.9844 52.6026C53.3127 52.2846 54.682 52.332 56.0022 51.9217C56.6603 51.7177 57.1413 51.2071 57.8159 51.0221C58.7315 50.7704 59.7072 50.8688 60.6336 50.6475C61.3475 50.4768 61.9431 50.0128 62.643 49.8026C63.5735 49.5236 64.5393 49.6078 65.4793 49.3974C66.574 49.1529 67.5833 48.6258 68.692 48.3936C69.737 48.1752 70.8177 48.2516 71.8731 48.0629C72.9152 47.8778 73.8831 47.4132 74.9446 47.2833C75.7573 47.1839 76.5808 47.337 77.3914 47.2318C78.2444 47.1217 79.0028 46.6334 79.8694 46.5341C82.3048 46.2564 84.9108 46.3643 87.3129 45.8813C91.746 44.989 96.402 43.7153 100.996 44.4834L101.223 44.4456C101.016 43.5692 100.785 42.6933 100.529 41.8194C100.269 40.9161 99.9757 40.0173 99.6586 39.1204C98.7063 36.4266 97.5465 33.8671 96.2036 31.4545" fill="#B4BABA"/>
<path fill-rule="evenodd" clip-rule="evenodd" d="M23.0815 62.0433C24.6005 61.4609 25.7287 60.2163 27.285 59.6561C29.5674 58.8346 31.9754 58.5626 34.2679 57.8252C35.4604 57.4418 36.5249 56.724 37.7257 56.3781C39.1978 55.9538 40.7591 55.9343 42.2225 55.4719C43.2586 55.1449 44.1806 54.5509 45.2383 54.2853C46.5569 53.9536 47.942 54.004 49.2574 53.6634C50.2092 53.417 51.0175 52.8341 51.9844 52.6026C53.3128 52.2846 54.6821 52.332 56.0023 51.9216C56.6604 51.7177 57.1414 51.2071 57.816 51.022C58.7316 50.7704 59.7073 50.8687 60.6337 50.6475C61.3476 50.4767 61.9431 50.0128 62.6431 49.8026C63.5736 49.5235 64.5394 49.6078 65.4794 49.3973C66.574 49.1529 67.5833 48.6258 68.6921 48.3935C69.7371 48.1752 70.8177 48.2516 71.8732 48.0628C72.9153 47.8778 73.8831 47.4132 74.9447 47.2832C75.7573 47.1838 76.5809 47.337 77.3915 47.2318C78.2444 47.1216 79.0029 46.6334 79.8695 46.534C82.3049 46.2564 84.9109 46.3642 87.3129 45.8813C91.7461 44.989 96.4021 43.7152 100.996 44.4834L101.223 44.4456C101.016 43.5692 100.785 42.6933 100.53 41.8193L100.646 42.178C98.8963 41.7877 96.7418 40.8362 94.9665 41.3872C93.5623 41.8232 93.306 43.3021 91.5879 43.3771C90.5355 43.4222 89.5098 42.9743 88.4572 42.9772C87.3746 42.9786 86.3839 43.4613 85.2822 43.4085C84.0663 43.3512 82.7277 42.9611 81.5284 43.2838C80.7186 43.5021 81.22 43.8668 80.9745 44.5586C80.7397 45.2113 80.0744 45.4365 79.4584 45.5238C77.4659 45.8066 75.4426 44.852 73.4462 45.0822C71.9536 45.2543 71.6579 47.0378 70.0299 47.2708C67.0168 47.7023 63.8838 47.005 60.863 47.5259C59.4127 47.7761 58.8153 49.2467 57.3168 49.4576C54.9082 49.7973 52.2981 49.3589 49.9576 50.0574C48.6676 50.4424 48.4475 51.9131 47.165 52.3191C45.4902 52.8493 43.4751 51.9593 41.8877 52.8338C41.0102 53.3178 41.5525 54.7547 40.36 55.1521C38.7376 55.6919 36.8798 54.4566 35.238 55.0662C34.4885 55.3443 34.5659 56.4781 33.8491 56.8347C33.2031 57.1558 32.392 57.1212 31.6953 57.2713C30.429 57.5431 29.1543 57.9434 28.0005 58.5332C26.0041 59.5538 24.3754 61.6282 22.3244 62.4248" fill="#3DB4C6"/>
<path fill-rule="evenodd" clip-rule="evenodd" d="M96.2036 31.4545C95.6609 30.4736 95.0874 29.5168 94.4794 28.5872L94.5767 28.6128C92.2698 28.6717 90.3938 29.8664 88.2059 30.3452C86.4138 30.7374 84.5306 30.4703 82.719 30.7244C80.8236 30.9909 79.0973 31.7911 77.2402 32.1797C74.0506 32.8469 70.665 32.5855 67.5196 33.2945C65.2048 33.8161 63.1422 35.1206 60.8559 35.7647C58.9347 36.3048 56.8826 36.2389 54.9454 36.7198C53.1569 37.1641 51.5134 38.0182 49.7389 38.502C47.9825 38.9814 46.1047 38.8403 44.3267 39.217C42.2656 39.6524 40.3645 40.596 38.3018 41.0547C36.7796 41.3924 35.2275 41.5628 33.7064 41.9454C32.5136 42.2447 31.3748 42.7939 30.1655 43.0466C27.5046 43.6014 24.6798 43.7895 22.0762 44.6309C20.3829 45.1782 19.2109 46.6453 17.5267 47.2181C16.14 47.6897 14.6088 47.6557 13.1819 47.9723C11.1963 48.4133 9.49126 49.3707 7.93123 50.6552L7.87045 50.5663C7.81469 51.3789 7.77533 52.1963 7.7609 53.015L7.95087 52.9563C9.38767 52.058 10.8917 51.3636 12.5892 51.1473C14.1601 50.9471 15.7174 51.2766 17.2566 50.7511C18.6077 50.2895 19.5286 49.1519 20.7285 48.429C21.9119 47.715 23.3564 47.8501 24.6076 47.3141C25.7142 46.8402 26.5012 45.7812 27.647 45.4043C28.9069 44.9897 30.2012 45.532 31.4831 45.3599C32.6672 45.2022 33.4111 43.9655 34.5828 43.6621C36.1092 43.2665 37.7125 43.9621 39.2408 43.5442C41.0372 43.0532 42.2322 41.4016 44.0455 40.9168C46.02 40.389 48.0719 41.2997 50.1134 40.781C52.047 40.2898 53.6815 39.0359 55.5707 38.4053C57.7052 37.6925 60.0665 38.0093 62.252 37.4543C64.1764 36.9649 65.831 35.7261 67.7315 35.2663C69.8307 34.7584 72.1447 35.3709 74.2934 35.1417C76.7824 34.8769 78.772 33.3519 81.1627 32.948C83.1047 32.6191 84.956 33.434 86.8773 33.2686C88.8033 33.1025 90.4805 32.2602 92.3313 31.7983C93.7273 31.4499 95.1437 31.4781 96.5676 31.5691" fill="#90A697"/>
<path fill-rule="evenodd" clip-rule="evenodd" d="M89.934 22.0093C88.0245 22.1389 86.2944 22.8316 84.4242 23.0722C82.5776 23.3104 80.7089 22.7374 78.8702 23.0257C77.0175 23.316 75.4015 24.3311 73.5785 24.7333C71.1646 25.2658 68.5904 25.1094 66.1421 25.5584C63.7904 25.9898 61.5955 27.0308 59.255 27.5217C57.2614 27.9399 55.1789 27.7744 53.179 28.2305C51.116 28.7019 49.2197 29.7144 47.1638 30.2201C45.18 30.7078 43.0785 30.6684 41.1342 31.3235C39.4834 31.8799 37.9989 32.8234 36.3265 33.3325C34.5699 33.8669 32.701 33.7649 30.9689 34.4377C29.2238 35.1156 27.9001 36.5558 26.1605 37.263C24.6693 37.8688 22.9855 37.7774 21.4451 38.2439C19.329 38.8842 17.4824 40.1204 15.4367 40.9322C13.1721 41.8316 10.7187 42.2939 8.64986 43.6363L8.95359 43.2479C8.41275 45.6409 8.04771 48.0877 7.87036 50.5663L7.93114 50.6551C9.49116 49.3707 11.1962 48.4133 13.1818 47.9722C14.6087 47.6557 16.1399 47.6896 17.5266 47.218C19.2108 46.6452 20.3828 45.1781 22.0761 44.6309C24.6797 43.7895 27.5045 43.6014 30.1654 43.0466C31.3747 42.7938 32.5135 42.2446 33.7063 41.9453C35.2274 41.5627 36.7795 41.3924 38.3018 41.0547C40.3644 40.596 42.2655 39.6524 44.3266 39.2169C46.1046 38.8402 47.9824 38.9813 49.7388 38.5019C51.5133 38.0181 53.1569 37.1641 54.9453 36.7197C56.8825 36.2389 58.9346 36.3048 60.8558 35.7646C63.1421 35.1206 65.2047 33.8161 67.5195 33.2944C70.6649 32.5854 74.0505 32.8468 77.2401 32.1796C79.0973 31.7911 80.8236 30.9909 82.7189 30.7243C84.5305 30.4702 86.4137 30.7374 88.2058 30.3451C90.3937 29.8663 92.2697 28.6716 94.5766 28.6127L94.4794 28.5872C92.9142 26.1699 91.1544 23.9228 89.2339 21.8589" fill="#F8B05C"/>
<path fill-rule="evenodd" clip-rule="evenodd" d="M89.934 22.0094C88.0245 22.1389 86.2945 22.8316 84.4242 23.0722C82.5777 23.3105 80.7089 22.7374 78.8703 23.0258C77.0176 23.316 75.4015 24.3312 73.5786 24.7333C71.1647 25.2658 68.5905 25.1095 66.1421 25.5584C63.7905 25.9898 61.5955 27.0308 59.2551 27.5217C57.2614 27.9399 55.179 27.7744 53.1791 28.2305C51.116 28.702 49.2197 29.7144 47.1639 30.2201C45.1801 30.7078 43.0785 30.6685 41.1343 31.3236C39.4835 31.88 37.9989 32.8234 36.3265 33.3326C34.5699 33.8669 32.7011 33.765 30.9689 34.4378C29.2239 35.1157 27.9002 36.5558 26.1606 37.263C24.6693 37.8688 22.9856 37.7775 21.4451 38.244C19.3291 38.8843 17.4824 40.1204 15.4368 40.9323C13.1722 41.8316 10.7187 42.294 8.64993 43.6364L8.95366 43.2479C9.4945 40.8549 10.2155 38.514 11.1001 36.2478L11.1958 36.2134C13.8089 34.6086 16.567 34.2597 19.5195 33.6148C21.2575 33.2357 22.8458 32.4611 24.5445 31.9709C25.5095 31.6926 26.531 31.6569 27.4898 31.3749C28.6394 31.0365 29.6335 30.3138 30.7861 29.9839C32.1168 29.6031 33.507 29.5156 34.8553 29.2127C36.0588 28.9435 37.2033 28.4381 38.4065 28.1543C40.8675 27.5749 43.3948 27.2245 45.8412 26.5621C47.2187 26.189 48.4119 25.3223 49.8044 24.9917C51.5943 24.5655 53.447 24.0949 55.2677 23.8391C56.206 23.7069 57.1849 23.8283 58.1034 23.5987C58.9635 23.3838 59.7522 22.9534 60.6167 22.751C61.558 22.5306 62.5331 22.5717 63.4586 22.2788C64.3137 22.0082 65.0714 21.4346 65.9548 21.2442C66.8385 21.0547 67.78 21.3893 68.6283 21.1967C69.3677 21.0285 69.8844 20.3692 70.606 20.1368C71.486 19.8539 72.4412 19.9081 73.3467 19.7386C74.3213 19.5568 75.2293 19.1033 76.2045 18.9092C78.8913 18.3724 81.3045 18.3227 83.7715 16.9423L83.6959 16.7564C85.6543 18.3037 87.5109 20.0068 89.234 21.8589" fill="#E0DDDB"/>
<path fill-rule="evenodd" clip-rule="evenodd" d="M79.9989 14.3524C77.6513 15.4191 75.3033 15.4588 72.7655 15.6271C69.6146 15.8353 66.4601 16.006 63.3783 16.7147C57.3826 18.0943 51.5041 19.7499 45.5431 21.2413C41.2074 22.3262 36.7554 22.8463 32.4475 23.9819C29.6458 24.7205 27.0604 25.974 24.3671 26.9917C20.7142 28.3722 17.0884 29.4828 13.5515 31.1498L13.4182 31.2025C12.5499 32.8358 11.7782 34.5201 11.1001 36.2478L11.1958 36.2134C13.8089 34.6086 16.5671 34.2597 19.5195 33.6149C21.2575 33.2357 22.8458 32.4611 24.5445 31.9709C25.5096 31.6927 26.531 31.657 27.4898 31.3749C28.6394 31.0365 29.6335 30.3138 30.7861 29.9839C32.1168 29.6031 33.507 29.5157 34.8554 29.2128C36.0588 28.9435 37.2033 28.4381 38.4065 28.1543C40.8676 27.5749 43.3948 27.2245 45.8413 26.5621C47.2187 26.189 48.4119 25.3223 49.8044 24.9917C51.5943 24.5655 53.447 24.0949 55.2678 23.8391C56.206 23.7069 57.1849 23.8283 58.1035 23.5987C58.9635 23.3839 59.7522 22.9534 60.6167 22.751C61.5581 22.5306 62.5331 22.5717 63.4587 22.2788C64.3137 22.0082 65.0714 21.4346 65.9548 21.2442C66.8385 21.0547 67.7801 21.3893 68.6284 21.1967C69.3677 21.0285 69.8845 20.3693 70.606 20.1368C71.4861 19.8539 72.4412 19.9081 73.3467 19.7387C74.3213 19.5568 75.2293 19.1033 76.2045 18.9092C78.8913 18.3724 81.3045 18.3227 83.7715 16.9423L83.696 16.7564C82.5222 15.8345 81.314 14.9675 80.0681 14.1602" fill="#FAB242"/>
<path fill-rule="evenodd" clip-rule="evenodd" d="M73.7396 10.62C71.7294 11.4768 69.8194 11.3692 67.7431 11.7894C66.8424 11.9723 66.1046 12.616 65.2115 12.8068C64.478 12.9639 63.7175 12.8917 62.9792 13.049C61.908 13.2765 60.9211 13.701 59.8192 13.8276C58.5286 13.9751 57.1976 13.8975 55.9199 14.1231C53.9964 14.4626 52.2014 15.3042 50.3004 15.7213C49.0225 16.0018 47.6893 15.987 46.401 16.2244C44.0275 16.663 41.7716 17.4762 39.4495 18.0467C38.4666 18.2884 37.4275 18.2326 36.4438 18.4857C34.7998 18.9087 33.3316 19.7043 31.7324 20.1573C30.6768 20.4565 29.5201 20.4146 28.4461 20.6482C26.7127 21.0262 25.1232 21.7282 23.4591 22.3024C21.3278 23.0383 19.3003 23.5828 17.4828 24.9844L17.4339 24.8878C15.9339 26.8825 14.5886 28.9963 13.4181 31.2024L13.5514 31.1497C17.0884 29.4827 20.7142 28.3721 24.367 26.9916C27.0603 25.974 29.6457 24.7205 32.4474 23.9818C36.7553 22.8462 41.2074 22.3261 45.543 21.2412C51.5041 19.7499 57.3826 18.0942 63.3782 16.7146C66.4601 16.0059 69.6145 15.8352 72.7654 15.627C75.3032 15.4587 77.6512 15.419 79.9988 14.3523L80.0681 14.1601C77.8543 12.7222 75.5302 11.471 73.1244 10.4184" fill="#D7D4D7"/>
<path fill-rule="evenodd" clip-rule="evenodd" d="M73.1245 10.4184C62.5922 5.81313 50.4846 5.01382 38.954 9.09021C30.0807 12.2272 22.7538 17.8258 17.4341 24.8879L17.4829 24.9844C19.3005 23.5828 21.3279 23.0383 23.4592 22.3024C25.1233 21.7282 26.7129 21.0262 28.4463 20.6482C29.5202 20.4146 30.6769 20.4565 31.7326 20.1573C33.3317 19.7043 34.7999 18.9087 36.4439 18.4857C37.4277 18.2326 38.4668 18.2884 39.4496 18.0467C41.7717 17.4762 44.0276 16.663 46.4012 16.2244C47.6894 15.987 49.0227 16.0018 50.3006 15.7213C52.2015 15.3042 53.9965 14.4626 55.92 14.1231C57.1977 13.8976 58.5287 13.9751 59.8193 13.8276C60.9213 13.701 61.9081 13.2765 62.9793 13.049C63.7176 12.8917 64.4782 12.9639 65.2116 12.8068C66.1047 12.6161 66.8425 11.9723 67.7433 11.7894C69.8196 11.3692 71.7296 11.4768 73.7397 10.6201" fill="#C69770"/>
<path fill-rule="evenodd" clip-rule="evenodd" d="M92.1491 85.7182C94.5102 82.7351 96.4989 79.475 98.0883 76.0141L98.0077 75.8693C95.1715 75.3321 92.0232 75.5479 89.2364 76.1483C87.1233 76.6032 85.1089 77.4201 82.9264 77.5262C81.0382 77.619 79.1586 77.4311 77.2737 77.6301C74.184 77.9562 71.2113 78.6963 68.172 79.2897C64.5686 79.9923 60.8548 80.4519 57.2933 81.3423C53.2317 82.3571 49.2504 83.7928 45.2663 85.0683C43.3205 85.6912 41.2785 86.0419 39.3754 86.7857C37.8557 87.3804 36.5023 88.3203 34.9652 88.8934C31.8652 90.0498 28.8506 91.0042 25.9966 92.7315L26.1026 92.5877C29.1211 95.0266 32.4026 97.0869 35.8735 98.7261L36.0197 98.821C37.0077 98.2611 38.1527 98.2286 39.237 97.9828C40.8111 97.6253 42.7026 97.0427 44.1891 96.4235C45.304 95.9594 46.1775 95.0894 47.2919 94.6098C48.2531 94.1959 49.3622 94.2557 50.3069 93.823C50.9693 93.5203 51.4842 92.9252 52.1704 92.7038C53.0061 92.434 53.9132 92.6296 54.7641 92.486C55.7121 92.3257 56.4556 91.615 57.3826 91.3814C58.3005 91.1501 59.2594 91.4091 60.1726 91.192C62.7541 90.5791 65.2687 89.4856 67.8925 89.0477C69.0492 88.8543 70.1616 89.1315 71.3046 89.0378C72.4519 88.9425 73.5127 88.2974 74.6634 88.1284C75.9862 87.9333 77.3388 88.2107 78.6524 88.0173C80.0217 87.8153 81.2585 87.1413 82.6437 86.9841C84.005 86.8287 85.3307 87.3489 86.6541 87.1833C88.6437 86.9338 90.3907 85.7344 92.4412 85.5046" fill="#713827"/>
<path fill-rule="evenodd" clip-rule="evenodd" d="M92.4411 85.5047C90.3906 85.7344 88.6437 86.9338 86.6541 87.1833C85.3307 87.3489 84.0049 86.8288 82.6436 86.9841C81.2584 87.1413 80.0216 87.8153 78.6523 88.0173C77.3387 88.2107 75.9861 87.9333 74.6634 88.1284C73.5127 88.2975 72.4519 88.9425 71.3045 89.0378C70.1616 89.1316 69.0492 88.8544 67.8924 89.0477C65.2686 89.4857 62.7541 90.5791 60.1725 91.1921C59.2594 91.4091 58.3004 91.1502 57.3825 91.3815C56.4556 91.615 55.712 92.3257 54.7641 92.486C53.9132 92.6297 53.006 92.434 52.1703 92.7038C51.4841 92.9252 50.9692 93.5203 50.3068 93.823C49.3621 94.2557 48.253 94.196 47.2918 94.6098C46.1774 95.0894 45.3039 95.9594 44.189 96.4236C42.7025 97.0428 40.8111 97.6253 39.237 97.9828C38.1526 98.2286 37.0077 98.2612 36.0196 98.821L35.8734 98.7261C37.7316 99.6021 39.6409 100.359 41.589 100.99L41.5075 100.898C45.0192 98.3974 49.269 97.3191 53.3613 96.225C54.8345 95.8316 56.2453 95.151 57.7486 94.8704C58.6175 94.7083 59.5048 94.7785 60.3795 94.633C61.9582 94.3716 63.3922 93.5069 64.9625 93.1941C66.2715 92.9323 67.5446 93.2343 68.837 93.0504C70.1061 92.8698 71.3212 92.3147 72.5747 92.0484C74.6118 91.6144 76.8564 91.4208 78.931 91.1483C81.7321 90.7821 84.5562 91.299 87.3656 90.9843L87.0757 91.176C88.9152 89.49 90.6118 87.6631 92.1491 85.7182" fill="#958DA2"/>
<path fill-rule="evenodd" clip-rule="evenodd" d="M87.3657 90.9843C84.5562 91.299 81.7321 90.7821 78.9311 91.1483C76.8565 91.4208 74.6119 91.6144 72.5748 92.0484C71.3213 92.3147 70.1062 92.8698 68.8371 93.0504C67.5446 93.2343 66.2715 92.9323 64.9625 93.1941C63.3923 93.5069 61.9582 94.3716 60.3796 94.633C59.5048 94.7785 58.6175 94.7083 57.7486 94.8704C56.2453 95.151 54.8345 95.8316 53.3613 96.225C49.269 97.3191 45.0192 98.3974 41.5075 100.898L41.5891 100.99C51.0067 104.037 61.3754 104.145 71.316 100.631C77.3274 98.5056 82.6305 95.2501 87.0757 91.176" fill="#531006"/>
<path fill-rule="evenodd" clip-rule="evenodd" d="M67.3822 73.3391C68.2147 72.1624 69.0853 70.5828 69.1327 69.0892C69.1857 67.4732 68.247 66.0595 67.098 65.0168C64.3502 62.5277 58.8284 62.7457 56.1669 65.2603C53.4578 67.8197 55.9854 71.5067 59.2024 71.529C60.5129 71.5389 61.9873 71.0052 62.9348 70.0847C63.2726 69.7572 63.5855 69.3869 63.8263 68.9784C63.9445 68.7747 63.9547 68.155 64.1187 68.3291C64.236 68.4541 64.1295 69.0356 64.1109 69.1901C63.9931 70.1812 63.5501 71.1079 62.9158 71.852C58.9481 76.4932 51.5201 70.2845 54.6504 65.1507C56.82 61.5893 61.4895 62.0371 65.0338 61.8403C66.9564 61.7331 68.8478 61.4961 70.5282 62.7454C71.0117 63.1059 71.4249 63.6261 71.7271 64.1499C74.047 68.1324 70.3746 71.9538 67.0772 73.4835" fill="#E36A42"/>
<path d="M38.755 82.0785C37.137 82.6508 35.3489 81.7663 34.7611 80.103C34.1733 78.4397 35.0084 76.6274 36.6264 76.0552C38.2443 75.4829 40.0324 76.3674 40.6202 78.0307C41.208 79.694 40.373 81.5062 38.755 82.0785Z" fill="#BD8F72" stroke="#885133" stroke-width="0.00385655" stroke-miterlimit="1.5" stroke-linecap="round" stroke-linejoin="round"/>
<path d="M24.1233 79.9443C23.0692 80.317 22.0163 80.0584 21.7718 79.3669C21.5273 78.6753 22.1838 77.8125 23.238 77.4398C24.2922 77.0671 25.3449 77.3257 25.5894 78.0172C25.8339 78.7088 25.1775 79.5716 24.1233 79.9443Z" fill="#915636"/>
<path d="M86.9237 75.7928C86.1095 76.0807 85.2041 75.6204 84.9016 74.7646C84.5991 73.9089 85.0139 72.9818 85.8282 72.6939C86.6425 72.4061 87.5479 72.8664 87.8504 73.7221C88.1529 74.5779 87.738 75.5049 86.9237 75.7928Z" fill="#BD8F72" stroke="#915636" stroke-width="0.00385655" stroke-miterlimit="1.5" stroke-linecap="round" stroke-linejoin="round"/>
<path d="M87.5466 68.3942C87.1134 68.5473 86.6422 68.3317 86.494 67.9125C86.3459 67.4934 86.5768 67.0295 87.01 66.8764C87.4431 66.7233 87.9143 66.9389 88.0625 67.3581C88.2107 67.7772 87.9797 68.2411 87.5466 68.3942Z" fill="#915636"/>
<path d="M93.3006 68.7919C92.9429 68.9184 92.5344 68.6857 92.3882 68.2722C92.2421 67.8588 92.4136 67.4211 92.7713 67.2946C93.129 67.1682 93.5374 67.4008 93.6836 67.8143C93.8298 68.2278 93.6583 68.6655 93.3006 68.7919Z" fill="#915636"/>
<path d="M76.8271 71.5542C76.4842 71.6754 76.1038 71.484 75.9775 71.1266C75.8512 70.7693 76.0267 70.3813 76.3696 70.2601C76.7124 70.1389 77.0928 70.3303 77.2191 70.6877C77.3454 71.045 77.1699 71.433 76.8271 71.5542Z" fill="#915636"/>
<path d="M90.7248 82.8065C89.5295 82.897 88.5036 82.3339 88.4334 81.5487C88.3633 80.7636 89.2754 80.0537 90.4708 79.9633C91.6662 79.8728 92.6921 80.4359 92.7623 81.2211C92.8324 82.0062 91.9202 82.716 90.7248 82.8065Z" fill="#73493B"/>
<path d="M44.2676 98.1641C43.4947 98.4373 42.6637 98.0802 42.4114 97.3665C42.1591 96.6528 42.581 95.8527 43.3539 95.5795C44.1268 95.3063 44.9578 95.6633 45.2102 96.3771C45.4625 97.0908 45.0405 97.8909 44.2676 98.1641Z" fill="#5B3E37"/>
<path d="M48.4621 96.592C47.9967 96.7566 47.481 96.4987 47.3104 96.0161C47.1398 95.5335 47.3788 95.0088 47.8443 94.8443C48.3097 94.6797 48.8253 94.9376 48.9959 95.4202C49.1666 95.9029 48.9276 96.4275 48.4621 96.592Z" fill="#5B3E37"/>
<path d="M55.138 94.7824C54.8236 94.8935 54.463 94.6846 54.3326 94.3156C54.2021 93.9467 54.3513 93.5575 54.6657 93.4464C54.98 93.3352 55.3406 93.5442 55.471 93.9132C55.6014 94.2821 55.4523 94.6712 55.138 94.7824Z" fill="#5B3E37"/>
<path d="M58.6642 93.8034C58.1195 93.996 57.5202 93.706 57.3257 93.1557C57.1311 92.6054 57.415 92.0032 57.9597 91.8106C58.5043 91.618 59.1036 91.9081 59.2982 92.4584C59.4927 93.0087 59.2089 93.6109 58.6642 93.8034Z" fill="#5B3E37"/>
<path d="M62.1473 92.6608C61.8631 92.7613 61.5487 92.6051 61.4451 92.312C61.3414 92.0189 61.4878 91.6998 61.772 91.5994C62.0562 91.4989 62.3706 91.655 62.4742 91.9482C62.5779 92.2413 62.4315 92.5603 62.1473 92.6608Z" fill="#5B3E37"/>
<path d="M68.7522 90.8302C68.4163 90.9489 68.053 90.7878 67.9407 90.4703C67.8285 90.1528 68.0098 89.7992 68.3457 89.6805C68.6816 89.5617 69.045 89.7228 69.1572 90.0403C69.2694 90.3578 69.0881 90.7114 68.7522 90.8302Z" fill="#5B3E37"/>
<path d="M74.3893 90.9523C73.7055 91.1941 73.0022 90.9689 72.8186 90.4493C72.6349 89.9298 73.0404 89.3126 73.7242 89.0709C74.408 88.8291 75.1112 89.0543 75.2949 89.5739C75.4785 90.0934 75.0731 90.7106 74.3893 90.9523Z" fill="#5B3E37"/>
<path d="M82.87 89.5579C82.2612 89.7731 81.6373 89.5789 81.4765 89.1241C81.3157 88.6693 81.6789 88.1261 82.2878 87.9109C82.8966 87.6956 83.5206 87.8898 83.6814 88.3446C83.8422 88.7994 83.4789 89.3426 82.87 89.5579Z" fill="#5B3E37"/>
<path d="M21.9953 26.1967C21.5021 26.3711 20.984 26.1778 20.8381 25.7651C20.6922 25.3524 20.9737 24.8764 21.4669 24.7021C21.9601 24.5277 22.4783 24.7209 22.6242 25.1337C22.7701 25.5464 22.4885 26.0223 21.9953 26.1967Z" fill="#9A937D"/>
<path d="M27.4008 23.8014C26.7386 24.0355 26.0498 23.7956 25.8624 23.2654C25.675 22.7353 26.0599 22.1158 26.7222 21.8816C27.3844 21.6475 28.0732 21.8875 28.2606 22.4176C28.448 22.9477 28.0631 23.5673 27.4008 23.8014Z" fill="#9A937D"/>
<path d="M45.953 19.0144C45.4269 19.2004 44.9318 19.1568 44.8471 18.9171C44.7623 18.6774 45.12 18.3323 45.6461 18.1463C46.1721 17.9604 46.6672 18.0039 46.752 18.2436C46.8367 18.4834 46.479 18.8285 45.953 19.0144Z" fill="#9A937D"/>
<path d="M53.6864 17.5197C53.1709 17.702 52.6443 17.542 52.5101 17.1625C52.3759 16.783 52.685 16.3277 53.2005 16.1454C53.716 15.9632 54.2427 16.1231 54.3768 16.5026C54.511 16.8821 54.2018 17.3375 53.6864 17.5197Z" fill="#9A937D"/>
<path d="M71.392 14.4356C70.7922 14.6477 70.1657 14.4225 69.9925 13.9328C69.8194 13.443 70.1652 12.8741 70.765 12.6621C71.3647 12.45 71.9913 12.6752 72.1645 13.1649C72.3376 13.6547 71.9918 14.2236 71.392 14.4356Z" fill="#9A937D"/>
<path d="M41.0906 14.2824C40.35 14.5442 39.6646 14.5157 39.5595 14.2186C39.4545 13.9215 39.9697 13.4685 40.7103 13.2067C41.4508 12.9449 42.1363 12.9735 42.2413 13.2705C42.3463 13.5676 41.8311 14.0206 41.0906 14.2824Z" fill="#C7A98F"/>
<path d="M59.719 10.9112C58.8558 11.2163 58.0106 11.0519 57.831 10.5439C57.6514 10.036 58.2055 9.3768 59.0686 9.07165C59.9318 8.76651 60.7771 8.93096 60.9566 9.43893C61.1362 9.94691 60.5821 10.6061 59.719 10.9112Z" fill="#C7A98F"/>
<path d="M80.8246 84.1032C79.406 84.6047 77.9555 84.1612 77.5847 83.1125C77.214 82.0638 78.0634 80.8071 79.482 80.3056C80.9006 79.8041 82.3512 80.2477 82.7219 81.2963C83.0927 82.345 82.2432 83.6017 80.8246 84.1032Z" fill="#73493B"/>
<path d="M73.4016 85.3719C72.6608 85.6338 71.8292 85.1925 71.5442 84.3862C71.2591 83.58 71.6286 82.7141 72.3694 82.4522C73.1102 82.1903 73.9418 82.6316 74.2268 83.4379C74.5118 84.2441 74.1424 85.11 73.4016 85.3719Z" fill="#774B40"/>
<path d="M41.5514 93.2399C40.2101 93.714 38.7343 92.9995 38.2551 91.6439C37.7759 90.2883 38.4746 88.805 39.8159 88.3308C41.1572 87.8567 42.633 88.5712 43.1123 89.9268C43.5915 91.2824 42.8927 92.7657 41.5514 93.2399Z" fill="#8A5F56"/>
<path d="M33.8553 93.9845C33.0202 94.2797 32.115 93.8736 31.8335 93.0774C31.5521 92.2813 32.0009 91.3965 32.836 91.1012C33.6711 90.806 34.5763 91.2121 34.8578 92.0083C35.1393 92.8045 34.6904 93.6892 33.8553 93.9845Z" fill="#73544F"/>
<path d="M33.7083 11.3706C57.3883 -0.305348 86.2247 9.78018 98.1162 33.8973C110.008 58.0144 100.451 87.0304 76.7712 98.7064C53.0912 110.382 24.2548 100.297 12.3633 76.1797C0.471835 52.0626 10.0283 23.0466 33.7083 11.3706Z" fill="url(#paint0_radial_221_2670)" stroke="black" stroke-width="0.00385621" stroke-miterlimit="1.5" stroke-linecap="round" stroke-linejoin="round"/>
</g>
<defs>
<radialGradient id="paint0_radial_221_2670" cx="0" cy="0" r="1" gradientUnits="userSpaceOnUse" gradientTransform="translate(63.9068 59.0056) rotate(10.9609) scale(54.882 54.3459)">
<stop stop-color="#000A2B" stop-opacity="0"/>
<stop offset="1"/>
</radialGradient>
<clipPath id="clip0_221_2670">
<rect width="97.9148" height="97.9148" fill="white" transform="matrix(-0.990803 0.135309 0.135309 0.990803 97.0144 0)"/>
</clipPath>
</defs>
</svg>
