<svg width="180" height="168" viewBox="0 0 180 168" fill="none" xmlns="http://www.w3.org/2000/svg">
<path d="M17.7024 100.288C19.6913 109.601 18.8023 119.918 23.7293 128.421C27.8597 135.561 35.7084 140.197 43.4117 142.464C52.3853 145.099 61.53 142.187 70.531 144.411C74.7959 145.439 78.373 148.14 82.477 149.779C86.5035 151.425 90.8266 152.208 95.1685 152.077C102.695 151.841 110.358 148.372 116.168 143.721C119.56 141.014 122.787 138.138 126.396 135.701C130.005 133.264 134.002 131.7 137.6 129.336C143.467 125.34 148.102 119.776 150.982 113.27C152.32 110.352 151.906 106.97 151.539 103.898C151.479 103.297 151.466 102.713 151.462 102.113C154.116 94.7736 158.887 88.4407 161.689 81.0238C165.094 72.2197 163.611 62.5214 160.555 53.8679C157.458 44.9863 149.251 38.4923 141.613 33.5127C137.448 30.7975 133.586 27.7169 129.261 25.2634C124.936 22.81 122.387 18.8724 119.009 15.6628C112.501 9.4644 104.245 9.38406 96.5789 13.4831C92.5921 15.618 89.0666 18.524 85.2191 20.8355C80.0222 24.0266 74.2721 24.5954 68.3098 24.7392C58.2959 24.8478 48.4404 27.2264 39.4793 31.6976C31.9444 35.4719 24.06 40.2936 18.2624 46.5209C4.34698 61.2736 14.1219 83.512 17.7024 100.288Z" fill="url(#paint0_radial_229_384)"/>
<g style="mix-blend-mode:multiply" opacity="0.2">
<path d="M17.6213 99.8882C19.5575 109.213 18.6127 119.53 23.4902 128.058C27.5842 135.222 35.4128 139.89 43.0992 142.203C52.0854 144.891 61.2132 142.024 70.1878 144.254C74.449 145.325 78.0518 148.076 82.11 149.698C86.1236 151.377 90.4408 152.194 94.7841 152.098C102.323 151.915 109.996 148.486 115.842 143.868C119.253 141.185 122.496 138.318 126.18 135.906C129.864 133.493 133.796 131.945 137.414 129.604C143.303 125.643 147.969 120.105 150.883 113.615C152.237 110.708 151.85 107.319 151.561 104.228C151.502 103.64 151.478 103.048 151.488 102.457C154.184 95.1207 158.975 88.8112 161.796 81.4177C165.165 72.6362 163.735 62.9253 160.715 54.2492C157.618 45.3677 149.494 38.812 141.945 33.7974C137.787 31.0526 133.948 27.9524 129.624 25.4429C125.538 23.0585 122.783 19.016 119.428 15.7869C112.953 9.55273 104.683 9.35017 97.0092 13.4788C93.0255 15.627 89.4711 18.4699 85.6198 20.8243C80.4035 23.992 74.644 24.5211 68.7018 24.6322C58.683 24.7049 48.8147 27.0484 39.8329 31.4879C32.2886 35.2224 24.3785 39.9944 18.5194 46.1384C4.47345 60.8103 14.1198 83.0932 17.6213 99.8882ZM57.1867 122.433C57.9376 120.088 60.072 118.588 61.9467 117.109C64.7241 115.233 66.8544 112.54 68.0459 109.398C69.2943 105.985 70.0027 102.406 70.9563 98.9223C71.7108 96.241 72.3554 93.0966 74.2304 90.9739C75.3939 89.6632 76.8687 88.7259 78.0548 87.4518C79.7556 85.6501 79.4204 83.8286 79.4319 81.5335C79.3741 80.4503 79.6684 79.3783 80.2704 78.479C80.8723 77.5797 81.7494 76.9018 82.7695 76.5474C89.1506 73.4805 94.6481 67.9815 95.7204 60.7796C91.6939 63.8605 87.4386 67.4431 82.1165 67.0016C81.9953 66.9968 81.8789 66.9523 81.7851 66.8749C81.6913 66.7974 81.6253 66.6913 81.5971 66.5728C81.569 66.4542 81.5802 66.3298 81.6292 66.2185C81.6782 66.1071 81.7621 66.015 81.8682 65.9563C87.4376 62.6348 91.5909 54.1701 91.6763 47.7338C91.7195 44.9279 90.0456 37.1761 94.5656 36.4662C97.2499 36.0524 99.8685 37.1778 102.517 37.3736C106.14 37.6316 109.976 37.2656 113.011 35.0491C114.518 33.9506 115.768 31.5989 117.73 31.4825C120.294 31.265 121.36 35.0515 124.169 34.2865C126.263 33.7892 127.97 32.7131 130.173 33.6715C132.242 34.7298 134.237 35.9279 136.144 37.2577C141.188 40.3932 146.893 43.092 151.44 46.9466C157.363 51.97 160.406 60.0956 161.093 67.6763C161.302 69.8802 161.302 72.0986 161.094 74.3017C160.368 79.5976 158.418 84.6468 155.399 89.0453C153.771 91.2562 151.958 93.3234 149.98 95.2247C147.207 98.3152 148.379 101.196 149.282 104.826C149.386 105.262 148.845 105.74 148.451 105.428C146.601 103.719 145.151 101.619 144.209 99.279C144.428 103.952 144.671 109.429 140.874 112.539C139.804 113.423 137.59 115.64 136.085 115.396C134.147 115.087 132.622 113.702 130.957 112.728C132.264 114.948 133.765 117.051 135.002 119.33C135.071 119.46 135.086 119.612 135.044 119.753C135.002 119.894 134.906 120.012 134.777 120.082C132.63 121.472 132.471 124.669 130.242 125.884C129.384 126.341 128.458 126.656 127.499 126.814C128.08 127.253 128.694 127.645 129.336 127.986C129.417 128.039 129.483 128.112 129.528 128.198C129.573 128.284 129.596 128.38 129.594 128.477C129.592 128.574 129.565 128.668 129.516 128.752C129.468 128.836 129.398 128.906 129.315 128.955C127.825 129.822 126.437 130.855 125.177 132.034C126.139 131.806 127.1 131.578 128.075 131.346C128.733 131.19 128.934 132.037 128.458 132.374C120.683 137.952 114.165 145.245 104.716 148.048C101.507 149.006 97.3062 149.654 94.6575 147.054C92.8409 145.263 93.0074 140.457 93.3117 138.106C93.3792 137.629 94.1085 137.302 94.3522 137.859C94.9859 139.403 95.5368 140.98 96.0027 142.583C95.9402 140.873 96.0753 139.161 96.4055 137.483C96.4505 137.344 96.5473 137.227 96.6759 137.157C96.8045 137.088 96.9548 137.071 97.0959 137.11C99.1779 137.733 101.263 138.37 103.279 139.066C102.997 138.7 102.725 138.317 102.443 137.95C102.162 137.584 102.43 136.779 103.005 137.034C105.176 137.916 110.675 138.749 111.999 135.947C113.202 133.397 109.016 131.064 107.771 129.277C107.711 129.17 107.689 129.045 107.708 128.924C107.727 128.803 107.787 128.691 107.877 128.609C110.763 126.232 115.552 124.661 116.661 120.778C112.799 120.395 108.661 122.244 105.187 123.726C103.544 124.424 101.917 125.131 100.297 125.866C99.5081 126.235 98.4271 126.897 97.5106 126.611C95.1506 125.872 95.9673 121.988 96.5135 120.362C97.3846 118.019 98.1219 115.627 98.7217 113.198C98.6951 113.028 98.6551 112.86 98.6023 112.695C94.9938 115.076 93.7879 119.723 90.992 122.89C90.929 122.945 90.8543 122.987 90.7734 123.01C90.6925 123.033 90.6075 123.038 90.5243 123.025C90.4412 123.011 90.3621 122.979 90.2928 122.931C90.2234 122.883 90.1655 122.82 90.1233 122.746C89.6874 121.879 89.3576 120.963 89.141 120.016C88.9932 119.341 88.7939 118.678 88.5449 118.033C88.0696 117.028 87.2043 117.485 87.105 118.473C86.9053 120.561 87.2525 122.785 86.6821 124.836C86.4016 125.881 85.8113 127.027 84.5203 126.747C82.4886 126.335 81.0937 125.03 79.0189 125.258C79.7002 126.237 80.5565 127.081 81.544 127.747C81.6482 127.833 81.7175 127.955 81.7392 128.088C81.7608 128.222 81.7332 128.359 81.6616 128.474C81.59 128.588 81.4792 128.673 81.3499 128.711C81.2207 128.75 81.0818 128.74 80.9593 128.683C76.8734 126.431 72.3723 125.045 67.735 124.61C64.309 124.362 60.7383 124.441 57.4981 123.1C57.3725 123.048 57.2708 122.95 57.2131 122.827C57.1554 122.703 57.146 122.563 57.1867 122.433Z" fill="#764747"/>
</g>
<g style="mix-blend-mode:screen" opacity="0.6">
<path d="M147.289 97.4852C149.331 95.0712 150.669 92.1534 152.768 89.6841C154.473 87.6639 155.957 85.4652 157.193 83.1258C159.909 77.7666 160.822 71.6652 159.797 65.7336C158.811 59.3931 155.761 53.5549 151.124 49.1323C148.519 46.7863 145.694 44.6999 142.688 42.9024C140.504 41.188 138.132 39.73 135.618 38.5568C135.422 38.4916 135.135 38.9232 135.32 39.0608C144.951 45.6359 154.607 52.3169 157.892 64.159C159.597 70.4212 158.986 77.0869 156.171 82.9213C154.851 85.4543 153.273 87.8431 151.464 90.0497C149.731 92.3622 148.756 95.0539 147.077 97.3538C146.966 97.5338 147.149 97.6582 147.289 97.4852Z" fill="#E1CCCC"/>
</g>
<path opacity="0.7" d="M128.01 131.25C128.503 130.923 130.301 130.706 131.467 130.163C132.043 130.893 133.823 129.716 134.412 129.324C137.721 127.287 140.801 124.896 143.598 122.194C144.839 120.945 145.908 119.535 146.776 118.001C148.246 115.989 149.742 113.439 149.389 111.426C149.345 110.973 149.239 110.527 149.074 110.103C148.959 109.469 148.81 108.842 148.628 108.224C148.5 107.975 148.16 108.419 148.188 108.594C148.197 109.246 148.128 109.896 147.98 110.53C147.978 110.709 147.997 110.888 148.036 111.062C147.303 111.326 146.607 111.684 145.966 112.127C145.922 111.942 145.871 111.73 145.716 111.543C145.438 110.945 145.199 110.329 145 109.7C144.671 109.047 144.448 108.345 144.339 107.621C144.346 107.242 143.877 107.549 143.825 107.743C143.767 108.758 143.868 109.777 144.125 110.761C144.196 111.353 144.334 111.934 144.536 112.494C144.59 112.663 144.631 112.836 144.659 113.01C142.64 114.546 140.794 116.297 139.151 118.232L138.956 118.055C138.514 117.601 138.095 117.183 137.687 116.693C137.515 116.496 137.192 116.894 137.318 117.074C137.623 117.572 137.963 118.047 138.337 118.495C138.435 118.612 138.519 118.732 138.603 118.852L138.31 119.201C137.95 118.797 137.543 118.432 137.245 118.056C136.516 117.067 135.706 116.142 134.821 115.291C134.646 115.137 134.369 115.552 134.462 115.711C135.114 116.815 135.577 118.005 136.302 119.063C136.611 119.546 136.944 120.012 137.301 120.461L136.157 121.851C135.824 122.265 135.507 122.69 135.191 123.115C134.238 124.232 133.35 125.405 132.532 126.625C132.465 126.721 132.415 126.827 132.385 126.94C132.082 127.012 131.752 127.09 131.451 127.05C130.721 127.084 130.049 127.006 129.284 127.006C129.086 127.052 128.815 127.494 129.078 127.544C130.018 127.841 130.994 128.009 131.979 128.043L131.878 128.207L131.589 128.275C131.086 128.395 130.57 128.447 130.053 128.43C129.948 128.455 129.801 128.714 129.942 128.722C130.411 128.765 130.896 128.873 131.369 128.873C130.112 129.373 128.939 130.062 127.889 130.915C127.723 131.038 127.719 131.431 128.01 131.25ZM132.633 128.572C132.738 128.547 132.839 128.384 132.78 128.314C133.199 128.788 141.767 120.812 142.326 120.176C144.332 118.141 146.133 115.91 147.701 113.518C147.802 113.834 147.879 114.157 147.931 114.484L147.949 114.563C145.695 119.009 142.373 122.819 138.284 125.651C136.831 126.681 135.352 127.661 133.887 128.638C132.686 129.44 132.436 129.206 132.633 128.572Z" fill="#311D1D"/>
<path opacity="0.7" d="M98.5378 24.6618C100.269 28.3184 106.375 31.0059 110.015 29.0512C111.958 28.7993 113.753 28.0376 113.51 26.1942C112.926 22.2095 105.903 20.5225 102.669 20.3818C99.4358 20.2411 96.9544 21.3335 98.5378 24.6618Z" fill="#311D1D"/>
<path opacity="0.7" d="M41.94 108.497C47.0068 104.875 52.0428 98.3117 51.1021 91.7137C51.363 91.9794 51.6523 92.2154 51.9648 92.4174C52.3581 94.1403 52.5388 95.9049 52.5029 97.6712C52.5532 97.8829 52.772 97.6912 52.7927 97.6024C52.9852 96.0224 52.9703 94.4234 52.7484 92.8464C54.1881 93.3352 55.7486 93.324 57.1791 92.8146C58.3598 92.6267 59.5072 92.2694 60.5862 91.7539C61.105 92.7507 61.5049 93.8052 61.7775 94.8956C62.1766 96.5761 62.5946 99.8596 61.7003 101.484C61.5763 101.723 61.7726 101.788 61.9782 101.599C63.2576 99.8978 63.006 97.0221 62.8533 95.0316C62.7167 93.6724 62.3996 92.3374 61.9106 91.062C63.5836 90.0264 65.1318 88.8004 66.5246 87.4082C68.4752 85.5246 70.2708 83.4854 71.8939 81.3107C72.0407 81.4016 72.1975 81.4762 72.3475 81.5804C72.8268 81.8999 73.2999 82.1929 73.7692 82.5287C74.2215 82.8673 74.7096 83.1546 75.2247 83.3852C75.704 83.5468 76.1725 83.739 76.6274 83.9607C76.8069 84.0718 77.077 83.6862 76.9076 83.5587C76.5706 83.3366 76.2208 83.1349 75.8599 82.9548C75.2822 82.6291 74.7296 82.2604 74.2067 81.8517C73.7216 81.4497 73.2165 81.0804 72.7215 80.6948L72.4479 80.4802C72.6046 80.2613 72.755 80.0159 72.9086 79.7837L73.3754 80.0503C73.7728 80.3323 74.1944 80.5784 74.6352 80.7855C74.7889 80.8468 74.9995 80.5033 74.8558 80.4256C74.4224 80.1453 74.0158 79.8254 73.641 79.47L73.2859 79.2049C73.9299 78.2888 74.5266 77.34 75.0734 76.3621C76.7019 76.3948 78.3217 76.1238 79.8506 75.5632C82.8411 74.7082 85.5947 73.1744 87.8988 71.0799C88.0173 71.0518 87.9846 70.738 87.8454 70.855C85.2482 72.7664 82.2683 74.0892 79.1107 74.7324C78.0211 74.9518 76.9076 75.0283 75.7978 74.96L75.9018 74.7536C77.341 71.7786 78.0367 68.495 77.9289 65.1864C79.5122 64.4053 80.9035 63.2826 82.0037 61.8983C82.8293 60.7447 83.5234 59.5014 84.073 58.1919C84.5342 57.1459 84.428 55.4098 85.0322 54.4976C85.1112 54.4788 85.0647 54.2243 84.9223 54.3279C83.8865 55.0632 83.5377 57.5782 82.9944 58.6298C81.7694 60.8743 79.9372 62.7243 77.7088 63.9666C77.6317 63.5195 77.5267 63.0775 77.3946 62.6434C77.1888 61.8608 76.8117 61.1337 76.291 60.5152C76.7018 60.1837 77.0441 59.7748 77.299 59.3114C77.7608 58.5028 78.0264 57.629 78.4719 56.8103C78.6161 56.5384 78.3049 56.4585 78.1614 56.6743C77.8073 57.2337 77.5184 57.8335 77.1869 58.4294C77.0073 58.7625 76.7984 59.0788 76.5626 59.3744C76.3327 59.626 76.0722 59.8476 75.7871 60.0338C75.2514 59.5667 74.6322 59.2061 73.9626 58.9714C74.2934 58.6515 74.5247 58.2422 74.6288 57.7928C74.6711 57.6061 74.7302 57.4236 74.8054 57.2477C74.8524 57.1526 74.9558 57.0023 74.8485 56.9019C74.8256 56.8973 74.802 56.8977 74.7793 56.9031C74.7565 56.9085 74.7352 56.9188 74.7168 56.9332C74.4534 56.9958 74.3539 57.3968 74.2593 57.6429C74.0488 58.072 73.7958 58.4786 73.5041 58.8567C71.589 58.3751 69.5867 58.3707 67.6716 58.8439C63.9471 59.6828 60.3596 61.043 57.0139 62.8845C56.8002 62.4396 56.5112 62.0353 56.1597 61.6895C55.7128 61.0768 55.1888 60.5247 54.6009 60.0468C54.4215 59.9357 54.1319 60.298 54.2649 60.4481C54.6808 61.0035 55.0138 61.6166 55.2536 62.2681C55.4238 62.6331 55.6798 62.9497 55.87 63.2819L56.0119 63.5278C51.7336 66.1932 48.3045 69.915 47.4162 74.9625C46.9622 77.6588 46.9949 80.4161 47.5129 83.1028C47.3392 83.2606 47.1556 83.407 46.963 83.5409C46.672 83.7218 46.3453 83.8693 46.0481 84.0237C45.7509 84.1782 45.7203 84.5768 46.027 84.4621C46.5997 84.291 47.1382 84.0213 47.6185 83.6648C47.7793 84.5578 47.9891 85.4412 48.2469 86.3112C47.8266 86.8845 47.2994 87.3705 46.6946 87.7422C46.3009 88.0174 45.9328 88.3424 45.5159 88.6371C45.321 88.7971 45.1129 88.94 44.8939 89.0644C45.0783 89.0206 43.4956 89.9137 44.2279 89.3064C44.2279 89.3064 44.1996 89.1874 44.209 89.2271C44.0093 89.3511 43.8248 89.4981 43.6592 89.6652C43.6592 89.6652 43.5721 89.8256 43.7 89.8372C44.9107 90.2486 46.4957 88.8378 47.4155 88.2C47.8321 87.9166 48.2215 87.5948 48.5785 87.2389C48.843 88.0008 49.1469 88.7533 49.4772 89.4996C49.5211 89.6849 49.6542 89.835 49.7345 89.9976C49.521 93.3752 49.6354 96.4931 48.2902 99.734C46.9451 102.975 44.1947 105.571 41.6959 108.289C41.7091 108.286 41.6654 108.688 41.94 108.497ZM48.9268 75.5822C49.6032 66.7131 59.3492 63.1686 66.5836 60.7657C70.4561 59.4966 74.7758 59.7009 76.3007 63.8957C76.2326 63.8575 76.1601 63.8278 76.0849 63.8071C74.0583 62.3035 69.5866 63.0998 67.6518 63.4475C64.1836 64.0754 61.2997 66.871 58.8603 69.2534C56.4209 71.6359 53.0717 74.6398 51.9573 77.798C51.3406 79.8711 51.1015 82.0398 51.2516 84.1998C51.2662 85.9017 51.7851 87.7354 51.9176 89.4652C51.5881 88.9564 51.3144 88.4483 51.089 88.0265C49.2143 84.1638 48.4647 79.8496 48.9268 75.5822Z" fill="#311D1D"/>
<path opacity="0.7" d="M31.6736 129.652C32.0475 131.226 34.0134 132.884 34.9227 133.842C37.5952 136.766 41.0478 138.858 44.8681 139.867C46.3485 140.243 49.2025 140.543 50.7707 139.472C52.0703 139.021 53.336 138.478 54.5583 137.846C56.545 137.251 58.587 136.859 60.6531 136.678C60.7321 136.659 60.9051 136.45 60.7809 136.396C58.1667 135.172 54.6669 136.604 52.0006 138.09C52.0819 137.776 52.097 137.449 52.045 137.129C51.993 136.81 51.8751 136.504 51.6987 136.232C52.9018 135.392 54.156 134.627 55.454 133.943C55.5462 133.921 55.6678 133.613 55.4966 133.653C54.02 134.101 52.6038 134.728 51.2794 135.521C50.5311 134.581 49.6922 133.718 48.775 132.943C48.1063 132.347 47.399 131.796 46.6579 131.293L46.9181 130.924C46.96 130.869 47.0091 130.819 47.0642 130.777L47.1432 130.759C47.1432 130.759 47.2529 130.635 47.2108 130.575C47.1688 130.515 46.7261 130.76 46.3901 131.161L45.9986 130.918C46.1988 130.669 46.4247 130.442 46.6725 130.241C46.8249 130.121 46.8523 129.709 46.5908 129.897C46.267 130.151 45.9662 130.433 45.6918 130.74C45.3787 130.535 45.0556 130.346 44.7193 130.16C45.2403 129.659 45.7355 129.108 46.227 128.6C46.677 128.095 47.094 127.562 47.4757 127.003C47.8292 126.5 48.1437 125.656 48.6077 125.267C48.6077 125.267 48.7186 125.031 48.5605 125.068C48.4025 125.106 48.2971 125.131 48.1561 125.416C47.6491 126.151 47.1094 126.867 46.527 127.578C45.8227 128.4 45.0416 129.152 44.1942 129.823C43.4953 129.458 42.7763 129.126 42.0505 128.823L42.2511 128.496C42.8714 127.298 43.4092 126.059 43.8607 124.787C43.9452 124.557 43.6956 124.56 43.6148 124.747C43.1304 125.813 42.6461 126.878 42.057 127.913C41.9097 128.171 41.7461 128.42 41.5926 128.652C40.7488 128.321 39.9013 128.033 39.0632 127.785C39.3751 126.872 39.4587 125.818 39.6947 124.937C39.773 124.681 39.4463 124.828 39.405 125.006C39.1883 125.617 39.0336 126.254 38.8596 126.869C38.7825 127.14 38.6875 127.405 38.5752 127.663C38.0972 127.525 37.6223 127.4 37.1011 127.314C36.3192 127.134 35.5215 127.033 34.72 127.013C35.4697 125.319 35.7288 123.445 35.4676 121.608C35.4079 121.356 35.112 121.692 35.0977 121.807C35.0153 122.794 34.8421 123.771 34.5803 124.726C34.3067 125.452 34.1221 126.21 34.0307 126.981C33.6226 127.008 33.2219 127.103 32.8454 127.263C32.9247 124.943 32.5868 122.627 31.848 120.426C31.782 120.149 31.4398 120.523 31.4543 120.702C31.7099 123.586 31.7425 126.485 31.5518 129.373C31.5454 129.426 31.5534 129.48 31.5748 129.529C31.5963 129.578 31.6304 129.62 31.6736 129.652ZM33.8771 128.443C33.8865 128.551 33.8843 128.659 33.8703 128.766C33.8641 128.791 33.8627 128.816 33.8663 128.841C33.8699 128.866 33.8784 128.89 33.8913 128.912C33.9042 128.933 33.9213 128.952 33.9415 128.967C33.9617 128.982 33.9847 128.993 34.009 128.999L34.0881 128.98C34.3554 130.692 41.0529 134.875 41.6966 135.183C42.7324 135.678 48.9869 138.288 50.1587 137.129C50.3535 137.95 50.1161 138.649 48.5782 138.735C46.3241 138.82 44.0838 138.332 42.0645 137.318C38.7366 135.6 35.8319 133.157 33.563 130.167C32.7245 129.039 33.0479 128.584 33.8771 128.443Z" fill="#311D1D"/>
<path opacity="0.7" d="M73.911 130.874C77.3841 131.321 80.7901 131.896 84.255 132.191C84.298 132.58 84.4438 132.95 84.6772 133.263C84.9106 133.577 85.2232 133.822 85.5824 133.973L85.067 134.263C82.7625 135.397 80.3161 136.286 78.1209 137.646C77.9629 137.683 77.8953 138.161 78.2089 138.016C80.1641 136.993 82.3094 136.302 84.3513 135.467C85.1132 135.161 85.8657 134.814 86.6213 134.481C87.4908 134.862 88.391 135.137 88.8979 135.338C88.6484 135.635 88.4316 135.952 88.2654 136.131C87.515 136.828 86.8357 137.598 86.2375 138.43C86.1171 138.626 86.316 138.761 86.4395 138.578C87.4277 137.497 88.4759 136.474 89.5792 135.512C89.8172 135.563 90.0581 135.599 90.3005 135.62C90.2752 135.69 90.2448 135.758 90.2097 135.823C90.0079 136.263 89.7635 136.698 89.5749 137.134C89.3863 137.571 89.7852 137.434 89.8992 137.211C90.1348 136.68 90.4457 136.173 90.6913 135.625C90.9999 135.636 91.3085 135.646 91.6108 135.63C92.4522 135.772 93.305 135.831 94.1574 135.809C94.3647 136.682 94.7196 137.59 94.957 138.414C95.3039 140.203 95.8355 141.95 96.5432 143.629C96.584 143.801 96.8856 143.548 96.8121 143.355C96.2809 141.797 95.9301 140.182 95.7668 138.543C95.6221 137.641 95.3395 136.744 95.2042 135.881C95.8189 135.833 96.4272 135.759 97.0161 135.661C97.4043 136.293 97.8486 136.89 98.3435 137.442C98.486 137.632 98.7888 137.267 98.6921 137.094C98.5001 136.764 98.2897 136.445 98.0619 136.139C97.9326 135.946 97.8134 135.737 97.6973 135.541C98.83 135.327 99.9337 134.98 100.986 134.508C101.251 134.627 101.515 134.746 101.79 134.849C102.82 135.261 104.361 135.482 105.077 136.388C105.233 136.575 105.523 136.213 105.429 136.053C104.67 135.175 103.692 134.515 102.596 134.14C102.422 134.058 102.255 133.962 102.096 133.853C102.361 133.655 102.601 133.424 102.81 133.167C103.385 133.174 103.959 133.15 104.532 133.093C105.76 133.053 106.938 132.857 108.176 132.913C108.281 132.888 108.458 132.636 108.303 132.631C107.372 132.532 106.435 132.502 105.5 132.542C104.741 132.568 103.934 132.452 103.162 132.482C103.32 131.564 102.27 130.835 101.018 130.307L101.375 130.055C101.876 129.77 102.31 129.381 102.649 128.914C102.739 128.71 102.579 128.623 102.417 128.759C101.775 129.271 101.075 129.704 100.331 130.051L99.7876 129.873C100.655 129.247 101.489 128.602 102.353 128.019C104.147 126.58 106.047 125.278 108.037 124.126C108.195 124.088 108.304 123.671 108.06 123.757C106.528 124.501 105.066 125.381 103.69 126.388C101.878 127.308 100.257 128.335 98.649 129.472C98.3969 129.406 98.1641 129.364 97.9609 129.328C96.6692 129.095 95.358 128.989 94.0463 129.014C94.0851 128.545 94.0989 128.076 94.0877 127.606C94.1615 126.34 94.162 125.07 94.089 123.803C94.0167 123.499 93.6149 123.916 93.61 124.071C93.5731 125.739 93.4291 127.403 93.1789 129.052C91.9742 129.131 90.777 129.298 89.5971 129.553C89.3536 129.289 89.0505 129.068 88.797 128.82C88.5435 128.573 88.3744 129.033 88.3932 129.112L88.8175 129.668L88.1195 129.834L87.5774 129.543C86.977 129.183 86.3829 128.848 85.775 128.573C85.5529 128.458 85.2163 128.916 85.4315 129.06C85.9203 129.42 86.399 129.795 86.8809 130.184C86.2281 130.329 85.601 130.572 85.0209 130.905C83.7332 130.931 82.4387 130.987 81.1717 130.925C78.7819 130.821 76.3814 130.497 73.9942 130.463C73.9089 130.455 73.6977 130.854 73.911 130.874Z" fill="#311D1D"/>
<path opacity="0.7" d="M27.4644 50.8215C29.4163 49.4913 31.2973 48.0382 33.1231 46.5283C35.1166 44.9656 36.9832 43.2463 38.7054 41.3866C40.1697 40.3314 41.2748 38.849 41.8709 37.1403C42.6411 34.5252 38.8263 35.6268 37.5702 36.0789C33.5393 37.7272 29.8508 40.1152 26.6931 43.121C24.3025 45.2402 20.7478 48.7263 19.8342 51.8507C18.3965 56.9867 26.2474 51.6137 27.4644 50.8215Z" fill="#190F0F"/>
<g opacity="0.7">
<path d="M129.391 80.5304C132.046 79.0127 134.896 77.8657 137.861 77.1211C139.829 76.7376 141.694 76.5045 143.614 75.9786C144.154 78.013 145.08 79.9243 146.342 81.607C145.649 81.9607 144.929 82.258 144.188 82.4959C143.304 82.8176 142.448 83.3705 141.6 83.7816C141.415 83.8254 141.275 84.3479 141.578 84.22C142.528 83.8266 143.476 83.364 144.452 83.0204C145.254 82.8435 146.007 82.4881 146.653 81.9804C146.719 82.0654 146.79 82.1467 146.864 82.2238L146.181 82.5118C145.828 82.6774 145.505 82.9006 145.225 83.1722C145.03 83.3445 145.148 83.6659 145.39 83.4547C145.788 83.1261 146.257 82.8951 146.76 82.7798C146.918 82.7646 147.073 82.7277 147.221 82.6704C147.435 82.8766 147.666 83.0649 147.911 83.2333C147.714 83.2598 147.52 83.3059 147.331 83.3709C146.468 83.8606 145.676 84.4674 144.977 85.1741C143.712 86.0789 142.804 87.4028 142.415 88.9137C142.39 89.1014 142.638 88.9727 142.678 88.8512C143.881 86.8755 145.801 85.4473 148.035 84.8674C148.496 84.844 148.946 84.7166 149.35 84.4946C149.755 84.2726 150.105 83.9617 150.374 83.5851C150.902 83.3751 151.333 82.9735 151.581 82.4596C152.354 80.9447 152.807 79.2859 152.914 77.5861C154.614 70.9781 154.15 63.9918 151.591 57.6599C150.978 56.3098 149.544 53.4353 147.606 53.8258C146.783 53.5843 145.939 53.4243 145.085 53.348C143.885 53.1577 142.686 52.8553 141.501 52.5497C139.772 52.0657 138.92 50.94 137.545 49.9527C137.395 49.8485 137.178 50.1656 137.265 50.2986C137.786 51.2437 138.428 52.1158 139.175 52.8923C139.832 53.5472 141.373 53.7683 142.202 53.9208C143.405 54.1787 144.623 54.3564 145.848 54.4527L146.269 54.4648C145.163 55.5006 144.388 56.8421 144.04 58.3208L142.626 58.2234C141.626 58.0695 140.64 57.8362 139.677 57.5257C139.484 57.4737 139.247 57.8796 139.472 57.9518C140.374 58.3658 141.31 58.7001 142.27 58.9509L143.725 59.2204C143.55 59.8909 143.412 60.5387 143.281 61.101C143.233 61.3081 143.188 61.5285 143.153 61.7325L141.379 61.7623C139.609 61.8054 137.715 61.682 135.969 61.887C135.758 61.937 135.497 62.4184 135.832 62.4227C136.758 62.3984 137.691 62.6941 138.626 62.7656C139.561 62.837 140.274 62.7935 141.099 62.8074C141.634 62.8341 142.296 62.9284 142.93 62.9597C142.61 64.9968 142.476 67.0592 142.528 69.1215C142.445 69.2392 142.311 69.4947 142.495 69.5069C142.549 70.6124 142.645 71.7217 142.807 72.8154C142.333 72.928 141.872 73.0375 141.398 73.1501C140.468 73.2732 139.525 73.2314 138.61 73.4207C138.439 73.4614 138.234 73.8874 138.491 73.8545C139.398 73.7508 140.307 73.8846 141.266 73.8244C141.847 73.7945 142.423 73.7091 142.987 73.5696C143.081 73.9666 143.175 74.3636 143.269 74.7605C142.94 74.8387 142.571 74.9263 142.097 75.0389C140.528 75.2857 138.894 75.4361 137.36 75.8285C134.66 76.4696 131.591 78.7219 129.364 80.2992C129.246 80.2713 129.157 80.656 129.391 80.5304ZM146.994 80.5436C147.747 76.4508 149.075 72.6689 149.032 68.4438C148.749 64.4959 147.623 60.6538 145.73 57.1785C146.596 55.7848 147.789 55.1242 149.233 57.0457C150.192 58.4983 150.849 60.13 151.165 61.8427C151.112 61.8661 151.068 61.906 151.039 61.9565C150.624 62.0466 150.224 62.1934 149.849 62.3929C149.765 62.4342 149.692 62.4958 149.637 62.5722C149.583 62.6486 149.548 62.7374 149.535 62.8308C149.527 62.8756 149.536 62.9221 149.56 62.9606C149.585 62.999 149.623 63.0264 149.668 63.0369C150.232 63.0706 150.853 62.7555 151.412 63.0001C151.55 63.5823 151.698 64.2042 151.846 64.8262C151.455 65.0169 151.085 65.2499 150.745 65.5209C150.546 65.68 150.485 66.1838 150.851 65.9708C151.195 65.7428 151.571 65.5686 151.967 65.4543C152.366 67.5382 152.607 69.6492 152.688 71.7691C152.662 71.6633 152.45 71.8254 152.446 71.9243C152.344 74.5301 152.059 77.1251 151.591 79.6896C150.944 83.4077 148.547 82.3973 146.903 80.803L146.994 80.5436Z" fill="#311D1D"/>
<path d="M150.813 68.9714C151.023 68.9213 151.234 68.8713 151.458 68.8181C151.682 68.765 151.845 68.866 152.081 68.9218C152.317 68.9776 152.385 68.7378 152.396 68.6093C152.457 67.8681 151.219 68.3995 150.897 68.5042C150.574 68.6088 150.536 69.0371 150.813 68.9714Z" fill="#311D1D"/>
</g>
<path opacity="0.7" d="M86.6753 29.8971C87.2469 31.7183 90.493 32.2055 91.2698 30.2038C91.3434 30.0399 91.3839 29.8629 91.3888 29.683C91.3937 29.5032 91.3631 29.3241 91.2986 29.156C91.2341 28.988 91.1371 28.8345 91.0131 28.7043C90.8892 28.5741 90.7408 28.4698 90.5765 28.3975C90.0879 27.8908 89.4523 27.5524 88.7609 27.4309C88.5041 27.3977 88.2434 27.4172 87.9946 27.4884C87.7457 27.5595 87.514 27.6808 87.3135 27.8447C87.113 28.0087 86.9479 28.212 86.8282 28.4422C86.7085 28.6725 86.6367 28.9248 86.6173 29.184C86.594 29.3636 86.6042 29.546 86.6476 29.7219C86.578 29.7804 86.5737 29.8793 86.6753 29.8971Z" fill="#311D1D"/>
<path opacity="0.7" d="M119.166 28.5693C120.429 29.3738 121.698 30.4982 123.221 29.6473C123.428 29.5381 123.61 29.3869 123.755 29.2033C123.901 29.0197 124.007 28.8078 124.067 28.5808C124.127 28.3538 124.139 28.1167 124.103 27.8845C124.067 27.6523 123.983 27.43 123.857 27.2316C123.839 27.0136 123.746 26.8086 123.594 26.6511C122.432 25.4455 119.232 24.2763 118.029 25.8899C117.17 27.0166 118.273 27.9707 119.166 28.5693Z" fill="#311D1D"/>
<path opacity="0.7" d="M31.2948 76.4425C31.8931 76.1889 32.3892 75.7414 32.7042 75.1713C33.0936 74.6436 33.2843 73.9942 33.2428 73.3381C33.2303 73.2516 33.1914 73.1711 33.1315 73.1077C33.0716 73.0444 32.9936 73.0012 32.9083 72.9842C32.6324 72.9758 32.3583 73.0289 32.1055 73.1397C31.8528 73.2505 31.6278 73.4162 31.4466 73.6248C31.1112 73.9701 30.5339 74.82 30.7744 75.364C30.7171 75.5708 30.6883 75.7846 30.6887 75.9994C30.6845 76.3918 30.9455 76.5534 31.2948 76.4425Z" fill="#311D1D"/>
<path opacity="0.7" d="M23.1164 98.8908C23.3724 99.1124 23.6742 99.2741 23.9998 99.3642C24.3255 99.4543 24.6669 99.4705 24.9992 99.4116C25.3316 99.3528 25.6466 99.2203 25.9214 99.0239C26.1961 98.8275 26.4238 98.572 26.5878 98.2761C27.1911 97.3191 27.5761 96.2396 27.7153 95.1148C28.1978 93.7869 28.4019 92.3727 28.3149 90.9607C28.2108 90.1439 27.9433 89.3563 27.5285 88.6453C27.5056 88.5204 27.4762 88.3967 27.4405 88.2748C27.307 87.9287 27.0906 87.6208 26.8105 87.3783C26.5305 87.1358 26.1953 86.9662 25.8348 86.8846C25.4743 86.803 25.0995 86.8119 24.7435 86.9104C24.3876 87.0089 24.0615 87.194 23.7941 87.4494C22.7645 87.9465 21.9411 88.7898 21.4664 89.8333C20.8498 91.3415 20.6776 92.9966 20.9701 94.6021C21.2625 96.2076 22.0075 97.696 23.1164 98.8908Z" fill="#190F0F"/>
<path opacity="0.7" d="M28.4126 106.663C28.5067 106.735 28.6211 106.775 28.7392 106.777C28.8573 106.779 28.973 106.743 29.0693 106.675C29.2631 106.588 29.4223 106.439 29.5214 106.251C29.6205 106.063 29.6537 105.846 29.6157 105.636C29.5843 105.504 29.5529 105.372 29.6137 105.218C29.6744 105.063 29.3438 104.96 29.1789 105.027C29.0657 105.081 28.9654 105.158 28.885 105.255C28.8046 105.351 28.7459 105.464 28.7132 105.585C28.7161 105.617 28.7235 105.648 28.7351 105.678L28.5903 105.712C28.354 106.006 28.1459 106.419 28.4126 106.663Z" fill="#311D1D"/>
<g style="mix-blend-mode:screen" opacity="0.6">
<path d="M98.0046 147.615C108.014 147.642 116.736 140.958 123.906 134.475C124.055 134.342 124.046 134.008 123.828 134.144C119.86 136.596 116.219 139.599 112.206 142.034C107.928 144.729 103.131 146.487 98.1273 147.195C97.9555 147.291 97.7944 147.609 98.0046 147.615Z" fill="#E1CCCC"/>
</g>
<defs>
<radialGradient id="paint0_radial_229_384" cx="0" cy="0" r="1" gradientUnits="userSpaceOnUse" gradientTransform="translate(141.755 209.37) rotate(166.641) scale(182.123 182.979)">
<stop stop-color="#F3ECEC"/>
<stop offset="0.22" stop-color="#C8A3A3"/>
<stop offset="0.61" stop-color="#B68585"/>
<stop offset="1" stop-color="#4A2C2C"/>
</radialGradient>
</defs>
</svg>
