<svg width="1440" height="1040" viewBox="0 0 1440 1040" fill="none" xmlns="http://www.w3.org/2000/svg">
<path d="M708.634 333.773C776.215 309.438 840.308 295.6 889.283 292.88C913.777 291.52 934.431 292.944 949.831 297.19C965.263 301.445 975.187 308.462 978.658 318.102C982.129 327.743 978.957 339.475 969.78 352.592C960.622 365.681 945.617 379.945 925.878 394.512C886.411 423.638 828.21 453.836 760.628 478.17C693.047 502.505 628.955 516.343 579.98 519.063C555.485 520.423 534.831 518.999 519.431 514.753C503.999 510.497 494.075 503.481 490.604 493.84C487.133 484.2 490.305 472.468 499.482 459.351C508.64 446.262 523.645 431.998 543.384 417.431C582.851 388.305 641.053 358.107 708.634 333.773Z" stroke="url(#paint0_linear_59_36)" stroke-width="2"/>
<path d="M696.329 312.172C788.804 278.873 876.846 260.844 944.415 258.592C978.205 257.466 1006.82 260.287 1028.29 267.079C1049.78 273.876 1063.93 284.584 1069.15 299.099C1074.38 313.615 1070.3 330.885 1058.08 349.821C1045.87 368.741 1025.62 389.155 998.872 409.829C945.377 451.169 866.053 493.405 773.577 526.703C681.101 560.002 593.06 578.031 525.49 580.283C491.7 581.409 463.088 578.588 441.617 571.796C420.129 564.999 405.98 554.291 400.753 539.776C395.527 525.26 399.601 507.99 411.824 489.054C424.036 470.134 444.281 449.72 471.033 429.046C524.528 387.706 603.853 345.47 696.329 312.172Z" stroke="url(#paint1_linear_59_36)" stroke-width="2"/>
<path d="M692.36 301.151C813.059 257.69 927.822 233.713 1015.78 230.06C1059.77 228.234 1096.99 231.492 1124.89 239.901C1152.8 248.316 1171.17 261.82 1177.84 280.335C1184.51 298.851 1178.96 320.966 1162.82 345.247C1146.69 369.508 1120.09 395.749 1085.03 422.383C1014.94 475.643 911.231 530.332 790.533 573.793C669.835 617.254 555.071 641.231 467.111 644.883C423.125 646.71 385.901 643.451 358.006 635.043C330.089 626.628 311.719 613.123 305.052 594.608C298.385 576.093 303.929 553.977 320.074 529.697C336.205 505.436 362.807 479.195 397.86 452.561C467.957 399.301 571.662 344.611 692.36 301.151Z" stroke="url(#paint2_linear_59_36)" stroke-width="2"/>
<path d="M685.506 282.114C838.57 226.999 984.532 197.741 1096.77 194.97C1152.89 193.584 1200.52 198.823 1236.37 210.724C1272.24 222.629 1296.15 241.139 1305.17 266.179C1314.18 291.22 1307.56 320.723 1287.52 352.761C1267.48 384.786 1234.12 419.187 1190 453.898C1101.76 523.312 970.655 593.822 817.59 648.937C664.526 704.052 518.564 733.31 406.329 736.081C350.207 737.467 302.575 732.228 266.722 720.327C230.856 708.422 206.946 689.912 197.93 664.872C188.913 639.831 195.534 610.328 215.578 578.29C235.614 546.265 268.972 511.864 313.095 477.153C401.333 407.739 532.441 337.23 685.506 282.114Z" stroke="url(#paint3_linear_59_36)" stroke-width="2"/>
<path d="M677.208 259.07C875.085 187.819 1064.72 152.586 1211.35 153.196C1284.66 153.5 1347.17 162.766 1394.55 180.931C1441.95 199.097 1474.09 226.109 1486.96 261.838C1499.82 297.568 1492.28 338.873 1467.34 383.081C1442.41 427.285 1400.17 474.27 1343.87 521.244C1231.3 615.186 1062.73 708.936 864.851 780.187C666.974 851.439 477.335 886.671 330.712 886.062C257.396 885.757 194.892 876.491 147.505 858.327C100.114 840.161 67.9667 813.149 55.1013 777.419C42.2359 741.69 49.7836 700.384 74.7151 656.177C99.6447 611.973 141.894 564.987 198.186 518.013C310.763 424.072 479.331 330.322 677.208 259.07Z" stroke="url(#paint4_linear_59_36)" stroke-width="2"/>
<defs>
<linearGradient id="paint0_linear_59_36" x1="489.663" y1="494.179" x2="979.599" y2="317.764" gradientUnits="userSpaceOnUse">
<stop stop-color="white"/>
<stop offset="1" stop-color="white" stop-opacity="0"/>
</linearGradient>
<linearGradient id="paint1_linear_59_36" x1="399.813" y1="540.114" x2="1070.09" y2="298.761" gradientUnits="userSpaceOnUse">
<stop stop-color="white"/>
<stop offset="1" stop-color="white" stop-opacity="0"/>
</linearGradient>
<linearGradient id="paint2_linear_59_36" x1="304.111" y1="594.947" x2="1178.78" y2="279.997" gradientUnits="userSpaceOnUse">
<stop stop-color="white"/>
<stop offset="1" stop-color="white" stop-opacity="0"/>
</linearGradient>
<linearGradient id="paint3_linear_59_36" x1="196.989" y1="665.21" x2="1306.11" y2="265.841" gradientUnits="userSpaceOnUse">
<stop stop-color="white"/>
<stop offset="1" stop-color="white" stop-opacity="0"/>
</linearGradient>
<linearGradient id="paint4_linear_59_36" x1="54.1604" y1="777.758" x2="1487.9" y2="261.499" gradientUnits="userSpaceOnUse">
<stop stop-color="white"/>
<stop offset="1" stop-color="white" stop-opacity="0"/>
</linearGradient>
</defs>
</svg>
