<svg width="116" height="115" viewBox="0 0 116 115" fill="none" xmlns="http://www.w3.org/2000/svg">
<path d="M70.9365 113.631C39.9521 120.488 9.23428 100.919 2.36076 69.9372C-4.51277 38.9552 15.0507 8.22615 46.0351 1.36684C77.0605 -5.51526 107.737 14.0421 114.611 45.0514C121.484 76.0607 101.935 106.76 70.9365 113.631Z" fill="#ECB020"/>
<g style="mix-blend-mode:screen" opacity="0.7">
<path d="M67.3164 105.348C41.1118 111.182 15.1191 94.6317 9.2867 68.4041C3.45434 42.1765 20.0333 16.2109 46.2629 10.379C72.4926 4.54712 98.4603 21.1247 104.279 47.3523C110.098 73.5799 93.5461 99.5524 67.3164 105.348Z" fill="#C9E9EB"/>
</g>
<g style="mix-blend-mode:screen">
<path d="M45.2514 29.0726C45.1603 26.6487 45.092 24.1998 45.0646 21.7622C39.9029 23.6453 35.1952 26.5934 31.2477 30.415C27.3002 34.2367 24.2012 38.8462 22.1521 43.9439C27.747 36.4088 35.8743 31.1466 45.0396 29.125C45.1089 29.1027 45.1797 29.0852 45.2514 29.0726Z" fill="url(#paint0_radial_258_10)"/>
<path d="M96.7562 50.0038C92.2817 29.8428 73.0144 16.8372 52.9224 19.7395C53.1092 22.5757 53.2687 25.3846 53.4145 28.2071C59.82 28.1886 66.1321 29.7424 71.797 32.7322C77.4618 35.722 82.3062 40.0564 85.905 45.355C89.5038 50.6536 91.747 56.7544 92.4377 63.1221C93.1285 69.4897 92.2456 75.9296 89.8667 81.8765C93.247 77.3756 95.613 72.1964 96.8022 66.6946C97.9915 61.1929 97.9758 55.4989 96.7562 50.0038Z" fill="url(#paint1_radial_258_10)"/>
</g>
<defs>
<radialGradient id="paint0_radial_258_10" cx="0" cy="0" r="1" gradientUnits="userSpaceOnUse" gradientTransform="translate(71.9767 5.96797) rotate(77.3465) scale(69.9059 69.9109)">
<stop offset="0.29" stop-color="white"/>
<stop offset="0.69" stop-color="#6C6C6C"/>
<stop offset="1"/>
</radialGradient>
<radialGradient id="paint1_radial_258_10" cx="0" cy="0" r="1" gradientUnits="userSpaceOnUse" gradientTransform="translate(71.9911 5.96964) rotate(77.3465) scale(69.9036 69.9086)">
<stop offset="0.29" stop-color="white"/>
<stop offset="0.69" stop-color="#6C6C6C"/>
<stop offset="1"/>
</radialGradient>
</defs>
</svg>
