<svg width="215" height="197" viewBox="0 0 215 197" fill="none" xmlns="http://www.w3.org/2000/svg">
<path d="M39.4686 138.542C38.9314 139.818 38.4415 141.1 38.0108 142.411C37.3374 145.155 37.1747 147.998 37.5308 150.797C38.3462 155.102 40.6755 158.97 44.1006 161.705C47.6102 164.73 51.1712 167.388 53.8109 171.268C56.4507 175.147 58.7765 180.042 63.0099 182.565C69.7833 186.585 77.5864 184.844 84.1882 181.266C90.3718 177.916 95.3563 173.198 100.952 169.04C106.962 164.51 113.484 160.699 120.382 157.685C127.844 154.548 135.495 151.879 143.288 149.696C151.383 147.335 159.758 145.377 167.381 141.678C175.304 137.841 182.132 132.23 186.026 124.203C189.681 116.636 191.803 108.476 194.21 100.467C195.301 97.3947 196.179 94.252 196.84 91.0614C196.803 89.4135 196.73 87.7837 196.622 86.2012C196.501 84.4788 196.246 82.7689 195.86 81.0868C195.513 80.013 195.102 78.961 194.629 77.9366C192.726 73.7858 190.499 69.8145 188.578 65.7168C187.021 63.5584 185.335 61.466 183.565 59.4154C179.588 54.8002 175.251 50.4413 171.398 45.9839C162.161 35.3108 157.266 30.2327 142.36 31.8237C134.641 32.6169 126.863 32.5709 119.161 31.6864C112.498 30.9445 105.645 28.8975 98.8617 30.2816C92.332 31.6106 85.9393 35.6872 80.3408 39.1682C74.3015 42.9668 68.6134 47.2957 63.3446 52.1029C58.5683 56.3748 54.3302 61.2096 50.7243 66.5002C46.919 72.108 44.7346 78.3962 42.6985 84.8303C39.906 93.6255 43.6217 101.545 45.3916 110.012C47.4642 120.065 43.4337 129.254 39.4686 138.542Z" fill="url(#paint0_radial_229_332)"/>
<g style="mix-blend-mode:multiply" opacity="0.2">
<path d="M188.637 65.6869C187.08 63.5285 185.393 61.436 183.624 59.3855C179.647 54.7703 175.31 50.4113 171.457 45.9539C162.22 35.2808 157.325 30.2028 142.418 31.7938C134.7 32.587 126.921 32.5409 119.22 31.6565C112.498 30.9445 105.645 28.8975 98.8617 30.2816C92.332 31.6106 85.9393 35.6872 80.3408 39.1682C74.3015 42.9668 68.6134 47.2957 63.3445 52.1029C58.5683 56.3748 54.3302 61.2096 50.7243 66.5002C46.919 72.108 44.7346 78.3962 42.6985 84.8303C39.906 93.6255 43.6217 101.545 45.3916 110.012C47.4642 120.065 43.4337 129.254 39.4686 138.542C38.9314 139.818 38.4415 141.1 38.0108 142.411C37.3374 145.155 37.1747 147.998 37.5308 150.797C38.3462 155.102 40.6755 158.97 44.1006 161.705C47.6102 164.73 51.1712 167.388 53.8109 171.268C56.4507 175.147 58.7765 180.042 63.0099 182.565C69.7833 186.585 77.5864 184.844 84.1882 181.266C90.3718 177.916 95.3563 173.198 100.952 169.04C106.962 164.51 113.484 160.699 120.382 157.685C127.844 154.548 135.495 151.879 143.288 149.696C151.383 147.335 159.758 145.377 167.381 141.678C175.304 137.841 182.132 132.23 186.026 124.203C189.681 116.636 191.803 108.476 194.21 100.467C195.301 97.3947 196.179 94.2521 196.84 91.0614C196.803 89.4136 196.73 87.7837 196.622 86.2012C196.501 84.4788 196.246 82.7689 195.86 81.0868C195.513 80.013 195.102 78.961 194.629 77.9366C192.785 73.7559 190.499 69.8145 188.637 65.6869ZM173.895 59.6418C172.854 60.3338 169.108 61.0731 169.696 63.0457C170.073 64.2003 170.569 65.3124 171.176 66.3644C172.59 69.2591 173.783 72.2573 174.743 75.3332C174.795 75.448 174.809 75.5764 174.782 75.6998C174.756 75.8233 174.691 75.9352 174.596 76.0195C174.502 76.1037 174.383 76.1558 174.257 76.1682C174.131 76.1805 174.005 76.1525 173.896 76.0883C171.998 75.0445 170.156 73.9035 168.377 72.6698C169.465 74.226 170.983 75.4605 171.988 77.1175C172.023 77.1862 172.044 77.2613 172.049 77.3382C172.055 77.4152 172.045 77.4925 172.02 77.5657C171.995 77.6388 171.955 77.7063 171.904 77.7642C171.853 77.8221 171.79 77.8692 171.72 77.9028C168.243 79.2872 164.087 79.3061 160.891 81.3592C158.46 82.9346 163.373 88.0772 164.165 89.6654C166.931 95.1036 162.038 100.527 162.212 106.235C162.227 106.818 161.336 106.961 161.109 106.457C158.879 101.691 158.677 96.3947 159.107 91.1756C156.463 93.9949 155.934 98.2319 154.811 101.827C154.777 101.922 154.718 102.007 154.642 102.073C154.565 102.14 154.473 102.186 154.373 102.207C154.274 102.228 154.171 102.223 154.074 102.193C153.977 102.163 153.89 102.109 153.82 102.035C152.4 100.7 151.231 99.1216 150.368 97.3743C150.465 99.6779 150.369 101.986 150.082 104.276C150.076 104.377 150.043 104.475 149.987 104.559C149.932 104.644 149.855 104.713 149.764 104.759C149.674 104.805 149.573 104.827 149.471 104.822C149.37 104.817 149.272 104.786 149.187 104.731C147.927 104.015 146.797 103.094 145.844 102.006C145.408 103.452 145.073 105.008 144.53 106.332C143.987 107.655 145.195 108.339 145.778 109.34C146.718 110.927 145.611 112.715 144.779 114.17C143.49 116.301 142.528 117.586 139.884 117.81C138.649 117.898 137.415 117.642 136.32 117.07C136.445 117.287 136.559 117.51 136.66 117.738C136.7 117.818 136.721 117.906 136.721 117.995C136.721 118.084 136.7 118.172 136.661 118.252C136.621 118.332 136.563 118.402 136.492 118.457C136.421 118.511 136.339 118.548 136.251 118.566C135.796 118.619 135.346 118.71 134.906 118.837C136.377 120.622 137.753 122.482 139.03 124.41C139.099 124.547 139.111 124.706 139.063 124.852C139.015 124.998 138.911 125.119 138.774 125.189C136.543 126.06 134.261 126.792 131.941 127.38C135.26 127.492 139.559 127.784 139.934 130.795C139.886 132.074 139.752 133.35 139.533 134.613C139.676 135.782 139.686 136.965 139.561 138.138C139.229 139.03 138.687 139.83 137.981 140.472C137.275 141.113 136.426 141.577 135.504 141.823C129.139 143.933 122.588 145.431 115.941 146.299C112.124 146.927 108.289 147.52 104.521 148.418C103.2 148.736 101.284 149.488 100.105 148.481C98.1663 146.855 97.8679 144.927 97.1249 142.62C96.711 141.252 96.1935 139.185 94.1173 139.621C93.5942 139.78 93.0567 139.885 92.5128 139.936C91.6377 139.981 90.7617 139.884 89.9195 139.646C86.6498 138.669 90.319 134.222 89.6963 132.385C88.7146 129.55 83.7756 130.159 82.1581 127.707C81.7831 127.173 81.4861 126.589 81.2761 125.972C80.9587 125.027 81.0299 123.855 80.3881 124.226L77.6677 125.786C76.7253 126.265 74.7077 127.866 73.5192 127.482C72.3306 127.098 71.8573 125.643 71.1442 124.678C70.2456 124.989 69.4098 125.459 68.6769 126.065C66.4892 127.776 64.6824 129.923 63.3722 132.367C62.062 134.811 61.2773 137.5 61.0684 140.259C60.7982 143.052 60.1546 144.294 57.8701 145.632C59.8409 147.875 61.0413 150.761 63.5176 152.54C63.6243 152.61 63.7049 152.712 63.7471 152.832C63.7893 152.952 63.7907 153.082 63.751 153.203C63.3663 154.255 62.8339 155.278 62.5437 156.34C62.4349 156.618 62.3903 156.917 62.4132 157.214C62.4361 157.512 62.5258 157.8 62.6758 158.057C64.1425 158.58 66.7067 157.704 68.0994 157.556C68.4234 157.527 68.7492 157.524 69.0735 157.548C69.8124 157.357 70.5709 157.253 71.3334 157.239C71.8481 156.822 72.3296 156.365 72.7735 155.873C72.8392 155.812 72.9181 155.767 73.004 155.742C73.0898 155.717 73.1803 155.711 73.2684 155.726C73.3564 155.742 73.4397 155.777 73.5117 155.83C73.5837 155.882 73.6425 155.951 73.6835 156.03C73.8239 156.48 74.0141 156.912 74.2505 157.32C75.6349 156.505 76.9603 155.595 78.217 154.595C78.2952 154.529 78.3891 154.483 78.4897 154.464C78.5903 154.445 78.6941 154.451 78.7911 154.484C78.8881 154.516 78.9749 154.573 79.0432 154.648C79.1115 154.724 79.159 154.816 79.1809 154.916C80.2358 158.257 80.261 161.841 79.2531 165.205C78.3347 168.268 78.3578 171.899 76.6766 174.716C76.6271 174.79 76.5619 174.851 76.4856 174.897C76.4093 174.942 76.3239 174.969 76.2356 174.978C76.1473 174.986 76.0584 174.974 75.9754 174.943C75.8924 174.913 75.8174 174.864 75.7559 174.801C72.8262 170.788 69.7119 166.442 65.1606 164.14C62.8288 162.965 57.1145 160.679 56.136 164.761C55.8575 166.474 55.7471 168.21 55.8062 169.943C55.8001 170.044 55.7676 170.142 55.7119 170.227C55.6562 170.312 55.5792 170.381 55.4886 170.427C55.398 170.473 55.297 170.494 55.1957 170.49C55.0943 170.485 54.9962 170.453 54.9109 170.399C53.2845 169.063 51.8889 167.471 50.7793 165.685C49.0253 163.081 47.0246 160.75 45.0291 158.283C42.321 154.94 39.6284 151.132 40.5575 146.573C40.797 145.412 41.111 144.267 41.4978 143.145C42.0795 141.211 42.8498 139.337 43.7976 137.551L44.616 135.807C45.1674 134.426 45.8408 133.096 46.6283 131.834C48.0903 128.337 48.9741 124.63 49.2451 120.856C49.0602 116.857 48.5278 112.884 47.654 108.98C46.3265 102.928 43.8374 95.9631 44.6991 89.6395C45.148 85.0387 46.5633 80.5797 48.8529 76.5529C52.2191 70.0013 56.6843 64.0688 62.0546 59.0131C67.504 53.9558 73.3265 47.9123 80.2387 45.0613C80.3658 44.9899 80.515 44.9685 80.6567 45.0014C80.7984 45.0344 80.9223 45.1193 81.0039 45.2393C81.0854 45.3593 81.1186 45.5056 81.097 45.6493C81.0753 45.793 81.0002 45.9236 80.8868 46.0151C78.056 49.1951 74.9046 52.0071 72.5655 55.5418C69.9434 59.5463 68.3582 64.1337 67.9524 68.8915C67.7263 71.042 67.742 73.1138 67.6931 75.2628C67.6667 75.9105 67.7626 77.4696 67.1923 77.9808C66.6541 78.3199 66.2025 78.7797 65.8739 79.3234C65.5453 79.867 65.3487 80.4794 65.3 81.1113C65.2667 81.7134 65.2006 82.3133 65.1018 82.9084C64.6519 85.1433 63.1344 90.1189 67.5184 89.527C69.324 89.2874 71.6842 88.9723 72.6854 90.9413C73.3089 92.3317 73.7714 93.789 74.0638 95.2851C74.5809 96.8411 75.3281 98.3106 76.2808 99.645C77.5304 101.694 78.6503 103.809 77.3623 106.116C75.9515 108.678 73.0861 110.798 72.3145 113.684C74.8522 113.455 77.3114 112.839 79.7949 112.387C82.9138 111.436 85.9722 110.191 89.1149 109.286C89.1897 109.268 89.2674 109.266 89.343 109.279C89.4187 109.292 89.4908 109.32 89.5551 109.362C89.6193 109.404 89.6743 109.458 89.7167 109.522C89.7592 109.586 89.7881 109.658 89.8019 109.733C90.0533 111.714 93.404 109.848 94.7259 110.961C95.5805 111.916 96.0636 113.146 96.0884 114.428C98.6645 112.322 101.717 109.722 104.167 113.58C104.982 114.862 105.532 116.264 106.294 117.587C106.467 117.927 107.832 120.611 108.342 118.7C108.488 118.166 108.537 117.612 108.488 117.062C108.409 115.303 107.928 113.511 108.676 111.833C109.424 110.155 111.529 109.748 112.997 109.282C114.118 108.919 115.524 107.835 116.753 108.213C121.005 109.488 121.714 116.015 123.88 119.546C125.631 115.204 124.498 110.381 124.972 105.803C124.968 105.78 124.965 105.757 124.966 105.733C124.752 103.16 125.464 100.591 126.975 98.4867C128.873 95.4267 130.481 90.8036 133.299 88.5596C135.904 86.4824 139.092 86.4249 142.264 86.7148C141.573 85.3553 140.499 84.2345 139.708 82.9112C139.668 82.8315 139.647 82.7436 139.647 82.6545C139.647 82.5653 139.668 82.4772 139.707 82.3971C139.747 82.317 139.804 82.247 139.875 82.1926C139.947 82.1382 140.029 82.1009 140.117 82.0835C142.064 81.7426 150.495 80.5088 149.53 77.4446C149.015 75.8187 147.926 72.9204 146.064 72.407C144.698 72.0246 143.294 72.2371 141.946 71.8899C137.265 70.7008 138.882 61.9571 138.305 58.401C138.283 58.276 138.301 58.147 138.358 58.0331C138.415 57.9192 138.507 57.8264 138.621 57.7684C140.972 56.7352 142.648 55.3666 142.948 52.721C143.14 50.9122 143.215 49.1044 143.537 47.318C143.769 46.4604 143.95 45.59 144.079 44.7115C144.173 43.2626 141.591 44.2213 140.937 44.3624C139.335 44.7355 137.7 44.949 136.057 44.9999C128.877 44.963 135.886 37.5198 138.967 36.1447C140.034 35.7886 141.181 35.76 142.261 36.0628C144.263 36.5418 146.297 36.878 148.348 37.0687C151.708 37.2923 155.304 37.2783 158.422 38.7166C161.54 40.1548 162.906 44.2397 164.69 47.02C167.414 51.2696 171.45 54.4833 174.122 58.8334C174.196 58.9708 174.214 59.1317 174.172 59.2823C174.129 59.433 174.03 59.5618 173.895 59.6418Z" fill="#576065"/>
</g>
<path d="M138.327 49.4356C135.727 48.9923 133.08 48.881 130.449 49.1046C128.985 49.1411 127.48 49.3015 125.987 49.397C124.494 49.4926 122.518 46.2783 121.552 45.5157C120.569 44.9662 119.496 44.5931 118.383 44.4134C115.681 43.619 116.179 39.0292 116.511 37.0013C116.945 35.6239 117.018 34.1599 116.722 32.7495C116.573 32.4565 116.237 32.5831 116.078 32.767C114.057 34.9745 112.053 41.8203 108.764 41.7079C106.544 41.5612 104.314 41.7035 102.129 42.1313C99.9234 42.6039 97.8309 43.3581 96.204 41.4123C95.0343 40.0158 93.9857 41.7732 94.0208 42.9502C94.0097 43.1033 94.0281 44.51 94.0535 44.8806C93.3809 44.3007 92.7722 43.6509 92.2377 42.9423C91.4658 42.0367 90.9861 40.4811 89.6339 40.4459C89.5399 40.4622 89.4509 40.5004 89.3742 40.5573C89.2976 40.6142 89.2354 40.6883 89.1927 40.7735C88.7703 41.676 88.6608 42.6918 88.8815 43.6606C89.0046 44.566 89.1744 45.4644 89.3902 46.352C89.4484 46.748 89.3509 47.1516 89.118 47.4787C87.0237 48.7706 85.0003 50.1737 83.0565 51.682C81.3602 52.5445 79.9615 52.6804 78.9895 54.3843C78.322 55.5792 76.6265 54.1107 75.4119 54.4628C75.2116 54.5647 75.0357 54.8311 74.9954 55.0434C74.8035 56.3133 74.9045 57.6089 75.2908 58.8316L74.6157 59.6616C74.1193 59.56 73.6405 59.4347 73.1616 59.3094C72.2811 58.9839 71.3703 58.7455 70.4423 58.5976L70.3419 58.5749C69.8927 58.4788 69.5951 59.2349 69.8623 59.5563C70.738 60.6125 71.6815 61.6109 72.6869 62.5452C70.3481 66.26 69.1644 70.5785 69.2856 74.9542C69.3607 77.3479 69.7632 79.7188 70.482 82.0014C67.8432 83.3431 64.3681 85.1102 63.7584 86.0397C63.5709 86.3416 69.6305 86.7415 72.4205 87.4174L72.8108 87.5435C73.5685 88.9715 74.4253 90.3447 75.3749 91.6532C75.5403 92.9855 75.9848 94.2671 76.6798 95.4148C77.4103 96.3267 79.4157 95.897 78.5279 97.9415C78.212 98.591 78.067 99.3095 78.1068 100.029C78.3977 101.622 79.975 101.808 81.3855 101.666C79.9412 104.657 76.9137 107.45 76.6103 110.702C76.3679 113.141 88.8166 107.446 90.959 106.002C93.1013 104.559 92.7311 106.193 93.5093 107.198C93.9014 107.707 95.0549 106.914 95.3847 106.746C96.1151 106.375 96.023 109.372 96.2384 109.97C96.2691 110.037 96.3184 110.093 96.3803 110.132C96.4423 110.171 96.5143 110.192 96.5878 110.191C97.8925 110.162 98.8256 108.965 99.7249 108.109C101.171 106.754 101.599 107.451 102.816 108.882C103.49 109.818 104.218 110.714 104.996 111.565C105.281 111.833 105.633 111.506 105.792 111.264C106.896 109.551 107.679 107.653 108.103 105.663C111.486 104.764 114.682 103.269 117.541 101.248C118.159 102.143 118.671 103.092 118.862 103.379C119.825 104.836 120.753 106.311 121.776 107.797C122.174 108.347 122.753 107.182 122.793 106.882C122.722 104.71 122.411 102.553 121.865 100.45C121.698 99.5277 121.813 98.5752 122.195 97.7162C123.447 96.6221 124.646 95.4813 125.786 94.3411C126.835 93.3009 127.803 92.1825 128.681 90.9957L129.193 90.5439C130.666 89.3635 131.763 87.7803 132.348 85.9895C132.501 85.3463 132.579 84.6878 132.58 84.0273L133.082 82.7985C134.173 82.4652 136.751 83.1606 137.448 83.2487C138.145 83.3367 138.381 82.1691 138.025 81.8191C136.922 80.6692 135.683 79.6029 134.626 78.3996C138.261 78.0262 141.893 78.112 145.529 77.9446C146.025 77.9284 146.569 76.87 146.101 76.5327C144.154 75.3454 141.968 74.5991 139.696 74.3464C138.259 74.1815 136.842 73.8685 135.471 73.4123C135.323 73.34 135.197 73.2318 135.103 73.0977L135.141 72.3851C135.136 71.6062 135.087 70.8284 134.994 70.0554C135.007 68.7037 134.906 67.3538 134.692 66.02C134.819 64.2294 135.605 61.7797 134.505 60.3178C134.422 60.1537 133.494 59.9911 132.785 59.8502L132.457 59.2056C133.75 58.2424 135.123 57.3914 136.56 56.6619C136.879 56.5002 137.299 55.4311 136.743 55.2711C134.686 54.7568 132.568 54.5142 130.446 54.5495C132.854 53.1333 135.382 52.128 137.927 50.893C138.345 50.6951 138.966 49.583 138.327 49.4356Z" fill="url(#paint1_radial_229_332)"/>
<g style="mix-blend-mode:screen" opacity="0.6">
<path d="M114.057 36.0517C113.473 37.1824 112.822 38.2772 112.106 39.3299C111.752 39.8527 111.341 40.3342 110.879 40.7652C110.429 41.2 109.858 41.4901 109.242 41.5978L108.805 41.6723L108.327 41.6648L107.364 41.6379C106.738 41.6316 106.083 41.6551 105.445 41.6842C104.808 41.7134 104.171 41.772 103.539 41.8717C102.908 41.9714 102.265 42.0772 101.64 42.2181C101.015 42.3589 100.401 42.4938 99.7698 42.5641C99.1621 42.6558 98.5423 42.6191 97.9508 42.4565C97.3786 42.2659 96.8705 41.9223 96.4818 41.4629C96.3745 41.3318 96.2575 41.2088 96.1318 41.0951C95.9836 40.9752 95.8125 40.8866 95.6287 40.8347C95.438 40.7985 95.2409 40.8135 95.0576 40.8782C94.8743 40.9429 94.7113 41.055 94.5854 41.2029C94.1307 41.715 93.8704 42.3695 93.8502 43.0518L93.8689 44.5174C93.7501 44.421 93.6409 44.3136 93.5426 44.1965C93.3421 43.9981 93.1519 43.7895 92.9729 43.5717L92.4206 42.8937C92.2442 42.6771 92.0833 42.4484 91.9391 42.2092C91.814 41.9631 91.6769 41.6935 91.4751 41.4716C91.2733 41.2497 91.338 41.2021 91.1958 41.0974C91.0988 40.9736 90.9873 40.862 90.8636 40.7648C90.7476 40.6549 90.6159 40.5628 90.4727 40.4915C90.3257 40.4084 90.1658 40.3501 89.9995 40.3191L89.7455 40.286L89.663 40.328L89.5216 40.3998C89.4128 40.4252 89.3117 40.4766 89.2271 40.5496C89.1564 40.6133 89.0934 40.685 89.0392 40.7632L88.8227 41.183C88.757 41.3177 88.6985 41.4557 88.6476 41.5966C88.5771 41.9001 88.541 42.2104 88.5398 42.5217C88.5294 42.822 88.5603 43.116 88.5794 43.4161C88.5985 43.7161 88.5984 43.6867 88.6287 43.863L88.6957 44.2862C88.7811 44.8623 88.896 45.4382 89.0226 46.0081L89.1191 46.431L89.1668 46.5248C89.1755 46.5449 89.1855 46.5645 89.1966 46.5834C89.1966 46.5834 89.2092 46.754 89.1976 46.7894C89.1588 47.0049 89.0839 47.2125 88.9761 47.4035L85.9151 49.3435L82.9672 51.5062L82.2487 51.8716L81.4175 52.1615C81.1702 52.2873 80.8992 52.425 80.6518 52.5508C80.3817 52.686 80.1271 52.8501 79.8925 53.0402C79.6526 53.2191 79.4337 53.4244 79.24 53.6522C79.0649 53.878 78.9024 54.1133 78.7533 54.357L78.6301 54.5229L78.5358 54.5708L78.3002 54.6906C78.0607 54.7072 77.8203 54.6794 77.5913 54.6085C77.0478 54.4195 76.4849 54.2902 75.9127 54.223C75.7192 54.201 75.5231 54.2363 75.3492 54.3248C75.1753 54.4132 75.0312 54.5508 74.935 54.7202C74.8357 54.8775 74.7739 55.0553 74.7544 55.2398L74.6973 55.6523L74.5044 56.0602C74.558 56.1657 74.5176 56.3485 74.5182 56.4957C74.523 56.7949 74.5461 57.0935 74.5874 57.3898C74.6548 57.9013 74.7752 58.4006 74.8779 58.8941L74.4318 59.4455L73.1904 59.1327L72.4867 58.8857C72.2561 58.8094 72.0212 58.7466 71.7832 58.6977L71.0916 58.5331L70.7311 58.4656L70.5007 58.4205L70.2526 58.3992L70.3884 58.4039L70.3295 58.4338L70.247 58.4758L70.0821 58.5596C69.978 58.5849 69.8812 58.6342 69.7994 58.7034C69.7364 58.7615 69.6865 58.8321 69.6528 58.9107C69.5713 59.0494 69.5235 59.205 69.5132 59.3652C69.4899 59.5507 69.5281 59.7385 69.622 59.8999C69.6493 59.9694 69.6832 60.0361 69.7233 60.0991L69.8008 60.2515L70.0205 60.5085L70.4716 61.0167C70.7684 61.3656 71.0854 61.6969 71.4209 62.009L72.2217 62.7966L71.7241 63.684C71.5073 64.0449 71.3497 64.4348 71.1567 64.8132C70.9581 65.1897 70.7844 65.5786 70.6367 65.9774C70.4851 66.379 70.298 66.7692 70.1759 67.1705L69.7861 68.3865L69.4731 69.6372C69.3688 70.0443 69.3177 70.4685 69.237 70.8931C69.1563 71.3176 69.0933 71.7184 69.0599 72.1484L68.9655 73.4207L68.9479 74.6982C68.9263 75.1222 68.9874 75.5632 69.0012 75.9692C69.0149 76.3752 69.0405 76.8047 69.1075 77.2279L69.2965 78.5036C69.3575 78.9151 69.4658 79.3321 69.5445 79.7493C69.6232 80.1666 69.7137 80.5778 69.8338 80.9888L70.0979 81.9165C68.9199 82.5155 67.7419 83.1145 66.5639 83.7135C65.9277 84.037 65.3096 84.425 64.7034 84.8365C64.5513 84.9404 64.4059 85.0537 64.2681 85.1759C64.1032 85.2806 63.9529 85.4066 63.8212 85.5507L63.6216 85.7997L63.5509 85.8356L63.4987 86.0244L63.5344 86.0947C63.5482 86.1929 63.5943 86.2836 63.6655 86.3526C63.7038 86.3743 63.7433 86.3936 63.7839 86.4104C63.9755 86.4778 64.1735 86.5254 64.375 86.5524C65.8048 86.7693 67.2107 86.91 68.6227 87.0918C69.3375 87.1856 70.0346 87.2737 70.7319 87.3912L71.7719 87.5704L72.2861 87.6777L72.6526 87.7863L73.8016 89.7834L75.1393 91.7436C75.3088 92.9237 75.6483 94.0726 76.1473 95.1547C76.2129 95.2836 76.2844 95.4243 76.3559 95.5649L76.4095 95.6704L76.4751 95.7993C76.5272 95.8615 76.5893 95.9147 76.6589 95.9566C76.9195 96.1527 77.2116 96.3034 77.523 96.4023C77.7634 96.4896 77.992 96.6062 78.2036 96.7495C78.2871 96.8001 78.3547 96.873 78.3989 96.9599C78.4431 97.0468 78.4622 97.1444 78.4539 97.2417C78.4108 97.5001 78.3346 97.752 78.2272 97.9913C78.1045 98.2639 77.9993 98.5441 77.9123 98.8299C77.8596 98.9807 77.8247 99.1371 77.8082 99.2958C77.7588 99.4519 77.7414 99.6163 77.7574 99.779C77.7462 99.9548 77.761 100.131 77.8012 100.302L77.9272 100.725C78.0046 100.878 78.094 101.053 78.1775 101.217C78.2939 101.341 78.4209 101.454 78.5569 101.555C78.8296 101.742 79.1344 101.877 79.4562 101.954C79.6092 101.992 79.7655 102.016 79.923 102.026C80.0768 102.055 80.233 102.069 80.3897 102.069L80.7734 102.066C80.6271 102.332 80.4749 102.616 80.3108 102.876C80.1467 103.137 79.8011 103.711 79.4665 104.132C78.9331 104.949 78.3642 105.754 77.8486 106.606C77.5849 107.021 77.3508 107.464 77.1168 107.908C76.8893 108.356 76.6999 108.822 76.5506 109.302C76.4619 109.542 76.3997 109.792 76.3652 110.045C76.3192 110.305 76.267 110.493 76.2154 110.829L76.2929 110.982C76.3223 111.084 76.3708 111.179 76.4359 111.263C76.5418 111.398 76.6896 111.494 76.8564 111.536C77.1223 111.603 77.3983 111.623 77.6715 111.594C78.6686 111.471 79.6497 111.24 80.5967 110.903C81.5399 110.6 82.4593 110.251 83.3846 109.883C85.2055 109.149 87.0319 108.309 88.7695 107.44C89.6589 107.008 90.5185 106.516 91.3427 105.97C91.7314 105.772 92.2498 105.508 92.4872 105.771C92.7305 106.178 92.9456 106.601 93.1308 107.037C93.1823 107.163 93.2441 107.284 93.3156 107.4L93.3513 107.471C93.3653 107.508 93.3832 107.543 93.405 107.576C93.4767 107.61 93.556 107.626 93.6354 107.621C93.9019 107.623 94.1651 107.56 94.4021 107.438C94.6317 107.336 94.8559 107.222 95.0736 107.096L95.2385 107.013C95.2385 107.013 95.3563 106.953 95.3327 106.965C95.3092 106.977 95.3923 107.082 95.4341 107.164C95.6624 108.11 95.815 109.073 95.8905 110.044C95.9035 110.077 95.9195 110.108 95.9382 110.138L95.9501 110.161C95.9995 110.226 96.0621 110.28 96.1338 110.319C96.2106 110.34 96.2904 110.35 96.3701 110.346L96.5233 110.268C96.775 110.238 97.0212 110.173 97.2545 110.073C97.6962 109.835 98.1039 109.538 98.4666 109.192L99.7904 108.209C100.109 107.85 100.534 107.603 101.003 107.503C101.493 107.505 101.85 107.914 102.176 108.264C102.502 108.614 102.817 109 103.114 109.38C103.687 110.176 104.314 110.932 104.991 111.642C104.329 110.923 103.718 110.159 103.161 109.356C102.858 108.964 102.549 108.59 102.223 108.211C102.087 107.991 101.906 107.802 101.692 107.657C101.477 107.512 101.235 107.413 100.979 107.368C100.477 107.439 100.013 107.675 99.6597 108.039L98.6077 109.061C98.2494 109.39 97.8474 109.669 97.413 109.889C97.1981 109.986 96.9691 110.048 96.7349 110.072C96.4636 110.122 96.3158 110.093 96.2674 109.852C96.2079 108.868 96.0631 107.89 95.8344 106.931C95.8142 106.863 95.7819 106.8 95.7391 106.743C95.7142 106.702 95.6797 106.667 95.6385 106.642C95.5972 106.617 95.5505 106.602 95.5022 106.598C95.3782 106.587 95.4198 106.64 95.2722 106.641L95.1073 106.725C94.8834 106.839 94.6714 106.947 94.4594 107.055C94.2555 107.149 94.0348 107.201 93.8106 107.208C93.6157 107.203 93.5086 107.022 93.4013 106.811C93.218 106.345 92.9905 105.897 92.722 105.475C92.6135 105.371 92.4783 105.299 92.3313 105.267C92.1843 105.235 92.0311 105.244 91.8886 105.294C91.643 105.382 91.4095 105.501 91.1936 105.647C90.3745 106.177 89.5207 106.65 88.6378 107.065C86.8826 107.957 85.0442 108.745 83.2526 109.449C82.351 109.804 81.4256 110.142 80.4941 110.439C79.5845 110.753 78.6428 110.964 77.6867 111.07C77.4712 111.093 77.2534 111.079 77.0429 111.028C76.9685 111.01 76.8996 110.974 76.8417 110.924L76.7642 110.772C76.8108 110.63 76.8684 110.335 76.9088 110.123C76.9395 109.888 77.002 109.657 77.0945 109.438C77.2409 108.984 77.4224 108.542 77.6373 108.115C77.8656 107.689 78.0938 107.263 78.3635 106.861C78.8615 106.032 79.4363 105.239 79.9993 104.421L80.8436 103.166C81.1013 102.74 81.3354 102.296 81.6461 101.829C81.6725 101.782 81.6865 101.729 81.6867 101.675C81.6773 101.603 81.6421 101.537 81.5877 101.489C81.5333 101.441 81.4632 101.414 81.3903 101.413C81.11 101.444 80.8278 101.454 80.5461 101.444L80.1445 101.412C80.0102 101.399 79.8775 101.372 79.7485 101.333C79.4968 101.283 79.26 101.176 79.0563 101.021C78.9594 100.953 78.87 100.875 78.7895 100.788C78.7475 100.692 78.6997 100.598 78.6464 100.507L78.5087 100.09C78.4729 100.02 78.5076 99.8548 78.4952 99.743C78.4885 99.6158 78.5038 99.4882 78.5407 99.3659C78.5555 99.2354 78.5846 99.1069 78.6274 98.9825C78.7071 98.7073 78.8085 98.4387 78.9307 98.1793C79.0652 97.8868 79.1572 97.5768 79.2038 97.2587C79.2296 97.0662 79.2071 96.8705 79.1382 96.6893C79.0693 96.508 78.9563 96.3468 78.8092 96.2202C78.5496 96.0164 78.2548 95.8614 77.9392 95.7629C77.6972 95.679 77.4682 95.5622 77.2585 95.4157C77.2225 95.3708 77.1961 95.3189 77.1811 95.2633C77.1811 95.2633 77.1334 95.1696 77.1453 95.193L77.1036 95.111C77.0305 94.996 76.9687 94.8744 76.9188 94.7476C76.4533 93.7157 76.1284 92.6258 75.953 91.5069C75.9472 91.4667 75.9284 91.4296 75.8993 91.4014L74.5615 89.4118L73.3708 87.3326C73.3271 87.2643 73.2596 87.2146 73.1812 87.193C73.0069 87.1269 72.8292 87.0695 72.649 87.0211L71.8932 86.9924L70.8295 86.7958C70.1204 86.6843 69.4056 86.5905 68.7085 86.5025C67.2905 86.3089 65.8551 86.1685 64.4784 85.9393L64.4195 85.9692L64.6958 85.7254C64.849 85.6476 64.9605 85.5171 65.1077 85.4275C65.6893 85.0332 66.2927 84.6722 66.9152 84.3462C68.1757 83.7052 69.4479 83.0583 70.7202 82.4114C70.7942 82.3726 70.853 82.31 70.8869 82.2338C70.9209 82.1576 70.928 82.0723 70.9072 81.9918L70.5767 80.788C70.4559 80.3953 70.3614 79.995 70.2936 79.5897C70.2149 79.1725 70.1185 78.7789 70.0575 78.3674L69.8865 77.1563C69.8137 76.7508 69.8176 76.3211 69.7744 75.9153C69.7311 75.5095 69.7114 75.0918 69.7213 74.6737L69.7332 73.4434L69.8336 72.2123C69.854 71.7983 69.9073 71.3864 69.9932 70.9806C70.0466 70.5737 70.1235 70.1701 70.2236 69.7719L70.5131 68.5626L70.8913 67.382C71.0016 66.9867 71.1829 66.6142 71.3287 66.2303C71.4752 65.8414 71.6429 65.4607 71.8311 65.0899C72.0183 64.7291 72.1759 64.3392 72.3808 63.9843L72.9898 62.9076C73.0243 62.8387 73.0365 62.7609 73.0245 62.685C73.0125 62.6091 72.9769 62.5389 72.9229 62.4844L71.9499 61.504C71.6141 61.1923 71.297 60.8609 71.0006 60.5117L70.5495 60.0035L70.318 59.7525L70.2405 59.6001C70.2405 59.6001 70.1869 59.4946 70.1929 59.5063C70.1988 59.5181 70.1571 59.436 70.1392 59.4009C70.1386 59.3344 70.1567 59.2689 70.1915 59.212C70.1915 59.212 70.3211 59.1461 70.2857 59.1641L70.3564 59.1282L70.4922 59.1329C70.5261 59.1487 70.5618 59.1603 70.5986 59.1672L70.7051 59.2016L71.0478 59.2634L71.7217 59.4223C71.9463 59.485 72.1768 59.5301 72.3897 59.5989L73.0165 59.8111L74.4884 60.169C74.5466 60.175 74.6054 60.164 74.6576 60.1374C74.7099 60.1109 74.7534 60.0698 74.7829 60.0193L75.4579 59.1892C75.4876 59.1524 75.5083 59.1093 75.5183 59.0632C75.5283 59.0172 75.5274 58.9694 75.5157 58.9238C75.3807 58.3936 75.2757 57.856 75.2011 57.3138C75.1526 57.0579 75.1296 56.7979 75.1325 56.5374C75.0788 56.4319 75.1077 56.2845 75.1129 56.149L75.1523 55.7308L75.2094 55.3182C75.2511 55.186 75.3306 55.0687 75.4381 54.9807L75.5559 54.9208C75.6625 54.8978 75.7714 54.887 75.8804 54.8885C76.4097 54.9479 76.9308 55.0637 77.4349 55.2339C77.7441 55.3183 78.0657 55.3494 78.3859 55.3256C78.5647 55.2724 78.7323 55.1871 78.8807 55.074L79.1158 54.8659L79.2331 54.6883C79.4325 54.4099 79.532 54.2265 79.7082 54.0189C79.871 53.8238 80.0542 53.6466 80.2548 53.4902C80.4594 53.3268 80.6803 53.1848 80.914 53.0665C81.1614 52.9407 81.397 52.8209 81.6444 52.6951L82.3866 52.3178L83.1523 51.9284L86.1773 49.8592L89.2556 47.8367C89.2556 47.8367 89.2556 47.8367 89.3381 47.7947C89.5252 47.5056 89.6373 47.1749 89.6642 46.8324C89.6284 46.7621 89.5986 46.7035 89.6631 46.5969L89.6035 46.4797L89.5558 46.386L89.4593 45.963C89.3778 45.3555 89.3081 44.7812 89.2505 44.2401L89.1658 43.8112L89.1166 43.3937C89.0916 43.1114 89.0785 42.823 89.0772 42.5582C89.0709 42.2845 89.1014 42.011 89.1678 41.745C89.1778 41.5941 89.2008 41.4442 89.2366 41.2971L89.412 40.9424C89.4503 40.9118 89.4944 40.8894 89.5416 40.8765L89.7306 40.8983C89.8367 40.8444 89.9613 40.9728 90.0737 41.0189C90.1921 41.0656 90.2991 41.1369 90.3876 41.2281C90.4934 41.3101 90.5872 41.4063 90.6664 41.5141C90.7381 41.6247 90.798 41.7426 90.8452 41.8657C90.9704 42.1118 91.1015 42.3697 91.321 42.5973C91.4772 42.8502 91.6499 43.0925 91.8381 43.3226L92.3962 43.9829C92.5273 44.2407 92.788 44.4327 92.9956 44.6369C93.2032 44.8411 93.4521 45.039 93.6715 45.2372C93.6965 45.2622 93.7286 45.2789 93.7636 45.2849C93.7985 45.2909 93.8344 45.286 93.8665 45.2708L94.1493 45.1271C94.1909 45.1131 94.2267 45.0857 94.2511 45.0492C94.2755 45.0128 94.2871 44.9694 94.2841 44.9258L94.2338 43.019C94.2247 42.4247 94.4389 41.8475 94.8343 41.4009C94.9141 41.3033 95.0183 41.2285 95.1363 41.1841C95.2544 41.1396 95.382 41.1271 95.5062 41.1477C95.6296 41.1783 95.7448 41.2356 95.8435 41.3155C95.8912 41.4092 96.063 41.5431 96.1697 41.6363C96.6043 42.1834 97.1884 42.5932 97.8521 42.8165C98.4969 42.9747 99.1671 43.0048 99.8245 42.9051C100.462 42.8171 101.093 42.6585 101.706 42.5236C102.32 42.3887 102.957 42.2712 103.582 42.1598C104.207 42.0483 104.839 42.0074 105.464 41.9254C106.09 41.8434 106.733 41.8554 107.371 41.8556L108.328 41.8708L108.8 41.8666L109.296 41.8211C109.943 41.7063 110.542 41.4018 111.016 40.9465C111.48 40.499 111.893 40.0018 112.248 39.4641C112.925 38.3544 113.54 37.2093 114.092 36.0338C114.636 34.8958 115.293 33.8152 116.055 32.8084C115.28 33.8196 114.611 34.9063 114.057 36.0517Z" fill="#B3E4FA"/>
</g>
<g style="mix-blend-mode:screen">
<path d="M132.286 70.3848C127.467 70.3775 122.66 70.8975 117.952 71.9354C114.812 72.4547 111.646 72.7892 108.468 72.9372C108.447 72.5819 108.392 72.2296 108.304 71.885C113.753 69.247 118.987 66.1283 124.317 63.3148C124.494 63.2249 124.574 62.7121 124.338 62.8319C118.872 65.4936 113.358 68.1203 107.903 70.8348C107.856 70.7264 107.802 70.6208 107.742 70.5184C108.942 69.4071 110.177 68.3661 110.928 67.4236C113.206 64.79 115.485 62.1564 117.645 59.4355C117.75 59.2933 117.695 58.923 117.502 59.1542C114.478 62.8383 111.25 66.351 107.833 69.6758L107.374 70.086C107.216 69.921 107.041 69.7727 106.853 69.6432C110.309 62.5904 114.059 55.4173 116.339 47.9451C116.432 47.6323 116.071 47.6237 115.978 47.8776C114.311 52.413 111.657 56.8747 109.688 61.2538C108.607 63.6178 107.236 65.8785 106.013 68.1967C106.088 67.7605 106.175 67.3182 106.267 66.9171C107.377 61.9275 108.611 56.9486 109.538 51.9782C109.596 51.654 109.295 51.7626 109.231 51.9868C107.726 57.0152 106.132 62.015 104.644 67.0491L104.47 67.6393C104.469 66.2384 104.433 64.826 104.456 63.413C104.496 59.4688 105.186 55.5189 105.161 51.5635C105.16 51.2692 104.86 51.4955 104.867 51.7132C104.654 55.3764 103.939 59.0146 103.537 62.7147C103.475 63.2333 103.43 63.7576 103.379 64.2701C103.021 62.2248 102.687 60.197 102.358 58.122C101.615 53.337 101.362 48.4948 100.46 43.7466C100.405 43.4056 100.077 43.8088 100.101 44.0028C100.9 51.9306 100.897 59.9125 102.138 67.7776C101.542 66.6055 100.994 65.5273 100.434 64.4256C98.6688 60.7503 97.0391 56.9915 95.1563 53.3762C95.0491 53.1652 94.8265 53.5439 94.8862 53.6906C96.4927 57.5497 97.9696 61.4746 99.6055 65.3335C100.227 66.8172 100.883 68.2831 101.539 69.7489L101.021 70.0124C100.22 69.166 99.4131 68.3372 98.7067 67.5311C95.7503 64.1371 93.0529 60.5525 89.8256 57.2963C89.6773 57.1505 89.4487 57.488 89.5913 57.681C92.3103 60.8416 94.6469 64.2705 97.0777 67.6514C97.5591 68.3358 98.0937 69.0081 98.6341 69.6626C93.9836 66.3483 89.3451 63.0574 84.3715 60.0992C84.1821 59.989 83.9365 60.4974 84.1201 60.6253C89.1078 64.0779 93.8263 68.0508 98.6437 71.6933C96.5752 71.27 94.4596 70.8707 92.4141 70.3177C88.1164 69.1842 83.8938 67.7026 79.6311 66.4922C79.4597 66.4467 79.2962 66.8248 79.4677 66.8998C83.6316 68.4407 87.725 70.0764 91.9942 71.4163C92.4554 71.5653 95.6177 72.3027 98.4664 72.9192L98.3736 73.2614C92.0456 72.3047 85.4445 72.2686 79.1708 71.535C79.0172 71.5246 78.8716 71.9379 79.0488 71.9658C85.0587 73.0843 91.1383 73.9608 97.2177 74.808C96.3503 74.9098 95.5301 75.0171 94.8512 75.023C91.2256 74.949 87.4266 75.6417 83.8692 75.0019C83.6565 74.9626 83.4814 75.4056 83.6766 75.4687C86.4866 75.9875 89.3468 76.1953 92.2052 76.0882C94.0533 76.1073 96.1597 75.8179 98.1844 75.7177C98.2364 76.0199 98.3088 76.3182 98.4012 76.6105C92.5759 78.3335 86.7809 80.2034 80.8835 81.6386C80.7657 81.6985 80.6669 82.029 80.8321 82.004C86.7705 80.9584 92.6493 79.5941 98.4428 77.9169C96.2357 79.408 94.1249 81.2631 92.0124 82.765C87.858 85.733 83.8105 88.8236 79.7214 91.8616C79.6036 91.9215 79.5935 92.2807 79.7818 92.1554C86.3382 87.7301 92.7993 83.1172 99.3615 78.6741L96.4069 81.9023C94.5316 84.0457 92.6881 86.2516 90.8764 88.5201C89.7143 89.996 88.3929 92.733 86.6376 93.6256C86.5198 93.6855 86.4213 94.0748 86.6335 93.9964C87.5896 93.5085 88.4131 92.7961 89.0326 91.921C91.0771 89.7604 93.0979 87.5823 95.1839 85.4743C97.1466 83.5027 98.9675 81.5148 100.812 79.5148C101.008 79.593 101.21 79.6581 101.415 79.7097C97.0999 87.3764 93.4006 95.4379 88.5645 102.809C88.4648 102.963 88.6016 103.174 88.7364 102.972C93.9273 95.6864 97.998 87.5097 102.632 79.799C102.265 80.8854 101.892 81.9599 101.567 83.04C100.636 86.0797 100.334 89.6553 98.9901 92.5515C98.8907 92.7643 99.1101 92.9625 99.2389 92.72C100.685 90.0525 101.195 86.9165 102.121 84.13C102.418 83.2562 102.703 82.359 103.148 81.4839C103.143 81.7959 103.15 82.0431 103.139 82.1668C103.046 84.8989 103.182 87.5583 103.13 90.2547C103.068 94.7406 103.815 99.1253 103.571 103.572C103.56 103.901 103.89 103.645 103.901 103.404C104.36 99.3501 104.033 95.1795 104.268 91.0923C104.466 88.0414 104.828 84.789 104.99 81.6089C106.483 88.8007 108.695 95.9508 110.8 102.89C110.925 103.136 111.148 102.846 111.142 102.716C109.262 94.8215 107.483 86.7729 105.786 78.7706L105.974 78.6748C110.556 85.0329 115.322 91.4601 119.428 98.2227C119.523 98.4102 119.746 98.061 119.669 97.938C117.095 93.1397 114.145 88.592 111.13 84.0625C109.917 82.2307 108.71 80.4107 107.409 78.5797C107.254 78.275 107.01 78.0005 106.814 77.702C107.347 78.0211 107.874 78.3578 108.401 78.6357C110.757 79.9453 113.101 81.2903 115.457 82.5999C115.605 82.6869 115.775 82.3205 115.65 82.2215C113.695 80.826 111.623 79.4904 109.638 78.1245C108.951 77.6479 108.211 77.2129 107.477 76.7897L107.559 76.63C108.895 77.1304 110.244 77.5659 111.522 78.1256C114.715 79.6623 118.046 80.902 121.47 81.8289C121.635 81.8627 121.793 81.5023 121.622 81.4567C118.637 80.352 115.733 79.0442 112.93 77.5422L108.8 75.6008C112.657 76.3651 116.557 76.8988 120.48 77.1991C120.633 77.2096 120.785 76.808 120.614 76.7624C117.262 76.0031 113.899 75.2204 110.495 74.5322C117.746 73.4854 124.821 71.2746 132.146 70.8981C132.477 70.9364 132.569 70.3882 132.286 70.3848Z" fill="#8F9194"/>
</g>
<path d="M87.8942 132.136C86.9206 131.963 85.9286 131.912 84.9414 131.985C84.3747 132.008 83.8081 132.06 83.2356 132.1C82.6631 132.14 81.9192 130.911 81.5518 130.626C81.1777 130.417 80.7693 130.275 80.3454 130.207C79.3166 129.904 79.5091 128.154 79.6354 127.382C79.7718 126.868 79.7875 126.329 79.6811 125.809C79.6215 125.692 79.4859 125.746 79.4272 125.806C78.6577 126.654 77.8907 129.257 76.6977 129.185C75.8513 129.141 75.0022 129.205 74.1716 129.378C73.3399 129.55 72.5383 129.84 71.9028 129.057C71.4575 128.531 71.0592 129.205 71.0613 129.647C71.0613 129.647 71.07 130.247 71.0825 130.388C70.8253 130.167 70.5908 129.92 70.3824 129.653C70.0855 129.302 69.9056 128.715 69.3859 128.684C69.3514 128.684 69.3172 128.692 69.2864 128.707C69.2556 128.723 69.2291 128.746 69.2092 128.774C69.0392 129.116 68.991 129.505 69.0727 129.876C69.1156 130.223 69.2117 130.558 69.2842 130.904C69.3067 131.058 69.2694 131.214 69.18 131.341C68.3779 131.829 67.6056 132.365 66.8672 132.945C66.2193 133.274 65.6822 133.326 65.3133 133.971C64.9444 134.616 64.4095 133.885 63.9496 134C63.9075 134.023 63.8706 134.054 63.8413 134.092C63.812 134.13 63.7909 134.173 63.7794 134.22C63.7116 134.695 63.7501 135.179 63.8923 135.637L63.6282 135.963L63.0726 135.833C62.7373 135.707 62.391 135.611 62.038 135.548C61.8548 135.508 61.7499 135.797 61.8449 135.926C62.1764 136.324 62.5352 136.699 62.9189 137.047C62.0361 138.451 61.5917 140.084 61.6421 141.738C61.6691 142.659 61.8285 143.572 62.1154 144.447C61.1872 144.829 60.3218 145.349 59.5485 145.988C59.4782 146.113 61.8054 146.316 62.7925 146.537C62.8471 146.549 62.9005 146.567 62.9521 146.588C63.243 147.132 63.5689 147.656 63.9278 148.157C63.9922 148.668 64.1613 149.159 64.4247 149.601C64.7098 149.958 65.4824 149.786 65.1378 150.566C65.003 150.811 64.939 151.089 64.9526 151.368C65.0617 151.962 65.6643 152.039 66.2013 151.987C65.6281 153.134 64.5054 154.192 64.3754 155.423C64.2854 156.354 69.0281 154.193 69.8402 153.633C70.6523 153.072 70.5196 153.715 70.8166 154.095C70.9239 154.306 71.4124 153.984 71.5302 153.924C71.648 153.864 71.783 154.946 71.8548 155.145C71.8652 155.173 71.8839 155.196 71.9082 155.213C71.9326 155.23 71.9615 155.238 71.991 155.238C72.4869 155.222 72.8627 154.795 73.1858 154.439C73.7384 153.922 73.9049 154.191 74.3739 154.735C74.6286 155.103 74.9063 155.454 75.2055 155.787C75.2711 155.916 75.4593 155.761 75.5 155.637C75.9122 154.976 76.2102 154.251 76.3814 153.493C77.67 153.152 78.8873 152.583 79.9751 151.813C80.1598 152.176 80.4035 152.509 80.4748 152.621C80.8494 153.182 81.1886 153.733 81.575 154.289C81.6942 154.523 81.9637 154.091 81.9513 153.95C81.9064 153.148 81.7759 152.354 81.5622 151.581C81.4936 151.231 81.5374 150.868 81.6872 150.544C82.1576 150.128 82.622 149.7 83.0509 149.26C83.458 148.862 83.8349 148.433 84.1785 147.979L84.4023 147.865C84.9616 147.421 85.3794 146.824 85.6046 146.148C85.6675 145.905 85.7001 145.656 85.7014 145.405L85.8881 144.927C86.4473 144.903 87.0066 144.962 87.548 145.1C87.7725 145.134 87.9063 144.697 87.7757 144.557C87.3486 144.125 86.8861 143.711 86.4765 143.256C87.881 143.102 89.251 143.143 90.6323 143.09C90.8212 143.082 91.0259 142.668 90.86 142.546C90.1082 142.071 89.2602 141.767 88.376 141.656C87.8138 141.601 87.2591 141.488 86.7213 141.317C86.6824 141.274 86.6557 141.221 86.6438 141.165L86.6543 140.894C86.6647 140.593 86.6456 140.293 86.6265 139.993C86.6302 139.479 86.5922 138.966 86.5129 138.458C86.551 137.775 86.8358 136.819 86.4318 136.287C86.2301 136.196 86.0175 136.13 85.7992 136.092C85.7634 136.022 85.7217 135.94 85.68 135.858C86.171 135.486 86.6929 135.156 87.2399 134.873C87.3577 134.813 87.5271 134.417 87.3024 134.354C86.5226 134.161 85.72 134.073 84.9159 134.093C85.8701 133.607 86.7889 133.14 87.7549 132.649C87.9024 132.618 88.1424 132.186 87.8942 132.136Z" fill="url(#paint2_radial_229_332)"/>
<g style="mix-blend-mode:screen" opacity="0.6">
<path d="M79.3683 125.835L79.1395 126.144C79.0067 126.349 78.8778 126.562 78.7529 126.783C78.5128 127.215 78.2728 127.646 77.9384 128.097C77.7126 128.511 77.3691 128.85 76.9511 129.071C76.7184 129.133 76.476 129.152 76.2369 129.124L75.4812 129.125C75.2301 129.132 74.9797 129.155 74.7317 129.196C74.4779 129.222 74.2241 129.248 73.9823 129.297C73.5211 129.434 73.0368 129.474 72.56 129.415C72.3458 129.359 72.1526 129.242 72.0034 129.079C71.9107 128.974 71.8004 128.885 71.6774 128.817C71.5938 128.782 71.5021 128.771 71.4125 128.786C71.3229 128.8 71.2389 128.839 71.17 128.898C70.9618 129.107 70.8444 129.389 70.8431 129.684L70.8509 130.078C70.7731 130.014 70.7052 129.939 70.6491 129.856L70.4354 129.611L70.2983 129.341C70.1929 129.128 70.05 128.936 69.8764 128.774C69.7749 128.676 69.6478 128.607 69.5094 128.577C69.4298 128.561 69.348 128.557 69.2673 128.567L69.1141 128.645L68.9963 128.705L68.8562 129.042C68.8229 129.171 68.8057 129.304 68.805 129.437C68.8035 129.553 68.8079 129.668 68.8184 129.784C68.8242 129.899 68.8426 130.014 68.8732 130.125L68.9825 130.777C69.0103 130.875 69.0266 130.975 69.0312 131.077L68.967 131.242L66.6952 132.781L66.4361 132.913L66.1533 133.057C65.9316 133.133 65.7214 133.24 65.529 133.374C65.4263 133.445 65.3351 133.531 65.2586 133.63C65.2187 133.673 65.1834 133.721 65.153 133.772L65.0823 133.808L64.9645 133.868L64.8821 133.91L64.7579 133.869C64.5346 133.808 64.3076 133.761 64.0782 133.728C63.9486 133.794 63.7829 133.701 63.5952 133.974C63.5447 134.043 63.5144 134.125 63.5078 134.21L63.4849 134.369C63.4698 134.484 63.4644 134.601 63.4689 134.717C63.4731 134.835 63.4835 134.953 63.5 135.07C63.5775 135.222 63.5608 135.422 63.6029 135.593L63.4851 135.652L63.1134 135.709L62.5634 135.531C62.3498 135.478 62.1326 135.441 61.9135 135.419L62.0077 135.371L61.9017 135.425C61.8097 135.463 61.7345 135.532 61.6901 135.621C61.6473 135.691 61.6214 135.77 61.6144 135.851C61.6048 135.948 61.6281 136.046 61.6806 136.127C61.6903 136.161 61.7065 136.193 61.7283 136.221L61.7879 136.338L61.9718 136.525L62.5593 137.156L62.1965 137.842C62.0463 138.14 61.9213 138.45 61.823 138.769L61.6539 139.224L61.55 139.719C61.4782 140.038 61.4246 140.361 61.3892 140.686L61.329 141.675L61.3766 141.769C61.3887 141.812 61.4089 141.852 61.4362 141.886L61.4551 142.128L61.5046 142.604L61.554 143.08C61.6196 143.209 61.6264 143.398 61.6626 143.556L61.8491 144.302L60.4355 145.021C60.1881 145.147 59.9407 145.272 59.6934 145.398C59.5646 145.484 59.4462 145.583 59.3405 145.696L59.2227 145.756L59.1638 145.786L59.129 145.921C59.1283 145.956 59.1361 145.99 59.1517 146.02C59.1673 146.051 59.1902 146.077 59.2184 146.097C59.2976 146.125 59.3785 146.148 59.4608 146.166C60.0221 146.249 60.5537 146.303 61.056 146.387L61.8536 146.498L62.2436 146.565L62.4386 146.598L62.4975 146.569L63.4136 148.02L63.5523 148.643C63.6002 148.751 63.6539 148.857 63.7132 148.959C63.7567 149.075 63.8127 149.185 63.8801 149.288L63.9874 149.499C64.0291 149.581 63.9874 149.499 64.0231 149.569L64.0589 149.639C64.1699 149.724 64.2938 149.79 64.4259 149.836C64.5031 149.864 64.5766 149.901 64.6448 149.946L64.5634 150.194L64.435 150.525C64.3962 150.653 64.3789 150.786 64.3838 150.92C64.3679 150.996 64.3724 151.075 64.3966 151.149L64.4741 151.301C64.538 151.436 64.6331 151.554 64.7515 151.645C64.87 151.736 65.0084 151.798 65.1556 151.825C65.2643 151.849 65.3751 151.862 65.4864 151.863C65.3782 152.08 65.2569 152.289 65.1233 152.491C64.9122 152.804 64.6952 153.107 64.5078 153.438C64.2981 153.767 64.1292 154.12 64.005 154.49C63.9476 154.682 63.9031 154.877 63.872 155.074C63.8821 155.103 63.8961 155.131 63.9137 155.156C63.9326 155.21 63.9587 155.261 63.9912 155.308C64.0477 155.371 64.1219 155.416 64.2043 155.436C64.3153 155.469 64.4316 155.48 64.5469 155.468C64.9295 155.419 65.3054 155.327 65.6674 155.194C66.0316 155.079 66.3896 154.947 66.7401 154.796C67.4414 154.513 68.113 154.201 68.7963 153.853C69.1388 153.702 69.4731 153.532 69.7976 153.344C69.9743 153.254 70.1039 153.188 70.1632 153.247C70.2603 153.393 70.3403 153.551 70.4016 153.716C70.6936 154.29 71.3867 153.524 71.3581 153.731C71.442 154.085 71.5009 154.444 71.5344 154.806C71.5367 154.834 71.5495 154.859 71.5702 154.877L71.6884 154.905L71.7473 154.875C71.8394 154.843 71.9266 154.799 72.0064 154.743C72.1772 154.653 72.3338 154.539 72.4713 154.404L72.8708 153.994C72.9966 153.864 73.1626 153.779 73.342 153.755C73.4716 153.689 73.6439 153.911 73.7685 154.039C73.8931 154.168 74.0119 154.314 74.1306 154.46C74.2494 154.606 74.5998 155.033 74.8491 155.319C74.6115 155.027 74.38 154.746 74.16 154.43L74.1545 154.507C74.077 154.354 73.905 154.191 73.6806 154.187C73.3195 154.322 73.0006 154.55 72.7568 154.849C72.6156 154.956 72.4559 155.038 72.2856 155.088C72.2131 155.139 72.1337 155.179 72.05 155.208L71.9911 155.238C71.9757 154.857 71.9225 154.479 71.8322 154.109C71.8322 154.109 71.7846 154.015 71.6544 153.964C71.5243 153.912 71.6544 153.964 71.5602 154.012L71.5013 154.041C71.4252 154.095 71.3419 154.137 71.2539 154.167C71.1995 154.214 71.1349 154.247 71.0654 154.263C71.0654 154.263 71.0654 154.263 71.0356 154.205C71.0058 154.146 71.0356 154.205 70.9879 154.111C70.9248 153.928 70.8366 153.754 70.7257 153.595C70.5063 153.397 70.2 153.553 70.0764 153.63C69.7556 153.815 69.4253 153.983 69.0869 154.133C68.4154 154.475 67.7557 154.81 67.0364 155.028C66.7066 155.196 66.3529 155.317 65.9754 155.391C65.6362 155.512 65.2837 155.593 64.9256 155.63C64.8582 155.635 64.7904 155.63 64.7247 155.614C64.7493 155.444 64.788 155.276 64.8405 155.113C64.9563 154.773 65.1155 154.449 65.3142 154.149C65.7068 153.522 66.1823 152.94 66.5451 152.254C66.5689 152.22 66.5792 152.178 66.5741 152.136C66.5719 152.109 66.5641 152.081 66.5513 152.057C66.5384 152.032 66.5207 152.01 66.4992 151.992C66.4776 151.974 66.4527 151.96 66.4259 151.952C66.3991 151.944 66.3708 151.941 66.3429 151.944C66.146 151.97 65.9462 151.962 65.7524 151.92C65.6714 151.895 65.594 151.86 65.5216 151.816C65.4835 151.767 65.4552 151.712 65.4382 151.652L65.3667 151.511C65.3593 151.486 65.3472 151.462 65.3309 151.441C65.3325 151.346 65.35 151.253 65.3827 151.164L65.4876 150.875C65.5437 150.752 65.5828 150.623 65.6039 150.491C65.6079 150.406 65.5996 150.321 65.5791 150.238C65.5548 150.144 65.51 150.056 65.448 149.98C65.3433 149.897 65.2252 149.833 65.0987 149.789C65.0135 149.765 64.9333 149.726 64.862 149.673L64.8263 149.603L64.7488 149.451C64.6938 149.371 64.6497 149.284 64.6177 149.193C64.5664 149.106 64.5206 149.016 64.4806 148.923C64.4195 148.711 64.3692 148.495 64.33 148.277L64.2882 148.195L63.3304 146.661C63.3036 146.613 63.2589 146.578 63.206 146.562C63.1365 146.535 63.0654 146.512 62.9931 146.494L62.573 146.309L62.1653 146.236L61.3499 146.119L59.997 145.937C60.223 145.799 60.4593 145.679 60.7038 145.578C61.175 145.338 61.658 145.093 62.141 144.847C62.1954 144.821 62.2395 144.778 62.266 144.725C62.2926 144.671 62.3001 144.61 62.2872 144.551L62.0822 143.653C62.0167 143.524 61.9511 143.395 61.9738 143.206L61.9244 142.73L61.9632 142.194L61.9325 141.959L61.8908 141.877L61.8431 141.783L61.8919 140.858C61.9214 140.551 61.9693 140.246 62.0352 139.945C62.0758 139.791 62.0987 139.632 62.1275 139.485L62.2907 139.048C62.3881 138.752 62.503 138.462 62.635 138.179L63.0621 137.357C63.0907 137.312 63.1021 137.258 63.0943 137.205C63.0865 137.152 63.0599 137.104 63.0194 137.069L62.3073 136.31L62.1234 136.124L62.0698 136.018C62.1936 136.069 62.3224 136.107 62.4541 136.132L62.9389 136.269L63.5005 136.412C63.5444 136.414 63.5883 136.405 63.6276 136.385C63.6668 136.365 63.7002 136.335 63.7243 136.298L63.9767 135.978C64.0218 135.919 64.0425 135.845 64.0347 135.771C63.9769 135.575 63.9345 135.375 63.9079 135.172C63.8887 135.079 63.8803 134.984 63.883 134.89C63.8903 134.761 63.9281 134.635 63.9934 134.524L63.9985 134.359L64.0574 134.329C64.251 134.347 64.4415 134.389 64.6248 134.453L64.8021 134.481L65.0265 134.485C65.1288 134.455 65.2247 134.406 65.3092 134.341L65.409 134.217L65.515 134.163L65.621 134.109C65.6832 134.041 65.75 133.978 65.8209 133.919C65.984 133.813 66.1578 133.725 66.3392 133.655L66.6219 133.512L66.9518 133.344L69.235 131.74L69.2939 131.71C69.3757 131.583 69.4238 131.436 69.4336 131.285C69.4295 131.169 69.4151 131.053 69.3907 130.938L69.2518 130.286C69.2255 130.184 69.2073 130.08 69.1972 129.975C69.1495 129.881 69.1903 129.757 69.1839 129.657C69.1775 129.557 69.2008 129.486 69.2004 129.398C69.2274 129.302 69.2645 129.209 69.3112 129.12C69.3917 129.127 69.4671 129.162 69.5242 129.218C69.6677 129.366 69.7916 129.531 69.8926 129.71C69.9386 129.814 69.9903 129.916 70.0476 130.014L70.2672 130.271C70.4215 130.445 70.588 130.606 70.7655 130.756C70.7826 130.774 70.8044 130.786 70.8285 130.792C70.8525 130.798 70.8778 130.797 70.9014 130.79L70.9603 130.76C70.9862 130.747 71.0084 130.727 71.0248 130.704C71.0412 130.68 71.0513 130.652 71.0542 130.624L71.033 129.882C71.028 129.673 71.1055 129.469 71.2487 129.315C71.3194 129.279 71.3783 129.249 71.4019 129.237C71.4254 129.225 71.5974 129.389 71.6508 129.435C71.8408 129.639 72.0885 129.78 72.3612 129.841C72.8724 129.901 73.391 129.844 73.8778 129.675L74.6153 129.55C74.8572 129.531 75.0931 129.47 75.3411 129.462L76.0908 129.449C76.3457 129.463 76.6013 129.433 76.8462 129.36C77.3924 129.099 77.8279 128.653 78.0742 128.101C78.332 127.675 78.5543 127.238 78.7883 126.794L79.1513 126.138L79.3683 125.835C79.421 125.735 79.5917 125.633 79.6633 125.774C79.6095 125.639 79.421 125.735 79.3683 125.835ZM64.5235 155.51C64.5235 155.51 64.5654 155.621 64.5414 155.545L64.5235 155.51Z" fill="#B3E4FA"/>
</g>
<g style="mix-blend-mode:screen" opacity="0.5">
<path d="M86.2011 139.944C84.1139 139.941 82.0319 140.169 79.993 140.622C78.6258 140.829 77.2488 140.963 75.8679 141.024C75.8643 140.866 75.8397 140.71 75.7948 140.559C78.1508 139.361 80.4532 138.058 82.7914 136.825C82.8739 136.783 82.9082 136.559 82.8022 136.613C80.4462 137.811 78.0365 138.903 75.6745 140.089C75.6566 140.04 75.6325 139.993 75.603 139.949C76.1262 139.462 76.6201 139.033 76.9901 138.624C77.9885 137.497 78.9632 136.352 79.9023 135.167C79.9023 135.167 79.9249 134.949 79.8427 135.049C78.5283 136.671 77.1201 138.214 75.6253 139.672L75.4195 139.85C75.3542 139.782 75.2827 139.719 75.2061 139.664C76.8113 136.621 78.1781 133.461 79.2944 130.21C79.3292 130.074 79.211 130.046 79.1467 130.182C78.4238 132.142 77.2993 134.071 76.4227 135.992C75.9611 137.008 75.3694 138.002 74.8369 138.996L74.9405 138.442C75.4263 136.277 75.9652 134.13 76.3505 131.943C76.3735 131.813 76.2909 131.825 76.2444 131.997C75.5875 134.174 74.9069 136.335 74.2501 138.513L74.1805 138.784L74.1067 136.919C74.1282 135.211 74.4331 133.508 74.4544 131.771C74.4597 131.636 74.3362 131.743 74.3248 131.837C74.214 133.368 73.9264 134.99 73.7566 136.551L73.7008 137.228C73.5431 136.335 73.3913 135.453 73.2275 134.519C72.9048 132.456 72.7826 130.32 72.4069 128.298C72.3414 128.169 72.2656 128.37 72.242 128.382C72.583 131.823 72.5875 135.272 73.1172 138.676C72.8669 138.183 72.6226 137.703 72.3782 137.222C71.5796 135.652 70.9106 134.015 70.1122 132.474C70.0645 132.381 69.9708 132.546 69.9591 132.552C70.6637 134.23 71.2917 135.931 72.0081 137.602C72.318 138.212 72.5216 138.816 72.8436 139.508L72.5374 139.664C72.1873 139.296 71.8431 138.94 71.5345 138.595C70.2522 137.123 69.0876 135.562 67.7055 134.185C67.6637 134.103 67.5405 134.269 67.6118 134.351C68.7814 135.718 69.7921 137.21 70.8202 138.619C70.9811 138.936 71.254 139.21 71.4856 139.491C69.4714 138.066 67.4573 136.642 65.3198 135.354C65.284 135.283 65.1077 135.462 65.2086 135.573C67.3648 137.072 69.3981 138.797 71.5251 140.356C70.609 140.158 69.699 140.001 68.8241 139.767C66.9441 139.248 65.1583 138.681 63.3019 138.15C63.3019 138.15 63.1668 138.292 63.2377 138.315C65.0594 138.982 66.8223 139.708 68.6789 140.269C68.8858 140.326 70.2512 140.649 71.4864 140.921C71.4665 140.967 71.4509 141.014 71.4399 141.063C68.6984 140.657 65.8524 140.629 63.1291 140.318C63.1291 140.318 63.0059 140.483 63.0769 140.506C65.677 140.984 68.3062 141.373 70.9353 141.732C70.597 141.783 70.2561 141.814 69.9143 141.824C68.3692 142.016 66.8106 142.073 65.2566 141.994C65.1977 142.024 65.0921 142.166 65.1749 142.183C66.3917 142.418 67.6327 142.51 68.8722 142.457C69.6634 142.467 70.578 142.342 71.4575 142.293C71.5171 142.41 71.5178 142.557 71.5538 142.686C68.9832 143.462 66.519 144.243 63.9713 144.86C63.9124 144.89 63.8776 145.026 63.9484 145.019C66.5145 144.555 69.0542 143.953 71.5563 143.216C70.597 143.866 69.6856 144.669 68.7854 145.318C66.9906 146.6 65.2375 147.934 63.4606 149.25C63.4606 149.25 63.4024 149.427 63.5142 149.356C66.357 147.453 69.1521 145.456 72.0126 143.559L70.7323 145.007C69.916 145.938 69.1234 146.887 68.3487 147.871C67.8738 148.712 67.249 149.459 66.5052 150.077C66.4463 150.107 66.4116 150.272 66.5 150.242C66.9065 150.026 67.2585 149.721 67.5291 149.35C68.4162 148.412 69.2856 147.468 70.1727 146.53C71.0598 145.593 71.8119 144.827 72.6107 143.948C72.6963 143.986 72.7854 144.015 72.8768 144.034C71.0091 147.359 69.4019 150.846 67.315 154.031C67.2443 154.067 67.3217 154.19 67.3627 154.125C69.6326 150.95 71.3695 147.426 73.3789 144.089C73.2158 144.555 73.0527 145.022 72.9191 145.488C72.6348 146.882 72.2647 148.257 71.8108 149.606C71.77 149.701 71.8943 149.77 71.9234 149.682C72.4317 148.474 72.8443 147.228 73.1575 145.957C73.2856 145.567 73.4373 145.195 73.5949 144.805C73.6015 144.903 73.602 145.001 73.5963 145.099C73.5841 146.271 73.6132 147.436 73.5951 148.596C73.551 150.521 73.8554 152.461 73.7878 154.398C73.7707 154.54 73.9237 154.432 73.9291 154.326C74.1216 152.576 73.9891 150.77 74.0811 148.998C74.1634 147.673 74.328 146.276 74.3983 144.898C75.0447 148.006 76.0041 151.118 76.9156 154.106C76.9693 154.211 77.0452 154.04 77.057 154.034C76.2377 150.586 75.4893 147.131 74.7467 143.659L74.8174 143.623C76.8261 146.407 78.8703 149.173 80.62 152.119C80.6617 152.201 80.7614 152.047 80.7496 152.053C79.6828 149.955 78.3629 148.001 77.0547 146.04C76.5313 145.244 76.014 144.46 75.4553 143.682C75.3898 143.553 75.3182 143.412 75.2527 143.284C75.4836 143.417 75.7087 143.568 75.9336 143.69C76.9576 144.246 77.9936 144.825 78.9941 145.393C78.9941 145.393 79.1473 145.315 79.076 145.234C78.2111 144.611 77.3227 144.031 76.4519 143.426C76.1498 143.211 75.8242 143.037 75.5045 142.846C76.0723 143.059 76.6637 143.259 77.196 143.461C78.5791 144.128 80.0228 144.663 81.5077 145.059C81.5077 145.059 81.6727 144.975 81.5719 144.894C80.2613 144.436 78.9877 143.881 77.7617 143.232L75.9925 142.406C77.6608 142.735 79.3475 142.966 81.0438 143.097C81.0438 143.097 81.1788 142.925 81.102 142.92C79.6539 142.58 78.1822 142.251 76.7165 141.934C79.9017 141.288 82.9852 140.355 86.161 140.215C86.2435 140.173 86.3251 139.955 86.2011 139.944Z" fill="#8F9194"/>
</g>
<path d="M158.119 95.9397C158.206 95.6152 157.858 95.6006 157.759 95.8723C156.658 99.0429 155.991 104.058 157.571 107.429C156.473 107.382 155.378 107.576 154.362 107.999C154.384 107.937 154.382 107.87 154.355 107.81C154.214 107.474 154.049 107.149 153.861 106.838C152.994 104.621 152.512 102.273 152.434 99.8924C152.381 99.7869 152.298 99.8288 152.293 99.9643L152.242 100.359C152.17 100.409 152.118 100.482 152.095 100.566C151.937 101.829 151.909 103.103 152.013 104.37L152.097 104.71C152.114 104.731 152.126 104.755 152.133 104.781C152.242 105.633 152.44 106.472 152.723 107.283C152.736 107.379 152.741 107.475 152.736 107.571C152.857 107.902 152.996 108.225 153.154 108.539L152.895 108.671C152.704 108.296 152.514 107.921 152.299 107.499C151.804 106.599 151.41 105.647 151.123 104.66C151.033 104.484 150.863 104.792 150.828 104.81C150.785 106.075 150.965 107.336 151.359 108.537C151.502 108.818 151.563 109.171 151.677 109.482C151.223 109.786 150.782 110.084 150.376 110.394C149.955 109.974 149.493 109.59 149.06 109.175C148.238 108.421 147.552 107.534 147.028 106.55C146.879 106.257 146.569 106.784 146.658 106.96C147.35 108.474 148.375 109.813 149.658 110.877L149.529 110.943C146.78 113.215 144.766 116.246 143.742 119.653C143.322 119.527 142.909 119.413 142.5 119.252C141.157 118.784 139.842 118.241 138.56 117.626C138.359 117.522 138.149 118.013 138.356 118.129C139.588 118.83 140.936 119.354 142.238 119.931C142.64 120.11 143.078 120.3 143.504 120.467C143.313 121.205 143.169 121.953 143.072 122.708C142.992 123.28 142.941 123.88 142.903 124.475C140.825 124.608 138.762 124.922 136.737 125.412C136.573 125.496 136.439 125.904 136.639 125.861C138.69 125.451 140.77 125.202 142.859 125.117C142.825 126.257 142.908 127.396 143.105 128.517C142.952 128.595 142.799 128.673 142.61 128.681C142.164 128.817 141.701 128.889 141.235 128.893C141.058 128.895 140.924 129.331 141.143 129.353C141.858 129.367 142.57 129.241 143.237 128.981C143.294 129.267 143.36 129.543 143.436 129.81C141.617 130.449 139.977 131.515 138.656 132.918C138.504 133.085 138.57 133.478 138.823 133.247C140.176 131.921 141.828 130.939 143.639 130.385C144.045 131.573 144.808 132.607 145.826 133.344C144.386 134.619 143.255 136.203 142.518 137.976C142.395 138.26 142.709 138.351 142.808 138.079C143.651 136.358 144.865 134.844 146.365 133.645C147.467 134.218 148.702 134.495 149.947 134.45C157.774 134.128 164.75 123.559 163.83 116.268C163.413 112.969 162.337 108.811 158.871 107.682C158.486 106.02 157.858 104.436 157.608 102.719C157.331 100.45 157.505 98.1461 158.119 95.9397ZM161.731 113.014C164.863 120.05 159.383 129.681 152.552 132.313C151.39 132.846 150.102 133.039 148.837 132.87C147.573 132.701 146.384 132.176 145.409 131.358C145.471 131.242 145.497 131.111 145.484 130.981L145.34 130.523C147.283 130.582 149.042 127.977 150.034 126.661C152.509 123.131 153.95 118.986 154.193 114.693C154.236 113.933 153.898 110.993 153.062 110.194C156.342 108.54 159.851 108.763 161.731 113.014Z" fill="#22292C"/>
<path d="M188.713 77.9645C188.222 78.4491 187.629 78.8166 186.976 79.0393C186.661 77.2169 185.667 75.5834 184.191 74.4665C184.176 73.9633 184.198 73.4595 184.255 72.9591C184.407 72.1986 184.641 71.4564 184.953 70.7455C185.117 70.3674 184.709 70.265 184.58 70.5958C184.157 71.4276 183.826 72.303 183.595 73.2062C183.519 73.5046 183.465 73.8081 183.434 74.1141C182.73 73.8664 181.976 73.7942 181.236 73.9039C181.147 73.6608 181.075 73.4116 181.02 73.1582C181.006 72.6551 180.954 72.1539 180.866 71.6586L179.09 66.971C178.971 66.7366 178.713 67.1627 178.749 67.2919C179.478 69.1481 179.967 71.0901 180.205 73.0712C180.219 73.389 180.238 73.7479 180.287 74.1065L180.11 74.1964C179.482 74.3894 178.892 74.6893 178.367 75.0829C178.289 74.9305 178.141 74.8435 178.034 74.7209C176.991 73.6892 176.06 72.5511 175.255 71.3253C175.082 70.9854 174.713 71.6009 174.815 71.8001C175.389 72.8078 176.083 73.7424 176.882 74.5838C177.161 74.8992 177.441 75.2735 177.714 75.6361C176.387 77.273 175.67 79.3164 175.687 81.4166C175.497 81.3653 175.297 81.3494 175.113 81.3098C174.774 81.2525 174.446 81.1401 174.143 80.977C174.007 80.9134 173.873 81.2325 174.003 81.3137C174.294 81.5003 174.611 81.6423 174.944 81.7351C175.18 81.8228 175.421 81.8973 175.665 81.9584C175.663 82.6236 175.689 83.2885 175.74 83.9414C175.73 84.3006 175.731 84.6537 175.739 85.0186C175.202 85.1882 174.466 85.4301 174.027 85.1514C173.838 85.0412 173.622 85.5199 173.782 85.6304C174.213 85.8449 174.708 85.897 175.176 85.777C175.378 85.7558 175.579 85.7226 175.778 85.6776C175.808 86.2672 175.874 86.8544 175.975 87.4358L175.068 87.8971C174.238 88.4224 173.627 89.2048 172.797 89.7301C172.656 89.8019 172.599 90.2733 172.823 90.1595C173.742 89.6923 174.476 88.95 175.401 88.4945C175.649 88.3688 175.884 88.249 176.096 88.1411C176.356 89.3002 176.838 90.3974 177.517 91.372C177.615 91.5125 177.726 91.6436 177.849 91.7635C177.497 92.1595 177.081 92.4953 176.62 92.7573C176.478 92.8292 176.439 93.2475 176.639 93.1456C177.205 92.8688 177.717 92.4935 178.152 92.0375C178.386 92.2189 178.643 92.3709 178.915 92.4899C178.309 93.0016 177.77 93.5879 177.312 94.2346C176.561 95.5523 175.952 96.9447 175.495 98.3887C175.396 98.6603 175.674 98.7403 175.773 98.4981C176.346 97.3217 177.032 96.2502 177.652 95.1087C178.273 93.9671 179.263 93.6406 179.867 92.7582C180.117 92.7945 180.371 92.8042 180.623 92.7868C179.517 94.042 178.841 95.6157 178.696 97.2774C178.685 97.4894 178.921 97.3696 178.908 97.1696C179.164 95.2249 180.499 94.03 181.602 92.5545C182.312 92.3338 182.959 91.9443 183.486 91.4196C184.941 89.8709 186.025 88.0133 186.655 85.988C187.033 86.1495 187.435 86.2696 187.79 86.3842C188.309 86.516 188.816 86.6928 189.304 86.9124C189.665 87.0976 190.121 87.4114 190.546 87.2547C190.758 87.1468 190.973 86.6093 190.637 86.5593C190.3 86.5092 189.907 85.9123 189.706 85.7492C189.404 85.5021 189.076 85.2879 188.729 85.1103C188.237 84.8439 187.717 84.6366 187.237 84.3936C187.237 84.3936 187.19 84.2998 187.101 84.3006C187.164 83.9292 187.216 83.5638 187.249 83.1926C187.329 82.1355 187.287 81.0733 187.122 80.0269C187.855 79.5857 188.491 79.0014 188.992 78.3093C189.168 78.1606 189.036 77.579 188.713 77.9645ZM185.274 79.949C185.548 80.8829 185.695 81.8497 185.713 82.8236L185.109 82.6287C184.902 82.5422 184.71 83.0384 184.923 83.1072C185.178 83.2073 185.441 83.2857 185.709 83.3416C185.667 84.6054 185.409 85.8537 184.947 87.0331C184.562 86.8676 184.218 86.6195 183.94 86.3062C183.851 86.1304 183.551 86.5039 183.7 86.7086C184.005 87.0284 184.371 87.2835 184.778 87.4585C184.562 87.9428 184.301 88.4062 183.999 88.8427C183.798 88.6797 183.59 88.5343 183.407 88.377C182.956 88.016 182.517 87.6196 182.044 87.3C181.99 87.1946 181.856 87.4842 181.909 87.5602C182.278 88.0155 182.683 88.441 183.12 88.8328L183.606 89.3524C183.117 89.9265 182.527 90.4065 181.865 90.7687C181.336 91.0985 180.701 91.2157 180.089 91.0965C179.478 90.9772 178.936 90.6305 178.573 90.1266C178.714 89.8487 178.854 89.5708 178.977 89.2872C181.774 86.39 182.108 80.8657 180.072 77.4165C180.156 77.2174 180.184 76.9992 180.152 76.786C180.135 76.656 180.104 76.528 180.062 76.4042C180.91 76.0987 181.837 76.0905 182.689 76.3811C184.102 76.8572 184.831 78.6402 185.227 79.9729L185.274 79.949Z" fill="#22292C"/>
<path d="M67.7423 166.972C67.1377 166.52 66.482 166.141 65.7886 165.841C63.5581 164.866 60.0552 164.509 59.3785 167.493C58.7018 170.477 62.3287 172.1 64.4874 172.875C66.3091 173.542 69.3803 173.75 70.0359 171.308C70.4939 169.526 69.3827 168.011 67.7423 166.972Z" fill="#323A3D"/>
<g style="mix-blend-mode:screen" opacity="0.6">
<path d="M53.1929 72.9001C50.2019 78.4184 46.8507 83.9281 46.332 90.3723C45.7028 98.4068 48.9088 105.907 50.8106 113.555C51.948 118.095 52.4296 122.57 50.7089 127.029C49.3092 130.691 47.5186 134.109 45.8527 137.656C45.1707 139.062 44.5742 140.509 44.0664 141.986C42.9612 144.129 42.4295 146.519 42.5228 148.922C42.7753 153.647 47.2114 159.076 50.7202 161.924C50.9217 162.087 51.1443 161.708 51.0312 161.515C48.9062 158.216 47.1848 154.674 45.9037 150.964C44.7643 147.237 45.4934 144.093 46.9409 140.554C50.1453 132.715 54.5542 124.882 53.3851 116.11C52.3583 108.726 49.0728 101.885 48.0814 94.4833C47.0941 86.7102 50.2087 79.8605 53.3174 72.9991C53.3696 72.8103 53.31 72.6931 53.1929 72.9001Z" fill="#B3E4FA"/>
</g>
<g style="mix-blend-mode:screen" opacity="0.6">
<path d="M151.735 60.5845C151.722 60.3668 151.691 60.1506 151.644 59.9378C151.627 59.9172 151.615 59.8932 151.608 59.8674C151.529 59.3913 151.241 58.3873 150.673 58.2334L150.461 58.194C150.239 58.0672 149.985 58.0075 149.729 58.0223C149.473 58.0371 149.227 58.1257 149.02 58.2773C148.579 58.6073 148.258 59.0734 148.109 59.6028C147.96 60.1323 147.99 60.6954 148.196 61.2042C148.459 61.9452 148.963 62.5767 149.627 62.9988C150.616 63.6317 151.443 62.4 151.64 61.5624C151.688 61.3716 151.713 61.1757 151.714 60.979C151.7 60.9418 151.682 60.9063 151.66 60.8736L151.735 60.5845Z" fill="#668392"/>
</g>
<g style="mix-blend-mode:screen" opacity="0.6">
<path d="M155.936 63.7143C155.852 63.6864 155.762 63.6813 155.675 63.6997C155.588 63.718 155.507 63.7591 155.441 63.8187C155.12 64.1026 154.891 64.4758 154.785 64.8899C154.599 65.1326 154.489 65.4244 154.47 65.7285C154.481 65.909 154.529 66.085 154.612 66.2457C154.694 66.4063 154.809 66.5482 154.949 66.6624C155.09 66.7766 155.252 66.8607 155.426 66.9094C155.601 66.9581 155.784 66.9705 155.963 66.9456C156.712 66.7566 156.962 65.8479 156.9 65.1715C156.865 64.8698 156.76 64.5806 156.593 64.3275C156.426 64.0743 156.201 63.8642 155.936 63.7143Z" fill="#668392"/>
</g>
<g style="mix-blend-mode:screen" opacity="0.6">
<path d="M158.062 54.9779C158.015 54.9595 157.965 54.9499 157.914 54.9497C157.914 54.9497 157.872 54.8677 157.86 54.8443C157.753 54.6333 157.529 54.6882 157.388 54.8484C157.316 54.9229 157.262 55.0126 157.23 55.1108C157.198 55.2089 157.188 55.313 157.202 55.4151C157.105 55.6297 157.061 55.8644 157.075 56.0991C157.098 56.1562 157.126 56.2111 157.159 56.2632C157.208 56.7689 157.769 56.764 158.027 56.4262C158.205 56.2136 158.326 55.9592 158.378 55.6873C158.347 55.4521 158.346 55.0695 158.062 54.9779Z" fill="#668392"/>
</g>
<g style="mix-blend-mode:screen" opacity="0.6">
<path d="M61.6312 111.888C60.2142 110.647 58.7999 112.472 58.4458 113.758C58.2449 114.69 58.2889 115.656 58.5736 116.563C58.8582 117.471 59.3739 118.288 60.0703 118.936C60.2204 119.036 60.3898 119.105 60.5678 119.137C60.7459 119.169 60.9288 119.164 61.1053 119.123C61.2818 119.082 61.448 119.005 61.5936 118.897C61.7392 118.789 61.8611 118.652 61.9517 118.496C62.591 117.816 62.9875 116.945 63.0795 116.019C63.1502 115.266 63.0575 114.507 62.8076 113.794C62.5576 113.082 62.1564 112.431 61.6312 111.888Z" fill="#668392"/>
</g>
<g style="mix-blend-mode:screen" opacity="0.6">
<path d="M65.7315 108.784L65.543 108.88C65.4804 108.911 65.4291 108.961 65.3965 109.023C65.3639 109.084 65.3517 109.154 65.3616 109.223C65.4309 109.373 65.4813 109.531 65.5114 109.693C65.4543 110.105 65.92 109.942 66.0073 109.677C66.0644 109.554 66.0942 109.42 66.0946 109.285C66.095 109.15 66.066 109.016 66.0095 108.894C65.9986 108.868 65.9827 108.845 65.9628 108.826C65.9429 108.807 65.9194 108.792 65.8935 108.781C65.8677 108.771 65.8401 108.766 65.8123 108.767C65.7845 108.767 65.757 108.773 65.7315 108.784Z" fill="#668392"/>
</g>
<g style="mix-blend-mode:screen" opacity="0.6">
<path d="M68.9373 116.197C68.8565 116.138 68.7579 116.107 68.6573 116.11C68.5567 116.113 68.4598 116.15 68.3823 116.214C68.1543 116.376 67.967 116.589 67.835 116.835C67.7029 117.082 67.6299 117.355 67.6215 117.634C67.2732 118.902 67.689 120.682 68.8701 120.731C70.0512 120.779 69.9727 119.167 69.8869 118.502C69.8482 117.646 69.5125 116.832 68.9373 116.197Z" fill="#668392"/>
</g>
<path d="M91.4947 163.154C90.9313 163.843 90.5594 164.666 90.4163 165.542C90.2732 166.417 90.3641 167.314 90.6798 168.141C90.8691 168.471 91.1662 168.725 91.5215 168.861C91.8768 168.997 92.2688 169.007 92.6318 168.89C93.0514 168.727 93.4281 168.47 93.7323 168.138L93.9679 168.018C94.5993 167.442 95.054 166.7 95.2791 165.878C95.5042 165.056 95.4903 164.187 95.239 163.375C94.5332 161.432 92.6511 161.726 91.4947 163.154Z" fill="#22292C"/>
<path d="M96.4159 156.33C96.4089 156.262 96.3771 156.199 96.3265 156.154C95.6702 155.942 95.2331 157.152 95.1821 157.606C95.1311 158.06 95.3068 159.018 96.0084 158.794C96.4682 158.648 96.5838 158.118 96.6881 157.71C96.7809 157.36 96.7973 156.995 96.7362 156.639C96.7096 156.566 96.6671 156.501 96.6116 156.448C96.5562 156.394 96.4893 156.354 96.4159 156.33Z" fill="#22292C"/>
<path d="M91.653 154.223C90.4997 153.792 89.6618 155.147 89.4239 156.05C89.1573 157.043 89.233 158.096 89.6388 159.038C89.6989 159.218 89.8076 159.377 89.953 159.498C90.0984 159.619 90.2748 159.698 90.4627 159.725C90.5649 159.79 90.6854 159.821 90.8065 159.812C90.9276 159.804 91.0429 159.757 91.1356 159.678C91.49 159.438 91.7722 159.106 91.9517 158.718C92.0186 158.593 92.0771 158.465 92.1271 158.333C92.2949 157.894 92.4213 157.439 92.5044 156.976C92.6596 156.086 92.688 154.596 91.653 154.223Z" fill="#22292C"/>
<path d="M176.642 124.962C175.053 123.41 172.059 125.979 171.215 127.264C170.506 128.348 169.698 130.986 170.76 132.024C170.861 132.235 171.002 132.423 171.176 132.58C172.871 134.048 175.011 132.016 175.913 130.672C176.816 129.328 178.167 126.444 176.642 124.962Z" fill="#22292C"/>
<path d="M178.87 116.513L178.74 116.579C178.681 116.503 178.596 116.449 178.502 116.427C178.407 116.405 178.307 116.417 178.22 116.46C177.784 116.717 177.428 117.088 177.188 117.532C176.949 117.976 176.836 118.477 176.862 118.98C176.852 119.309 176.996 119.767 177.403 119.752C177.867 119.67 178.287 119.425 178.586 119.062C178.886 118.699 179.045 118.241 179.035 117.771C179.04 117.583 178.997 117.397 178.908 117.231L179.073 117.147C179.255 116.922 179.234 116.239 178.87 116.513Z" fill="#22292C"/>
<defs>
<radialGradient id="paint0_radial_229_332" cx="0" cy="0" r="1" gradientUnits="userSpaceOnUse" gradientTransform="translate(12.031 -19.9233) rotate(-26.8033) scale(213.05 211.966)">
<stop stop-color="#E3F3FC"/>
<stop offset="0.22" stop-color="#AEB7BD"/>
<stop offset="0.61" stop-color="#8CA4AF"/>
<stop offset="1" stop-color="#393B3D"/>
</radialGradient>
<radialGradient id="paint1_radial_229_332" cx="0" cy="0" r="1" gradientUnits="userSpaceOnUse" gradientTransform="translate(167.498 96.8026) rotate(-26.8033) scale(110.839 110.275)">
<stop stop-color="#E3F3FC"/>
<stop offset="0.22" stop-color="#AEB7BD"/>
<stop offset="0.61" stop-color="#8CA4AF"/>
<stop offset="1" stop-color="#393B3D"/>
</radialGradient>
<radialGradient id="paint2_radial_229_332" cx="0" cy="0" r="1" gradientUnits="userSpaceOnUse" gradientTransform="translate(95.9675 155.902) rotate(-26.8033) scale(37.833 37.6407)">
<stop stop-color="#E3F3FC"/>
<stop offset="0.22" stop-color="#AEB7BD"/>
<stop offset="0.61" stop-color="#8CA4AF"/>
<stop offset="1" stop-color="#393B3D"/>
</radialGradient>
</defs>
</svg>
