<svg width="189" height="75" viewBox="0 0 189 75" fill="none" xmlns="http://www.w3.org/2000/svg">
<path d="M176.271 49.5158C175.6 49.526 174.924 49.4782 174.245 49.4656C172.994 49.4376 171.711 49.5808 170.461 49.6051C168.351 49.6505 157.733 49.6348 154.533 49.5868C150.404 49.5241 146.279 49.638 142.158 49.6537C140.378 49.6603 132.277 49.8937 132.394 49.9241C135.308 50.6598 138.379 50.449 141.361 50.8164C140.973 50.8436 140.583 50.8789 140.193 50.9125C131.779 51.2527 123.247 50.3823 114.801 50.4926C114.659 50.4955 118.774 51.1232 120.763 51.3631C119.131 51.4172 117.465 51.4592 115.839 51.3829C114.244 51.3133 110.968 51.4573 111.097 51.4631C114.147 51.6202 117.201 51.7827 120.237 52.0947C117.631 52.2063 115.017 52.288 112.395 52.34C107.489 52.4383 102.614 52.7476 97.7077 52.8462C93.7188 52.9282 89.5114 52.9287 85.6017 52.0373C81.6686 51.1399 78.6279 49.1885 77.1364 46.5156C73.1862 39.4378 78.3527 30.2015 88.6843 29.1135C92.0786 28.7566 99.2715 29.1533 102.684 29.7745C105.575 30.3001 112.472 32.12 115.309 32.8002C116.428 33.0697 117.547 33.3414 118.665 33.6153C122.249 34.6909 125.898 35.6913 129.317 37.0207C125.514 36.3999 117.838 34.8752 117.963 34.9227C119.5 35.5006 121.147 35.8741 122.786 36.2561C124.637 36.686 126.447 37.2132 128.264 37.7151C129.961 38.1869 131.655 38.6728 133.377 39.0825C134.931 39.4476 136.494 39.7966 138.001 40.2554C133.858 39.9033 122.866 38.5625 123.025 38.5938C123.882 38.7654 124.742 38.9172 125.604 39.0564C128.6 39.5903 131.603 40.1051 134.58 40.6972C138.336 41.4414 142.041 42.3337 145.785 43.1217C151.393 44.3031 157.033 45.4037 162.616 46.6621C156.989 45.9757 145.537 44.7455 145.699 44.7733C152.49 45.9408 159.205 47.4085 166.071 48.2596C169.463 48.6825 172.886 49.0317 176.271 49.5158Z" fill="#ED1C24"/>
<path opacity="0.6" d="M77.8457 39.1063C77.6726 40.4768 77.2082 41.9127 77.7209 43.3086C78.2152 44.6562 78.8323 45.9582 80.0497 47.114C81.4133 48.4152 83.351 49.5683 85.4078 50.2941C86.4707 50.67 87.5554 50.9809 88.656 51.2251C89.5198 51.4159 90.4494 51.4615 91.2972 51.6781C91.3502 51.6904 91.2787 51.7181 91.2461 51.7108C90.2573 51.5283 89.1931 51.5395 88.1852 51.3735C87.0808 51.1875 86.0045 50.8737 84.9699 50.533C82.8122 49.8266 80.9779 48.6633 79.4842 47.3858C76.7164 45.0113 76.7486 41.7736 77.7372 39.0964C77.7473 39.0683 77.8522 39.0656 77.8457 39.1063Z" fill="#F1E10A"/>
<path opacity="0.6" d="M84.2465 31.1715C85.0488 30.9107 85.8797 30.682 86.7003 30.4778C89.9806 29.6618 93.6236 29.3281 97.1962 29.6319C97.2708 29.6382 97.2341 29.6781 97.1785 29.6777C93.7037 29.5561 90.281 29.9814 87.1129 30.7986C85.5668 31.1997 84.033 31.6698 82.6938 32.3221C81.984 32.668 81.3037 33.0311 80.6349 33.4028C81.6441 32.4945 82.8787 31.7799 84.2465 31.1715Z" fill="#F1E10A"/>
<path opacity="0.6" d="M100.599 55.1471C99.2548 55.2551 97.9304 55.431 96.5798 55.5144C95.2643 55.6004 93.8953 55.5715 92.5672 55.5333C89.9313 55.4627 87.219 55.0405 84.7043 54.3937C82.128 53.7366 79.7771 52.7788 77.9366 51.3264C76.1879 49.941 74.7267 48.3075 73.97 46.5666C73.9525 46.5253 74.1063 46.5074 74.1324 46.546C75.9977 49.8798 80.5654 52.5587 85.3219 53.8351C87.6847 54.4701 90.2556 54.9237 92.7393 55.0992C95.3969 55.2841 97.9477 55.1275 100.577 55.0477C100.716 55.0457 100.737 55.134 100.599 55.1471Z" fill="#F1E10A"/>
<path opacity="0.6" d="M76.5126 34.1675C75.9285 35.0838 75.4579 36.0677 75.1112 37.0977C74.7557 37.9403 74.4989 38.7998 74.3744 39.6817C74.3278 40.0455 74.2952 40.4027 74.2795 40.761C74.1958 41.4482 74.17 42.1424 74.3182 42.8325C74.4145 43.276 74.5663 43.7119 74.7357 44.1468C73.9048 42.6531 73.3178 41.1535 73.3589 39.5586C73.4104 37.83 74.1979 36.1466 75.166 34.6103C76.1835 32.9953 77.9779 31.6608 79.8842 30.541C80.3431 30.273 80.815 30.0178 81.302 29.7827C79.2489 30.9703 77.5889 32.4877 76.5126 34.1675Z" fill="#F1E10A"/>
<path opacity="0.6" d="M102.781 28.153C102.112 28.0084 101.422 27.9822 100.742 27.9001C99.9687 27.8089 99.2079 27.6917 98.4274 27.6387C96.909 27.537 95.4008 27.501 93.8834 27.4763C90.9663 27.426 88.0355 27.5726 85.2027 27.9507C85.1053 27.964 84.9109 27.8928 85.0682 27.8457C86.3643 27.4621 87.7329 27.0806 89.154 26.9411C90.7086 26.7896 92.2704 26.8083 93.8502 26.8471C95.5027 26.8866 97.089 27.023 98.7267 27.2181C99.4901 27.3108 100.241 27.5002 100.978 27.6731C101.615 27.822 102.273 27.8858 102.897 28.0727C103.01 28.1066 102.851 28.1674 102.781 28.153Z" fill="#F1E10A"/>
<path opacity="0.6" d="M113.288 52.8717C111.827 52.8812 110.333 53.1611 108.894 53.2999C107.182 53.4595 105.466 53.6181 103.745 53.7636C100.335 54.0507 96.8658 54.2976 93.3846 54.0746C93.1437 54.0578 93.2088 53.9153 93.3995 53.8968C95.0684 53.7357 96.7779 53.7525 98.4643 53.6761C100.201 53.6032 101.933 53.5036 103.66 53.3772C105.381 53.2511 107.104 53.1217 108.833 53.0246C110.291 52.9372 111.822 52.7349 113.295 52.7911C113.403 52.7944 113.382 52.871 113.288 52.8717Z" fill="#F1E10A"/>
<path opacity="0.6" d="M119.345 33.1598C113.804 31.837 108.162 30.802 102.698 29.2925C102.445 29.2241 102.76 29.0932 102.895 29.1019C105.706 29.2779 108.448 30.1047 111.125 30.7509C113.942 31.4367 116.758 32.1587 119.442 33.0908C119.54 33.1243 119.406 33.177 119.345 33.1598Z" fill="#F1E10A"/>
<path opacity="0.6" d="M148.486 41.9206C146.124 41.3232 143.738 40.7798 141.381 40.1756C139.053 39.5764 136.814 38.815 134.561 38.0838C133.212 37.6472 131.875 37.1904 130.543 36.7292C132.708 37.2231 134.849 37.7635 136.982 38.3322C138.519 38.8453 140.059 39.3505 141.628 39.8112C143.948 40.4927 146.281 41.1485 148.599 41.839C148.713 41.8715 148.559 41.9361 148.486 41.9206Z" fill="#F1E10A"/>
<path opacity="0.6" d="M176.132 47.2095C171.36 46.5134 166.587 45.813 161.907 44.7906C159.621 44.2893 157.318 43.8383 155.046 43.3051C152.914 42.8025 150.685 42.2137 148.754 41.3786C148.551 41.2877 148.861 41.2201 148.983 41.2498C157.89 43.5862 167.058 45.414 176.193 47.1486C176.289 47.1661 176.193 47.2135 176.132 47.2095Z" fill="#F1E10A"/>
<path opacity="0.6" d="M160.829 50.4766C162.451 50.5351 164.071 50.5416 165.698 50.6143C166.704 50.6605 167.708 50.6921 168.715 50.7175C170.565 50.8398 172.418 50.9946 174.269 51.1541C173.824 51.1861 173.376 51.2155 172.93 51.2336C170.74 51.3186 168.544 51.3246 166.339 51.2763C164.217 51.2288 162.085 51.2426 159.963 51.1305C158.405 51.0468 156.842 50.9321 155.282 50.817C157.111 50.6073 158.96 50.5041 160.829 50.4766Z" fill="#F1E10A"/>
<path opacity="0.6" d="M157.029 51.907C155.823 51.8609 154.665 52.0365 153.483 52.107C152.128 52.1817 150.779 52.2528 149.418 52.2924C146.617 52.3776 143.82 52.4821 141.016 52.5544C138.241 52.6227 135.462 52.655 132.679 52.6513C129.897 52.6531 127.124 52.4253 124.338 52.2761C124.221 52.2711 124.242 52.1902 124.346 52.191C127.123 52.1727 129.863 51.988 132.643 51.9882C135.487 51.9839 138.334 51.9612 141.171 51.9009C143.931 51.8424 146.694 51.798 149.458 51.8138C150.806 51.8195 152.155 51.8322 153.502 51.8384C154.693 51.8416 155.865 51.7224 157.06 51.8288C157.184 51.8363 157.124 51.9092 157.029 51.907Z" fill="#F1E10A"/>
<path opacity="0.6" d="M137.213 53.1081C136.565 53.0701 135.904 53.1796 135.271 53.2255C134.642 53.272 134.014 53.3407 133.392 53.4133C132.016 53.5724 130.625 53.6923 129.233 53.8039C126.299 54.035 123.352 54.2169 120.409 54.4058C114.71 54.7705 108.94 55.2009 103.181 55.2204C102.985 55.2214 103.039 55.0912 103.193 55.0761C108.982 54.6004 114.794 54.2855 120.609 53.9133C123.552 53.726 126.501 53.5496 129.442 53.3534C130.915 53.2556 132.388 53.1562 133.862 53.0551C134.937 52.9884 136.181 52.8898 137.264 53.0351C137.37 53.051 137.281 53.1125 137.213 53.1081Z" fill="#F1E10A"/>
<path opacity="0.6" d="M188.812 49.4041C187.622 49.213 186.532 48.8133 185.389 48.5153C184.086 48.1744 182.782 47.8398 181.464 47.5356C178.749 46.9031 176.04 46.2527 173.32 45.6288C170.624 45.0181 167.917 44.4414 165.199 43.8986C162.482 43.3511 159.718 43.0273 156.961 42.6249C156.847 42.6102 156.85 42.6939 156.95 42.7119C159.657 43.2806 162.293 43.994 165.007 44.5407C167.787 45.1011 170.559 45.687 173.321 46.2983C176.002 46.8992 178.687 47.4842 181.394 48.0123C182.714 48.2695 184.031 48.5199 185.349 48.7819C186.515 49.0124 187.632 49.359 188.823 49.4894C188.947 49.5026 188.904 49.4213 188.812 49.4041Z" fill="#F1E10A"/>
<path opacity="0.6" d="M150.027 40.6609C149.389 40.5615 148.77 40.3214 148.168 40.1451C147.57 39.9637 146.979 39.7674 146.39 39.5685C145.092 39.1263 143.773 38.7188 142.445 38.3198C139.652 37.4851 136.833 36.694 134.019 35.8971C128.567 34.3523 123.07 32.735 117.473 31.5175C117.284 31.4756 117.299 31.613 117.448 31.6575C122.953 33.3262 128.526 34.8427 134.086 36.4165C136.901 37.2123 139.721 37.9969 142.53 38.8039C143.638 39.12 145.044 39.5266 146.754 40.013C147.782 40.3056 148.966 40.6612 150.056 40.7425C150.165 40.7485 150.094 40.6697 150.027 40.6609Z" fill="#F1E10A"/>
<path opacity="0.6" d="M74.531 30.8723C76.5293 29.2485 78.7262 27.8157 81.493 26.8188C84.5405 25.7207 88.1301 25.2082 91.6229 25.1316C95.3373 25.051 99.4541 26.0044 103.034 26.7788C106.916 27.6205 110.699 28.7527 114.613 29.4979C114.686 29.5104 114.591 29.5999 114.533 29.5898C111.463 29.0994 108.49 28.2498 105.495 27.5432C101.711 26.6529 97.7501 26.1736 93.8257 25.9809C86.3237 25.616 79.7574 27.4469 74.6403 30.926C74.5742 30.9692 74.4577 30.9285 74.531 30.8723Z" fill="#F1E10A"/>
<path opacity="0.6" d="M79.5562 54.3215C79.5481 54.3167 79.54 54.3119 79.5284 54.3058C75.5884 52.2666 72.1735 49.159 71.0438 45.8841C70.5325 44.412 70.2133 42.6842 70.2669 41.2246C70.3244 39.5948 70.8364 37.7845 71.8262 36.3418C71.8546 36.2974 72.0338 36.2565 71.9951 36.3368C70.5385 39.282 70.2463 43.2021 71.9803 46.3107C73.8506 49.6589 76.7413 52.4296 81.0077 54.4411C85.186 56.4088 89.9446 56.9744 94.7238 57.4563C99.717 57.9571 104.702 57.7683 109.663 57.607C109.755 57.6031 109.673 57.7136 109.608 57.7149C104.132 57.9783 98.6644 58.0556 93.1423 57.5744C88.4536 57.1699 83.5103 56.3545 79.5562 54.3215Z" fill="#F1E10A"/>
<path opacity="0.6" d="M102.006 50.0626C102.744 50.174 103.484 50.2791 104.221 50.3679C105.919 50.5781 107.823 50.522 109.533 50.8148C108.388 50.9479 107.271 51.1543 106.155 51.3586C99.8575 51.4963 93.5998 51.8663 87.278 50.7834C84.0889 50.2354 80.8603 49.2076 78.7904 47.3494C76.7789 45.5447 76.1762 43.5425 76.0682 41.3597C75.8586 37.206 79.104 33.4469 84.0623 31.4307C86.5134 30.4395 90.1293 29.89 93.0216 29.8658C94.5972 29.8497 96.4072 29.8988 98.1652 30.1074C99.9761 30.2512 101.785 30.5308 103.364 31.0022C103.649 31.0893 103.277 31.3578 103.111 31.3707C101.545 31.4969 99.9556 31.4086 98.3848 31.5712C97.0607 31.7078 95.7144 31.8761 94.4279 32.1355C95.3289 32.037 96.2192 31.9038 97.1478 31.8871C98.7011 31.8586 100.245 31.9129 101.801 32.0166C104.762 32.2126 108.052 32.5052 110.842 33.3733C111.164 33.4751 110.733 33.7518 110.563 33.7764C109.331 33.9636 107.729 33.722 106.441 33.7336C105.081 33.7461 103.492 33.7972 102.012 33.9673C103.664 33.9495 105.299 33.9582 106.983 34.1255C109.279 34.3525 111.605 34.7382 113.865 35.1439C116.189 35.5591 118.464 36.1159 120.765 36.6031C122.066 36.8749 123.992 37.0799 124.995 37.8068C125.185 37.9434 124.849 38.1242 124.691 38.1532C123.478 38.3697 121.685 38.0456 120.427 38.0036C117.985 37.92 115.545 38.0106 113.137 38.1775C112.925 38.1929 112.715 38.2141 112.504 38.232C112.826 38.2756 113.147 38.3205 113.469 38.3667C116.664 38.8509 119.868 39.646 123.007 40.3182C126.646 41.095 130.262 41.9467 133.854 42.844C135.608 43.2827 137.359 43.726 139.091 44.2094C140.051 44.4755 141.356 44.6912 142.125 45.2054C142.351 45.3563 141.95 45.5656 141.78 45.5946C140.931 45.7567 140.104 45.7043 139.21 45.626C137.881 45.5127 136.516 45.5693 135.19 45.5799C132.175 45.6106 129.199 45.7347 126.169 45.6002C124.992 45.5486 123.816 45.4697 122.639 45.3868C123.595 45.5347 124.553 45.6805 125.514 45.8178C126.84 46.0068 128.651 46.0096 129.832 46.5366C129.957 46.5904 129.931 46.6974 129.85 46.7625C129.251 47.255 127.764 47.0494 126.928 47.0221C125.387 46.9749 123.846 47.0136 122.308 47.0858C125.021 47.3516 127.768 47.6414 130.456 48.0086C129.312 48.1116 128.178 48.2481 127.041 48.3804C125.453 48.3545 123.844 48.2794 122.304 48.3073C120.897 48.3321 119.497 48.3685 118.103 48.4165C119.256 48.5211 120.407 48.6272 121.557 48.7348C122.92 48.8633 124.446 48.8811 125.802 49.1781C122.97 49.3878 120.113 49.5141 117.276 49.7081C115.052 49.7913 112.853 49.957 110.627 50.0903C107.85 50.2537 105.275 50.2105 102.469 50.0836C102.316 50.0732 102.16 50.0734 102.006 50.0626Z" fill="#F3E235"/>
<g style="mix-blend-mode:screen">
<path d="M87.0181 49.2497C83.3983 48.7346 80.7257 47.1373 78.9356 44.9075C78.5047 44.3712 78.1831 43.7556 77.9891 43.0955C77.9878 43.2195 77.9776 43.3433 77.9586 43.4659C77.9549 43.507 77.8125 43.5628 77.8114 43.4982C77.7709 42.7496 77.4378 42.2108 77.5468 41.4557C77.6927 40.4761 77.9643 39.5156 78.2594 38.5594C78.4546 37.9232 78.734 37.3159 79.0901 36.7537C79.4023 36.1854 79.7846 35.6586 80.2281 35.1856C82.5998 33.5266 85.3849 32.1453 88.4797 31.5935C89.695 31.5196 90.9152 31.5053 92.131 31.5996C90.0502 31.9551 87.8168 33.0444 86.2351 34.2538C87.7451 33.5542 89.5461 33.0628 91.2107 32.7476C91.3583 32.7185 91.5137 32.6915 91.6682 32.6674C94.2758 32.3828 97.0571 32.7538 99.6864 33.4381C97.9137 33.6087 96.2169 33.7947 94.4699 34.1767C92.4426 34.6179 89.7521 35.2935 88.0685 36.3169C88.601 36.1799 89.1061 35.9971 89.6569 35.883C90.6558 35.672 91.6719 35.4978 92.6992 35.3548C95.1643 35.0088 97.7001 35.1726 100.216 35.4535C100.338 35.4683 100.455 35.4811 100.576 35.496C104.504 36.289 108.346 37.2709 111.955 38.6585C111.897 38.6852 111.834 38.6989 111.771 38.6984C110.134 38.6208 108.6 38.4316 106.958 38.523C105.558 38.6009 103.952 38.8525 102.546 38.7947C102.222 38.7818 101.668 38.8917 101.48 38.8692C102.306 38.9685 103.201 38.9037 104.032 38.9304C105.726 38.9824 107.472 39.195 109.147 39.4384C112.255 39.894 115.368 40.6132 118.325 41.4662C119.071 41.6815 122.912 42.4006 123.126 43.1057C123.155 43.1979 123.104 43.295 122.999 43.3515C122.147 43.8203 120.35 43.7892 119.309 43.8821C116.55 44.1255 113.821 44.4294 111.076 44.7237C109.382 44.9075 107.674 45.0274 105.961 45.1089C106.065 45.1186 106.17 45.1299 106.274 45.1414C107.409 45.2631 108.55 45.5015 109.671 45.6943C110.873 45.9029 112.135 45.9941 113.299 46.304C113.422 46.3368 113.444 46.3971 113.414 46.4641C112.683 46.6882 111.927 46.8662 111.154 47.0226C110.054 47.0988 108.895 47.0882 107.899 47.1503C105.315 47.3037 102.747 47.5152 100.137 47.555C98.0945 47.5853 96.0491 47.4734 94.0056 47.2872C95.6861 47.808 97.3648 48.3139 99.0264 48.8612C98.3506 49.0267 97.6778 49.201 97.0062 49.3764C96.0863 49.4806 95.1638 49.5756 94.2386 49.6617C91.8297 49.7077 89.3972 49.5855 87.0181 49.2497Z" fill="#EAC076"/>
</g>
<g style="mix-blend-mode:screen">
<path d="M80.7546 45.8718C79.3421 44.4301 78.5368 42.64 78.6144 40.949C78.6483 40.6319 78.6978 40.325 78.75 40.037C78.798 39.772 78.8631 39.5108 78.9362 39.2532C79.2455 38.2485 79.7484 37.2925 80.445 36.3942C80.6898 36.0966 80.9528 35.8145 81.2326 35.5495C81.7547 35.0611 82.3911 34.623 83.0563 34.2246C81.1691 35.6288 79.9255 37.5778 79.7395 39.3992C79.5516 41.2734 79.9412 43.2763 81.3183 44.9978C82.0055 46.0091 82.981 46.9204 84.2715 47.6428C84.3239 47.6732 84.2143 47.7513 84.1616 47.7282C83.1028 47.2522 81.8802 46.6647 80.8714 45.9821C80.8339 45.9461 80.7928 45.9103 80.7546 45.8718Z" fill="#E7F6FD"/>
</g>
<path d="M69.7019 47.0548L69.9709 43.8466C69.9709 43.8466 74.6241 41.2248 81.2811 41.9406C81.2811 41.9406 81.8752 43.8001 81.6253 46.4319C81.4388 49.0675 80.5459 50.8035 80.5459 50.8035C73.8631 50.4111 69.7019 47.0548 69.7019 47.0548Z" fill="#626467"/>
<path d="M72.6429 48.793C70.7524 47.9 69.7019 47.0547 69.7019 47.0547L69.971 43.8464C69.971 43.8464 71.1734 43.1706 73.2302 42.5962C73.3677 43.9815 73.3582 46.1276 72.6429 48.793Z" fill="url(#paint0_linear_216_2041)"/>
<path d="M79.9942 41.8408C80.1739 41.8492 80.3588 41.8618 80.5454 41.8755C80.7063 42.627 80.9175 44.0565 80.7529 46.0146C80.6416 47.3574 80.351 48.9526 79.7521 50.7419C79.5709 50.7229 79.3941 50.7033 79.2176 50.6862C80.7382 46.2044 80.2406 42.9337 79.9942 41.8408Z" fill="#3A3C3F"/>
<path d="M78.2776 41.8282C78.4566 41.8218 78.6385 41.8197 78.8185 41.8175C78.978 42.5924 79.1648 43.9841 79.0103 45.8688C78.9003 47.1902 78.6189 48.7528 78.041 50.5076C77.8628 50.4779 77.6913 50.4426 77.5199 50.4089C78.9292 46.1623 78.5275 43.0222 78.2776 41.8282Z" fill="#3A3C3F"/>
<path d="M74.7319 49.6454C74.5632 49.5856 74.3975 49.5272 74.2376 49.4665C75.2154 46.1705 75.1086 43.6095 74.9068 42.2042C75.0799 42.1732 75.2578 42.14 75.4337 42.1114C75.5529 42.9213 75.6444 44.1012 75.5204 45.5794C75.4242 46.7565 75.1901 48.1248 74.7319 49.6454Z" fill="#3A3C3F"/>
<path d="M76.5874 41.9515C76.76 41.9309 76.9374 41.9128 77.1195 41.8971C77.2653 42.7016 77.4089 44.0113 77.265 45.7234C77.1597 46.9902 76.8982 48.4781 76.3678 50.1404C76.1951 50.0965 76.0252 50.0505 75.8594 50.0025C77.079 46.1707 76.8246 43.2752 76.5874 41.9515Z" fill="#3A3C3F"/>
<path d="M73.1294 49.0152C72.9603 48.9406 72.7981 48.865 72.6429 48.7931C73.3592 46.1276 73.3677 43.9818 73.2302 42.5963C73.3968 42.5512 73.5751 42.5044 73.7537 42.459C73.8572 43.4483 73.8657 44.4453 73.7789 45.4363C73.6935 46.4845 73.4954 47.6873 73.1294 49.0152Z" fill="#3A3C3F"/>
<g style="mix-blend-mode:multiply" opacity="0.9">
<path d="M69.7019 47.0549L69.971 43.8466C69.971 43.8466 74.6242 41.2249 81.2812 41.9407C81.2812 41.9407 81.3253 42.0757 81.3808 42.319C79.8418 42.1004 78.2318 42.3622 76.7015 42.4934C75.6922 42.5794 73.2825 42.8462 73.2628 44.3357C73.2409 45.9832 80.0532 46.2017 81.6287 46.3791C81.629 46.3965 81.6278 46.4138 81.6252 46.431C81.4388 49.0665 80.5459 50.8025 80.5459 50.8025C73.8632 50.4112 69.7019 47.0549 69.7019 47.0549Z" fill="#B3B5B8"/>
</g>
<g style="mix-blend-mode:multiply" opacity="0.9">
<path d="M69.7018 47.0549L69.8396 45.4096C73.2394 47.3965 77.2957 48.3925 81.221 48.9022C80.9073 50.0951 80.5459 50.8036 80.5459 50.8036C73.8631 50.4113 69.7018 47.0549 69.7018 47.0549Z" fill="#B3B5B8"/>
</g>
<path d="M70.6192 36.0224L70.8869 32.8158C70.8869 32.8158 75.5417 30.1923 82.1984 30.9079C82.1984 30.9079 82.7928 32.7701 82.5411 35.3997C82.3559 38.0335 81.4619 39.7709 81.4619 39.7709C74.7789 39.3789 70.6192 36.0224 70.6192 36.0224Z" fill="#626467"/>
<path d="M73.5589 37.7628C71.6699 36.8693 70.6192 36.0227 70.6192 36.0227L70.887 32.8162C70.887 32.8162 72.0891 32.1386 74.1465 31.5659C74.2822 32.9499 74.2752 35.0939 73.5589 37.7628Z" fill="url(#paint1_linear_216_2041)"/>
<path d="M80.9118 30.8099C81.0901 30.8172 81.2742 30.8297 81.46 30.8434C81.6241 31.5961 81.8341 33.0255 81.669 34.9839C81.5576 36.3265 81.267 37.9191 80.668 39.7097C80.4879 39.689 80.3114 39.6724 80.1342 39.65C81.6526 35.1706 81.158 31.9011 80.9118 30.8099Z" fill="#3A3C3F"/>
<path d="M79.195 30.7958C79.3712 30.79 79.5536 30.7876 79.7357 30.7854C79.8926 31.5606 80.082 32.952 79.9254 34.8385C79.8152 36.1584 79.5354 37.7207 78.9562 39.4773C78.779 39.4441 78.6079 39.4119 78.4335 39.377C79.8463 35.1299 79.4451 31.9933 79.195 30.7958Z" fill="#3A3C3F"/>
<path d="M75.6492 38.6135C75.4805 38.554 75.3135 38.4955 75.1519 38.4348C76.1325 35.1371 76.0257 32.5761 75.8243 31.1723C75.9952 31.1385 76.173 31.1099 76.3511 31.0782C76.4707 31.8906 76.5605 33.0681 76.4381 34.5489C76.3417 35.7243 76.1061 37.093 75.6492 38.6135Z" fill="#3A3C3F"/>
<path d="M77.5031 30.9196C77.676 30.8991 77.8553 30.8819 78.0379 30.8663C78.1834 31.6709 78.3251 32.9762 78.1833 34.694C78.0777 35.9564 77.8146 37.4458 77.286 39.1096C77.1118 39.0642 76.9432 39.0183 76.7758 38.9689C77.996 35.137 77.7435 32.2444 77.5031 30.9196Z" fill="#3A3C3F"/>
<path d="M74.0453 37.9816C73.8775 37.9083 73.7143 37.8344 73.5589 37.7626C74.2747 35.094 74.2822 32.9499 74.1466 31.5669C74.3146 31.5215 74.49 31.475 74.6698 31.4297C74.7539 32.2007 74.7969 33.2011 74.6984 34.4065C74.609 35.4509 74.411 36.6537 74.0453 37.9816Z" fill="#3A3C3F"/>
<g style="mix-blend-mode:multiply" opacity="0.9">
<path d="M70.6191 36.0224L70.8869 32.8159C70.8869 32.8159 75.5417 30.1924 82.1984 30.908C82.1984 30.908 82.2409 31.0432 82.2979 31.2863C80.759 31.0679 79.1475 31.3297 77.617 31.4581C76.6089 31.5439 74.1984 31.815 74.1802 33.3029C74.1596 34.9503 80.9702 35.1675 82.5446 35.3481C82.5455 35.3655 82.5444 35.3829 82.5411 35.4C82.3559 38.0338 81.462 39.7713 81.462 39.7713C74.7788 39.3789 70.6191 36.0224 70.6191 36.0224Z" fill="#B3B5B8"/>
</g>
<g style="mix-blend-mode:multiply" opacity="0.9">
<path d="M70.6191 36.0227L70.7572 34.3776C74.1554 36.3644 78.2132 37.362 82.1358 37.8669C81.8241 39.0629 81.4612 39.7716 81.4612 39.7716C74.7788 39.3792 70.6191 36.0227 70.6191 36.0227Z" fill="#B3B5B8"/>
</g>
<path d="M55.4363 24.6361C55.4363 24.6361 57.4267 19.732 62.8413 19.8196C68.2558 19.9071 83.9487 29.0718 81.6984 29.484C79.448 29.8962 67.858 29.4592 67.858 29.4592L55.4363 24.6361Z" fill="#008ED0"/>
<g style="mix-blend-mode:multiply">
<path d="M57.4272 23.5185C57.3372 23.6523 57.4504 23.8666 57.6226 23.8221C62.0998 22.7232 66.9536 23.8196 71.3136 24.9893C75.0171 25.9856 78.5947 27.4158 81.8741 29.3997C81.8265 29.4469 81.7645 29.477 81.698 29.4854C79.4457 29.8947 67.8576 29.4606 67.8576 29.4606L55.4363 24.6364C55.4363 24.6364 57.4267 19.7323 62.8412 19.8198C63.1551 19.8281 63.4681 19.8573 63.778 19.9071C61.2712 20.1433 58.9032 21.3231 57.4272 23.5185Z" fill="#008ED0"/>
</g>
<g style="mix-blend-mode:screen">
<path d="M73.0442 24.7251C71.4182 24.0558 69.7652 23.3843 68.2013 22.5729C66.9669 21.9318 65.8802 21.0645 64.7174 20.3095C64.7247 20.3085 64.7322 20.309 64.7383 20.3082C69.0629 21.5337 75.5056 24.9279 78.9121 27.2394C76.9985 26.3196 75.0148 25.5351 73.0442 24.7251Z" fill="white"/>
</g>
<path d="M53.1232 52.4639C53.1232 52.4639 54.2784 57.6288 59.6335 58.4385C64.9886 59.2483 81.9783 52.7981 79.8232 52.0207C77.6682 51.2433 66.1695 49.7599 66.1695 49.7599L53.1232 52.4639Z" fill="#083879"/>
<g style="mix-blend-mode:multiply">
<path d="M79.9949 52.293C79.8522 52.3035 79.7064 52.3143 79.5596 52.3266C78.3389 52.4056 77.1073 52.4307 75.8826 52.4501C73.7148 52.487 71.5492 52.5518 69.3866 52.7246C65.096 53.0653 60.5704 53.4187 56.4644 54.7811C56.3661 54.814 56.3261 54.9562 56.3736 55.0412C57.3668 56.8432 58.9008 57.8747 60.6505 58.5076C60.3103 58.5091 59.9705 58.4861 59.6335 58.439C54.2783 57.6285 53.1232 52.4643 53.1232 52.4643L66.1705 49.7602C66.1705 49.7602 77.673 51.241 79.8232 52.0207C79.9884 52.0794 80.0402 52.1728 79.9949 52.293Z" fill="#008ED0"/>
</g>
<path d="M35.5826 52.1946C28.5216 51.3627 25.7273 50.5266 25.1206 50.3147C18.9481 48.9473 3.57959 36.9841 2.6676 35.9864C1.95399 35.2022 1.96853 34.3802 2.00969 34.056C2.02328 33.7255 2.14279 32.916 2.97873 32.2603C4.03959 31.428 21.1736 22.1666 27.4862 21.8359C28.1216 21.7268 31.0151 21.3646 38.115 21.7076C46.2397 22.1021 66.7103 25.7281 73.2568 30.5379C73.2568 30.5379 73.9324 34.1554 73.2947 39.9819C72.9632 45.8314 71.6981 49.2893 71.6981 49.2893C64.45 52.9509 43.6589 53.1481 35.5826 52.1946Z" fill="#C2C4C6"/>
<path d="M64.1032 37.5143C61.2943 37.1864 58.4425 36.5889 55.5954 36.5445C56.3632 36.3604 57.613 36.2668 59.6472 36.4884C61.5038 36.6908 65.0895 37.3408 68.2304 37.9783C66.8535 37.8235 65.4793 37.677 64.1032 37.5143Z" fill="white"/>
<path d="M2.00971 34.0558C2.0233 33.7253 2.1428 32.9158 2.97874 32.2601C4.01432 31.4515 20.278 22.6501 26.9613 21.8846C27.8532 26.1726 28.1584 31.0567 27.7319 36.195C27.3055 41.3334 26.1982 46.0963 24.6101 50.184C18.1457 48.3219 3.55641 36.957 2.66762 35.9862C1.95387 35.2009 1.96854 34.38 2.00971 34.0558Z" fill="url(#paint2_linear_216_2041)"/>
<path d="M2.00971 34.0558C2.0233 33.7253 2.1428 32.9158 2.97874 32.2601C4.01432 31.4515 20.278 22.6501 26.9613 21.8846C27.8532 26.1726 28.1584 31.0567 27.7319 36.195C27.3055 41.3334 26.1982 46.0963 24.6101 50.184C18.1457 48.3219 3.55641 36.957 2.66762 35.9862C1.95387 35.2009 1.96854 34.38 2.00971 34.0558Z" fill="#FF0026"/>
<path d="M28.349 23.8387C28.4727 23.8491 28.5967 23.8226 28.7054 23.7624C28.814 23.7023 28.9023 23.6113 28.9592 23.5009C29.016 23.3906 29.0389 23.2658 29.0248 23.1425C29.0107 23.0191 28.9604 22.9027 28.8801 22.808C28.7999 22.7133 28.6933 22.6445 28.574 22.6104C28.4546 22.5762 28.3278 22.5783 28.2096 22.6163C28.0914 22.6543 27.9872 22.7265 27.91 22.8237C27.8329 22.921 27.7864 23.039 27.7763 23.1628C27.7628 23.3283 27.8155 23.4925 27.9229 23.6192C28.0303 23.7459 28.1835 23.8249 28.349 23.8387Z" fill="white"/>
<path d="M29.1276 36.962C29.2514 36.9722 29.3753 36.9454 29.4838 36.8852C29.5924 36.8249 29.6806 36.7338 29.7374 36.6234C29.7942 36.5131 29.817 36.3883 29.803 36.265C29.7889 36.1416 29.7387 36.0252 29.6585 35.9304C29.5783 35.8356 29.4719 35.7667 29.3526 35.7324C29.2333 35.698 29.1065 35.6998 28.9882 35.7375C28.87 35.7752 28.7655 35.8471 28.6881 35.9442C28.6107 36.0412 28.5637 36.159 28.5532 36.2827C28.5398 36.4489 28.5927 36.6136 28.7003 36.7409C28.8079 36.8681 28.9616 36.9477 29.1276 36.962Z" fill="white"/>
<path d="M25.9972 49.7553C26.1209 49.7655 26.2448 49.7387 26.3533 49.6784C26.4618 49.6181 26.5499 49.527 26.6066 49.4166C26.6632 49.3061 26.6859 49.1814 26.6717 49.0581C26.6574 48.9348 26.6069 48.8185 26.5266 48.7239C26.4463 48.6293 26.3397 48.5607 26.2203 48.5267C26.101 48.4927 25.9742 48.4949 25.8561 48.5329C25.738 48.571 25.6338 48.6433 25.5568 48.7406C25.4797 48.8379 25.4333 48.9558 25.4233 49.0795C25.4165 49.1616 25.4261 49.2442 25.4513 49.3226C25.4765 49.401 25.5169 49.4736 25.5702 49.5364C25.6235 49.5992 25.6887 49.6508 25.7619 49.6884C25.8352 49.7259 25.9152 49.7487 25.9972 49.7553Z" fill="white"/>
<path d="M28.1851 43.4088C28.3088 43.4195 28.433 43.3933 28.5417 43.3334C28.6505 43.2735 28.7391 43.1826 28.7961 43.0722C28.8532 42.9619 28.8762 42.8371 28.8622 42.7137C28.8482 42.5903 28.7978 42.4738 28.7176 42.379C28.6373 42.2843 28.5306 42.2155 28.4112 42.1814C28.2918 42.1474 28.1649 42.1496 28.0467 42.1878C27.9285 42.2259 27.8244 42.2984 27.7474 42.3959C27.6705 42.4934 27.6242 42.6115 27.6145 42.7353C27.6076 42.8171 27.6169 42.8993 27.6418 42.9775C27.6668 43.0556 27.7069 43.128 27.7599 43.1906C27.8129 43.2532 27.8778 43.3047 27.9507 43.3421C28.0237 43.3795 28.1033 43.4022 28.1851 43.4088Z" fill="white"/>
<path d="M29.2643 30.4423C29.43 30.456 29.5944 30.4033 29.7213 30.2958C29.8482 30.1882 29.9272 30.0347 29.9408 29.869C29.9545 29.7032 29.9018 29.5388 29.7943 29.4119C29.6868 29.285 29.5333 29.206 29.3675 29.1923C29.2855 29.1855 29.2029 29.195 29.1244 29.2201C29.046 29.2453 28.9733 29.2856 28.9105 29.3389C28.8477 29.3921 28.796 29.4572 28.7583 29.5304C28.7206 29.6037 28.6978 29.6836 28.691 29.7657C28.6842 29.8478 28.6937 29.9304 28.7188 30.0088C28.7439 30.0872 28.7843 30.1599 28.8375 30.2228C28.8908 30.2856 28.9559 30.3373 29.0291 30.375C29.1023 30.4127 29.1822 30.4355 29.2643 30.4423Z" fill="white"/>
<g style="mix-blend-mode:screen">
<path d="M60.689 57.9216C60.689 57.9216 70.3389 57.3425 78.1224 53.1157C78.1204 53.116 68.9901 56.4972 60.689 57.9216Z" fill="white"/>
</g>
<g style="mix-blend-mode:screen" opacity="0.7">
<path d="M28.6935 28.9821C28.6846 28.698 28.6698 28.4118 28.6472 28.125C28.5689 27.197 28.399 26.2786 28.2966 25.3508C31.7127 25.0076 35.1491 25.025 38.6347 25.3597C49.865 26.4397 60.6689 29.7388 71.5559 32.5326C71.6023 33.226 71.6358 34.0805 71.6311 35.0709C61.4724 33.2579 51.3953 30.9425 41.1415 29.7221C36.9849 29.2251 32.8457 28.9426 28.6935 28.9821Z" fill="#C9E9EB"/>
</g>
<g style="mix-blend-mode:multiply">
<path d="M35.5826 52.1948C28.5216 51.3629 25.7273 50.5268 25.1206 50.3149C18.9481 48.9476 3.57959 36.9844 2.66761 35.9866C1.954 35.2024 1.96853 34.3805 2.0097 34.0562C2.01052 34.03 2.01306 34.0039 2.0173 33.9781C4.71715 35.361 7.4873 36.6021 10.3165 37.6962C30.0139 45.3158 51.5802 46.767 72.5467 45.9914C72.1275 48.118 71.6985 49.2905 71.6985 49.2905C64.45 52.9511 43.6589 53.1483 35.5826 52.1948Z" fill="#DEDFE0"/>
</g>
<path opacity="0.5" d="M27.0735 27.8059C27.1072 28.2084 27.1169 28.6097 27.1172 29.0105C25.6575 29.053 24.1932 29.1392 22.7243 29.269C17.8764 29.7051 13.0649 30.4638 8.25027 31.1878C12.6144 29.3383 17.0525 27.6123 21.6651 26.4839C23.3291 26.077 25.0136 25.7596 26.7114 25.5328C26.8547 26.287 27.0143 27.0406 27.0735 27.8059Z" fill="#FFF2BB"/>
<defs>
<linearGradient id="paint0_linear_216_2041" x1="66.5459" y1="44.8993" x2="85.108" y2="48.7549" gradientUnits="userSpaceOnUse">
<stop offset="0.46" stop-color="#E5E0DF"/>
<stop offset="1" stop-color="#8CA99C"/>
</linearGradient>
<linearGradient id="paint1_linear_216_2041" x1="67.4946" y1="33.8229" x2="86.0572" y2="37.6788" gradientUnits="userSpaceOnUse">
<stop offset="0.46" stop-color="#E5E0DF"/>
<stop offset="1" stop-color="#8CA99C"/>
</linearGradient>
<linearGradient id="paint2_linear_216_2041" x1="16.5071" y1="11.573" x2="12.4341" y2="59.0554" gradientUnits="userSpaceOnUse">
<stop offset="0.46" stop-color="#E5E0DF"/>
<stop offset="1" stop-color="#8CA99C"/>
</linearGradient>
</defs>
</svg>
