<svg width="1440" height="1698" viewBox="0 0 1440 1698" fill="none" xmlns="http://www.w3.org/2000/svg">
<path d="M306.411 1593.57C310.611 1588.11 314.359 1582.26 318.416 1576.59C325.849 1566.14 334.911 1556.48 342.775 1546.36C356.087 1529.3 421.06 1441.89 440.283 1415.28C465.077 1380.94 491.313 1347.74 516.712 1313.95C527.682 1299.35 579.29 1234.21 578.827 1235.36C567.079 1263.92 546.499 1287.85 531.266 1314.67C533.874 1311.65 536.559 1308.66 539.232 1305.66C593.646 1238.61 638.72 1163.01 691.424 1094.26C692.32 1093.11 672.306 1130.87 662.105 1148.72C672.563 1135.64 683.125 1122.21 692.461 1108.36C701.661 1094.81 722.948 1068.77 722.204 1069.87C704.81 1095.93 687.437 1122.06 671.413 1148.98C688.322 1128.24 705.03 1107.26 721.537 1086.03C752.433 1046.31 784.899 1008.15 815.799 968.431C840.938 936.146 866.738 901.555 883.297 863.835C899.949 825.884 902.363 788.68 889.28 759.704C854.639 682.967 746.151 667.691 673.757 745.837C649.978 771.514 609.175 833.136 593.421 865.075C580.064 892.134 552.912 960.223 541.172 987.805C536.551 998.694 531.952 1009.59 527.375 1020.5C514.348 1056.69 500.29 1092.95 490.387 1129.37C508.536 1094.22 542.924 1021.57 542.552 1022.9C537.936 1039.15 530.943 1055.03 524.069 1070.89C516.293 1088.8 509.585 1106.97 502.616 1125.06C496.137 1141.96 489.792 1158.92 482.639 1175.65C476.145 1190.71 469.467 1205.74 464.042 1221C486.514 1184.74 542.761 1085.97 542.047 1087.47C538.221 1095.59 534.21 1103.61 530.079 1111.57C516.148 1139.55 502.019 1167.46 488.689 1195.64C471.849 1231.17 456.558 1267.21 440.153 1302.92C415.596 1356.42 390.166 1409.68 366.4 1463.45C395.191 1412.9 455.175 1311.04 454.416 1312.54C422.485 1375.69 393.518 1440.08 358.503 1501.85C341.219 1532.39 323.138 1562.71 306.411 1593.57Z" fill="#ED1C24"/>
<path opacity="0.6" d="M823.314 719.205C835.773 726.351 850.561 731.512 859.026 744.456C867.202 756.946 874.246 770.162 876.394 787.399C878.854 806.747 876.563 829.89 869.988 851.34C866.598 862.429 862.533 873.292 857.816 883.868C854.106 892.164 848.786 900.092 845.389 908.418C845.166 908.931 845.835 908.516 845.974 908.202C850.519 898.93 857.137 890.251 861.936 880.925C867.161 870.681 871.151 859.87 874.66 849.233C882.015 827.075 883.587 804.719 882.121 784.449C879.345 746.843 852.222 726.863 823.896 718.251C823.601 718.158 822.935 719.004 823.314 719.205Z" fill="#F1E10A"/>
<path opacity="0.6" d="M718.079 722.215C710.99 727.181 703.994 732.582 697.265 738.053C670.366 759.922 645.254 787.788 625.877 819.063C625.472 819.715 626.029 819.663 626.366 819.204C646.66 789.873 671.182 764.391 697.403 743.451C710.218 733.247 723.532 723.575 737.167 716.643C744.395 712.969 751.586 709.647 758.778 706.472C745.037 709.09 731.524 714.773 718.079 722.215Z" fill="#F1E10A"/>
<path opacity="0.6" d="M817.202 1006.59C826.343 996.214 835.926 986.424 844.901 975.84C853.683 965.562 861.835 954.124 869.661 942.966C885.235 920.851 898.354 895.91 908.393 871.189C918.724 845.898 925.173 820.578 924.379 796.364C923.579 773.323 918.954 751.094 909.116 733.986C908.879 733.584 907.788 734.737 907.949 735.193C924.236 771.376 918.509 825.684 899.96 872.775C890.754 896.173 878.764 920.147 864.996 941.667C850.238 964.674 833.297 984.668 816.513 1005.79C815.643 1006.92 816.249 1007.64 817.202 1006.59Z" fill="#F1E10A"/>
<path opacity="0.6" d="M790.413 677.361C801.615 678.288 812.683 680.571 823.374 684.16C832.561 686.507 841.284 689.77 849.382 694.26C852.692 696.152 855.863 698.118 858.939 700.229C865.167 703.837 871.098 707.967 875.929 713.5C879.026 717.065 881.721 721.04 884.298 725.152C876.972 708.979 868.099 694.776 854.584 685.141C839.893 674.755 821.065 670.704 802.353 669.057C782.683 667.325 760.584 673.734 739.583 682.406C734.541 684.503 729.525 686.788 724.584 689.322C747.048 679.867 769.845 675.706 790.413 677.361Z" fill="#F1E10A"/>
<path opacity="0.6" d="M579.339 855.736C582.234 849.335 586.252 843.491 589.734 837.394C593.719 830.462 597.409 823.474 601.754 816.724C610.218 803.604 619.165 790.978 628.264 778.347C645.731 754.048 664.92 730.866 685.433 709.939C686.14 709.221 686.74 707.178 685.384 708.176C674.248 716.435 662.683 725.302 652.81 736.114C642.019 747.949 632.598 760.908 623.235 774.14C613.432 787.974 604.839 801.87 596.421 816.556C592.511 823.412 589.481 830.772 586.402 837.91C583.735 844.078 580.232 849.887 577.957 856.191C577.546 857.333 579.031 856.4 579.339 855.736Z" fill="#F1E10A"/>
<path opacity="0.6" d="M720.483 1096.69C729.522 1084.74 741.006 1074.21 750.985 1063.24C762.812 1050.16 774.65 1037.05 786.41 1023.81C809.705 997.567 833.031 970.583 852.52 940.566C853.858 938.48 852.274 938.124 850.95 939.577C839.378 952.291 829.036 966.453 818.061 979.84C806.804 993.668 795.357 1007.28 783.721 1020.69C772.117 1034.06 760.478 1047.41 749.071 1061.02C739.405 1072.46 728.335 1083.78 719.769 1096.25C719.136 1097.16 719.901 1097.46 720.483 1096.69Z" fill="#F1E10A"/>
<path opacity="0.6" d="M519.417 1023.23C542.387 969.406 568.376 916.538 589.323 862.173C590.304 859.668 587.282 861.444 586.527 862.606C570.755 886.82 560.821 914.533 549.782 940.584C538.215 968.033 526.949 995.708 518.245 1023.6C517.925 1024.61 519.186 1023.84 519.417 1023.23Z" fill="#F1E10A"/>
<path opacity="0.6" d="M413.598 1317.62C423.114 1294.47 433.226 1271.45 442.653 1248.29C451.944 1225.4 459.338 1202.23 467.07 1179.14C471.713 1165.31 476.112 1151.46 480.44 1137.63C471.274 1158.52 462.64 1179.5 454.291 1200.6C449.135 1216.44 443.893 1232.26 438.104 1248.05C429.548 1271.38 420.699 1294.66 412.231 1318.04C411.804 1319.18 413.281 1318.32 413.598 1317.62Z" fill="#F1E10A"/>
<path opacity="0.6" d="M288.081 1578.01C311.551 1534.42 334.991 1490.79 355.181 1445.92C365.028 1423.99 375.4 1402.23 384.898 1380.21C393.789 1359.54 402.558 1337.54 407.45 1316.44C407.94 1314.2 405.477 1316.33 404.976 1317.52C369.795 1405.36 328.783 1492.18 287.202 1578.13C286.757 1579.03 287.74 1578.54 288.081 1578.01Z" fill="#F1E10A"/>
<path opacity="0.6" d="M409.078 1472.61C399.618 1486.31 389.742 1499.67 380.372 1513.5C374.585 1522.07 368.691 1530.52 362.731 1538.95C352.404 1554.93 342.331 1571.13 332.31 1587.35C335.301 1583.89 338.293 1580.39 341.181 1576.84C355.314 1559.36 368.827 1541.35 381.946 1522.91C394.563 1505.17 407.748 1487.72 419.826 1469.58C428.683 1456.24 437.308 1442.68 445.92 1429.13C432.962 1442.85 420.764 1457.41 409.078 1472.61Z" fill="#F1E10A"/>
<path opacity="0.6" d="M444.269 1450.31C451.28 1440.11 459.84 1431.68 467.677 1422.4C476.605 1411.73 485.465 1401.08 494.142 1390.14C512.024 1367.64 530.041 1345.3 547.834 1322.69C565.415 1300.31 582.723 1277.66 599.756 1254.75C616.83 1231.89 631.934 1207.67 647.778 1183.82C648.45 1182.83 647.651 1182.5 647.022 1183.35C629.844 1206.07 611.504 1227.45 594.466 1250.3C576.989 1273.67 559.343 1296.94 541.447 1319.88C524.042 1342.21 506.731 1364.65 489.914 1387.48C481.699 1398.59 473.535 1409.76 465.324 1420.88C458.047 1430.69 449.871 1439.58 443.432 1450.07C442.731 1451.14 443.705 1451.1 444.269 1450.31Z" fill="#F1E10A"/>
<path opacity="0.6" d="M575.761 1294.89C579.414 1289.33 584.38 1284.57 588.644 1279.65C592.888 1274.77 597.306 1270.05 601.724 1265.38C611.485 1255.06 621.009 1244.38 630.471 1233.63C650.384 1210.95 669.965 1187.86 689.578 1164.84C727.559 1120.26 766.511 1075.51 801.982 1028.28C803.197 1026.67 801.78 1026.31 800.709 1027.48C761.264 1072.1 723.01 1117.92 684.26 1163.4C664.658 1186.43 645.109 1209.58 625.448 1232.53C615.602 1244.03 605.741 1255.52 595.864 1267.01C588.717 1275.43 580.273 1285.04 574.841 1294.85C574.322 1295.82 575.381 1295.47 575.761 1294.89Z" fill="#F1E10A"/>
<path opacity="0.6" d="M228.587 1695.98C234.291 1685.01 237.652 1673.54 242.181 1662.28C247.337 1649.44 252.549 1636.62 258.097 1623.89C269.486 1597.6 280.687 1571.26 292.177 1545C303.627 1519.01 315.428 1493.15 327.579 1467.41C339.686 1441.64 353.937 1416.89 367.498 1391.7C368.07 1390.68 368.751 1391.22 368.285 1392.16C356.421 1417.97 346.19 1444.11 334.095 1469.84C321.709 1496.21 309.59 1522.66 297.739 1549.19C286.298 1574.99 274.696 1600.73 262.492 1626.29C256.54 1638.75 250.548 1651.14 244.645 1663.62C239.41 1674.65 235.448 1686 229.225 1696.61C228.577 1697.71 228.163 1696.85 228.587 1695.98Z" fill="#F1E10A"/>
<path opacity="0.6" d="M393.681 1322.41C396.767 1316.54 398.56 1309.96 400.786 1303.91C402.946 1297.85 404.939 1291.76 406.894 1285.68C411.173 1272.25 415.876 1258.85 420.698 1245.44C430.878 1217.25 441.585 1189.13 452.214 1161C472.791 1106.52 493.048 1051.21 517.24 997.572C518.05 995.757 519.097 996.745 518.554 998.247C498.677 1053.95 477.119 1109.25 456.118 1164.81C445.482 1192.92 434.715 1221.02 424.201 1249.16C420.038 1260.25 414.801 1274.35 408.358 1291.45C404.488 1301.74 400.189 1313.69 394.178 1323.17C393.561 1324.1 393.341 1323.02 393.681 1322.41Z" fill="#F1E10A"/>
<path opacity="0.6" d="M775.161 640.463C749.404 646.74 724.019 655.844 698.765 672.36C670.948 690.551 644.677 716.861 622.625 745.1C599.18 775.137 581.868 814.947 566.359 849.223C549.556 886.406 535.779 924.588 517.975 961.436C517.635 962.109 518.958 961.892 519.233 961.349C533.976 933.04 545.141 903.282 557.624 874.243C573.426 837.555 593.723 801.995 616.181 768.523C659.144 704.557 714.63 662.017 774.937 641.698C775.701 641.425 776.078 640.212 775.161 640.463Z" fill="#F1E10A"/>
<path opacity="0.6" d="M939.357 828.409C939.367 828.313 939.377 828.216 939.397 828.082C946.596 782.935 941.69 735.424 921.382 705.658C912.274 692.249 899.862 678.821 887.395 670.134C873.49 660.416 855.295 653.306 837.228 652.424C836.685 652.379 835.247 653.597 836.151 653.781C869.575 660.22 903.967 682.33 919.187 716.025C935.564 752.341 940.883 793.434 931.452 841.091C922.198 887.749 897.725 930.413 872.43 972.722C845.98 1016.91 813.845 1056.72 782.089 1096.5C781.49 1097.23 782.915 1097.24 783.322 1096.72C819.088 1053.34 853.254 1008.87 883.109 960.457C908.493 919.376 932.02 873.633 939.357 828.409Z" fill="#F1E10A"/>
<path opacity="0.6" d="M766.293 986.37C762.697 993.131 759.036 999.869 755.255 1006.49C746.589 1021.77 734.45 1037.07 726.403 1052.96C734.526 1044.38 743.094 1036.48 751.637 1028.58C791.391 977.666 832.835 928.528 862.591 869.777C877.586 840.129 888.835 807.156 886.073 778.517C883.397 750.693 870.442 733.218 852.952 718.681C819.693 690.984 768.533 694.163 721.365 722.324C698.094 736.279 671.354 762.574 653.419 786.203C643.625 799.058 632.936 814.247 623.892 830.007C613.985 845.795 605.221 862.414 599.458 878.346C598.436 881.234 602.948 879.857 604.076 878.568C614.724 866.486 623.735 852.863 634.719 840.965C643.973 830.932 653.627 820.915 663.673 811.959C657.33 818.751 650.762 825.239 644.93 832.769C635.169 845.363 626.157 858.394 617.478 871.838C600.955 897.407 583.212 926.294 573.327 954.66C572.198 957.945 577.145 956.127 578.391 954.885C587.497 945.931 595.311 931.246 603.307 920.727C611.749 909.623 621.918 896.875 632.406 885.771C622.128 899.244 612.174 912.744 603.246 927.63C591.051 947.934 579.997 969.471 569.517 990.587C558.722 1012.29 549.401 1034.48 539.346 1056.45C533.628 1068.84 523.525 1085.96 523.419 1098.75C523.392 1101.17 526.955 1099.54 528.166 1098.42C537.401 1089.8 545.701 1073.03 553.064 1062.42C567.346 1041.82 583.058 1022.32 599.211 1003.57C600.635 1001.93 602.099 1000.33 603.542 998.707C601.934 1001.62 600.336 1004.55 598.748 1007.48C583.186 1036.78 570.149 1068.1 556.498 1098.11C540.647 1132.88 525.557 1167.94 510.995 1203.09C503.891 1220.25 496.843 1237.42 490.239 1254.69C486.568 1264.24 480.358 1276.33 479.923 1285.86C479.792 1288.66 483.99 1286.67 485.275 1285.46C491.828 1279.49 496.463 1272.36 501.289 1264.53C508.498 1252.89 517.336 1242.02 525.553 1231.19C544.297 1206.58 563.573 1182.89 581.037 1157.13C587.824 1147.14 594.377 1136.97 600.901 1126.78C596.272 1135.56 591.61 1144.35 586.864 1153.11C580.305 1165.19 569.223 1180.1 566.363 1193.11C566.046 1194.47 567.093 1194.93 568.134 1194.67C575.898 1192.83 583.309 1179.31 588.205 1172.27C597.261 1159.3 607.032 1146.87 617.065 1134.68C602.638 1158.65 588.207 1183.05 574.778 1207.45C582.647 1198.69 590.739 1190.21 598.809 1181.69C608.328 1168.48 617.572 1154.77 627.247 1142.28C636.078 1130.87 644.965 1119.59 653.908 1108.43C647.712 1118.56 641.536 1128.69 635.381 1138.82C628.092 1150.83 618.881 1163.49 613.039 1176.49C632.146 1154.52 650.713 1131.82 669.721 1109.71C684.049 1091.94 698.908 1074.9 713.67 1057.42C732.054 1035.61 747.484 1014.17 763.629 990.308C764.485 988.978 765.443 987.697 766.293 986.37Z" fill="#F3E235"/>
<g style="mix-blend-mode:screen">
<path d="M851.428 858.048C869.339 825.065 872.441 793.102 864.873 764.44C863.055 757.544 859.907 751.05 855.608 745.328C856.647 746.092 857.739 746.782 858.875 747.392C859.239 747.619 860.577 746.797 860.046 746.385C854.068 741.37 851.63 735.263 844.683 731.436C835.641 726.511 825.989 722.738 816.227 719.185C809.739 716.812 802.976 715.312 796.118 714.725C789.477 713.738 782.752 713.587 776.099 714.275C747.761 723.402 719.198 737.665 695.633 759.661C687.568 769.191 679.968 779.135 673.298 789.721C689.011 774.835 711.764 763.282 731.52 757.84C716.443 765.881 701.315 777.617 688.487 789.332C687.34 790.364 686.162 791.473 685.015 792.592C666.66 812.253 652.692 837.442 642.262 863.339C654.55 849.831 666.501 837.042 680.389 825.066C696.487 811.156 718.602 793.259 737.435 785.815C733.032 789.337 728.414 792.347 724.089 796.162C716.209 803.057 708.53 810.321 701.043 817.874C683.051 835.979 668.866 857.853 655.775 880.297C655.15 881.392 654.537 882.437 653.921 883.523C636.433 920.779 621.044 958.505 610.458 996.854C611.032 996.548 611.53 996.118 611.915 995.594C621.305 981.651 629.138 967.854 639.963 954.927C649.199 943.897 661.135 932.271 669.273 920.35C671.157 917.6 675.468 913.731 676.433 912.046C672.194 919.458 666.168 926.412 661.295 933.411C651.338 947.669 642.406 963.348 634.154 978.65C618.891 1007.05 605.786 1037.14 594.748 1066.79C591.968 1074.27 574.395 1110.35 578.943 1116.52C579.532 1117.34 580.654 1117.52 581.766 1117.01C590.891 1112.94 601.651 1097.96 608.808 1089.98C627.746 1068.82 647.004 1048.29 666.285 1027.55C678.201 1014.77 689.666 1001.48 700.846 987.911C700.289 988.828 699.743 989.756 699.199 990.685C693.251 1000.78 688.24 1011.65 682.972 1022.07C677.332 1033.26 670.355 1044.21 665.795 1055.72C665.313 1056.94 665.682 1057.49 666.421 1057.66C672.767 1053.06 678.88 1047.95 684.925 1042.57C692.3 1034.01 699.318 1024.41 705.942 1016.61C723.063 996.32 740.563 976.532 756.899 955.318C769.674 938.713 781.285 921.195 792.266 903.229C786.293 920.303 780.207 937.27 774.571 954.353C780.091 949.831 785.666 945.39 791.243 940.965C797.748 934.053 804.195 927.062 810.583 919.992C825.735 900.474 839.634 879.71 851.428 858.048Z" fill="#EAC076"/>
</g>
<g style="mix-blend-mode:screen">
<path d="M861.739 785.426C858.41 764.797 848.461 746.982 833.922 737.046C831.077 735.342 828.222 733.83 825.506 732.459C823.008 731.196 820.437 730.098 817.846 729.088C807.595 725.349 796.561 723.506 784.819 723.616C780.843 723.768 776.885 724.167 772.966 724.81C765.703 726.049 758.157 728.542 750.766 731.52C774.014 724.784 797.848 726.746 814.136 736.606C830.873 746.78 845.141 762.507 851.014 784.595C855.211 796.57 856.809 810.288 854.904 825.416C854.835 826.037 856.157 825.625 856.288 825.046C858.822 813.365 861.432 799.639 861.94 787.075C861.871 786.542 861.826 785.98 861.739 785.426Z" fill="#E7F6FD"/>
</g>
<path d="M939.345 701.945L911.014 684.096C911.014 684.096 860.682 705.962 825.818 765.173C825.818 765.173 837.64 781.684 861.059 796.087C884.12 811.034 904.032 814.548 904.032 814.548C941.743 757.146 939.345 701.945 939.345 701.945Z" fill="#626467"/>
<path d="M935.769 736.997C939.933 715.868 939.345 701.945 939.345 701.945L911.015 684.096C911.015 684.096 898.022 689.757 880.634 703.077C891.312 712.869 909.218 726.211 935.769 736.997Z" fill="url(#paint0_linear_270_5156)"/>
<path d="M832.879 753.968C831.847 755.498 830.818 757.097 829.788 758.717C835.052 764.739 845.644 775.415 862.937 786.306C874.788 793.787 889.835 801.372 908.387 807.636C909.34 806.028 910.261 804.451 911.201 802.893C864.606 787.371 840.458 762.828 832.879 753.968Z" fill="#3A3C3F"/>
<path d="M843.3 739.775C842.15 741.207 841.017 742.689 839.895 744.156C845.362 750.312 855.79 760.551 872.411 771.065C884.074 778.424 898.794 785.881 916.931 792.102C917.776 790.451 918.535 788.82 919.305 787.201C875.348 772.234 851.698 749.296 843.3 739.775Z" fill="#3A3C3F"/>
<path d="M930.05 759.503C930.588 757.742 931.118 756.014 931.593 754.32C898.188 741.75 877.545 724.858 867.095 714.411C865.776 715.64 864.41 716.895 863.093 718.163C869.097 724.208 878.348 732.337 891.402 740.561C901.781 747.13 914.595 753.762 930.05 759.503Z" fill="#3A3C3F"/>
<path d="M854.69 726.649C853.461 727.94 852.222 729.285 850.975 730.684C856.771 736.913 866.783 746.283 881.904 755.806C893.084 762.862 907.061 770.016 924.137 776.049C924.831 774.355 925.491 772.67 926.107 771.006C886.764 757.074 864.244 736.877 854.69 726.649Z" fill="#3A3C3F"/>
<path d="M934.633 742.385C935.05 740.528 935.416 738.722 935.769 736.996C909.21 726.218 891.314 712.871 880.634 703.076C879.238 704.164 877.755 705.337 876.283 706.521C883.875 713.559 892.115 719.863 900.888 725.346C910.129 731.198 921.346 737.091 934.633 742.385Z" fill="#3A3C3F"/>
<g style="mix-blend-mode:multiply" opacity="0.9">
<path d="M939.345 701.945L911.014 684.096C911.014 684.096 860.681 705.962 825.818 765.173C825.818 765.173 826.671 766.38 828.354 768.357C835.972 754.337 848.02 742.736 858.494 730.974C865.398 723.213 882.391 705.069 894.899 714.22C908.734 724.342 868.783 781.721 860.599 795.784C860.741 795.895 860.893 795.994 861.051 796.08C884.113 811.027 904.024 814.541 904.024 814.541C941.743 757.147 939.345 701.945 939.345 701.945Z" fill="#B3B5B8"/>
</g>
<g style="mix-blend-mode:multiply" opacity="0.9">
<path d="M939.345 701.945L924.817 692.79C920.495 733.167 903.908 772.747 884.08 808.209C895.924 813.089 904.032 814.548 904.032 814.548C941.743 757.147 939.345 701.945 939.345 701.945Z" fill="#B3B5B8"/>
</g>
<path d="M841.974 640.502L813.666 622.653C813.666 622.653 763.309 644.521 728.446 703.728C728.446 703.728 740.288 720.26 763.699 734.633C786.738 749.58 806.668 753.094 806.668 753.094C844.384 695.692 841.974 640.502 841.974 640.502Z" fill="#626467"/>
<path d="M838.423 675.556C842.574 654.437 841.976 640.504 841.976 640.504L813.668 622.655C813.668 622.655 800.662 628.303 783.285 641.638C793.963 651.408 811.836 664.757 838.423 675.556Z" fill="url(#paint1_linear_270_5156)"/>
<path d="M735.519 692.537C734.487 694.048 733.462 695.64 732.437 697.254C737.69 703.31 748.29 713.974 765.588 724.863C777.437 732.342 792.464 739.911 811.027 746.183C811.959 744.572 812.903 743.018 813.804 741.421C767.242 725.895 743.085 701.384 735.519 692.537Z" fill="#3A3C3F"/>
<path d="M745.926 678.332C744.798 679.746 743.659 681.229 742.524 682.713C748.009 688.851 758.419 699.108 775.068 709.617C786.72 716.965 801.429 724.433 819.588 730.654C820.398 728.99 821.179 727.382 821.958 725.73C777.976 710.789 754.352 687.877 745.926 678.332Z" fill="#3A3C3F"/>
<path d="M832.68 698.06C833.219 696.301 833.756 694.562 834.242 692.853C800.805 680.296 780.163 663.404 769.723 652.97C768.394 654.164 767.067 655.447 765.711 656.713C771.734 662.776 780.975 670.878 794.041 679.131C804.406 685.688 817.234 692.31 832.68 698.06Z" fill="#3A3C3F"/>
<path d="M757.33 665.195C756.1 666.489 754.857 667.856 753.608 669.26C759.407 675.487 769.393 684.814 784.548 694.39C795.694 701.415 809.694 708.566 826.772 714.623C827.462 712.907 828.114 711.233 828.729 709.548C789.382 695.62 766.873 675.456 757.33 665.195Z" fill="#3A3C3F"/>
<path d="M837.26 680.922C837.679 679.085 838.065 677.281 838.421 675.553C811.839 664.753 793.963 651.407 783.293 641.645C781.885 642.741 780.423 643.892 778.944 645.088C784.84 650.601 792.896 657.209 803.525 663.937C812.758 669.733 823.975 675.626 837.26 680.922Z" fill="#3A3C3F"/>
<g style="mix-blend-mode:multiply" opacity="0.9">
<path d="M841.974 640.502L813.666 622.653C813.666 622.653 763.309 644.521 728.446 703.728C728.446 703.728 729.31 704.924 730.981 706.912C738.601 692.894 750.658 681.28 761.11 669.499C768.005 661.747 785.039 643.622 797.524 652.777C811.35 662.908 771.399 720.265 763.248 734.339C763.387 734.456 763.539 734.555 763.701 734.635C786.74 749.582 806.67 753.096 806.67 753.096C844.383 695.693 841.974 640.502 841.974 640.502Z" fill="#B3B5B8"/>
</g>
<g style="mix-blend-mode:multiply" opacity="0.9">
<path d="M841.974 640.502L827.447 631.35C823.133 671.715 806.551 711.317 786.699 746.727C798.556 751.642 806.676 753.09 806.676 753.09C844.384 695.692 841.974 640.502 841.974 640.502Z" fill="#B3B5B8"/>
</g>
<path d="M840.374 444.467C840.374 444.467 787.387 430.167 754.917 475.234C722.447 520.301 702.446 706.639 719.671 690.714C736.896 674.788 804.324 576.76 804.324 576.76L840.374 444.467Z" fill="#008ED0"/>
<g style="mix-blend-mode:multiply">
<path d="M818.871 453.846C820.535 453.943 821.623 456.213 820.197 457.351C783.608 487.292 762.965 534.056 745.962 577.22C731.539 613.901 721.498 652.26 717.89 691.629C718.574 691.533 719.205 691.212 719.682 690.717C736.895 674.758 804.335 576.763 804.335 576.763L840.374 444.467C840.374 444.467 787.387 430.166 754.917 475.233C753.062 477.866 751.385 480.622 749.899 483.482C767.233 464.347 791.563 452.254 818.871 453.846Z" fill="#008ED0"/>
</g>
<g style="mix-blend-mode:screen">
<path d="M733.152 589.797C737.556 572.242 742.106 554.452 744.947 536.52C747.184 522.361 746.634 508.003 747.485 493.721C747.432 493.775 747.39 493.84 747.346 493.884C731.022 537.106 719.747 611.303 718.083 653.766C722.168 632.28 727.806 611.064 733.152 589.797Z" fill="white"/>
</g>
<path d="M1085.98 599.453C1085.98 599.453 1121.85 641.248 1095.75 690.342C1069.65 739.437 911.838 838.796 918.586 816.216C925.334 793.635 983.499 689.815 983.499 689.815L1085.98 599.453Z" fill="#083879"/>
<g style="mix-blend-mode:multiply">
<path d="M919.798 819.332C920.76 818.224 921.744 817.093 922.746 815.962C930.888 806.42 938.648 796.45 946.318 786.502C959.916 768.908 973.732 751.507 988.43 734.806C1017.57 701.659 1048.26 666.658 1084.76 641.416C1085.64 640.814 1087.07 641.374 1087.48 642.296C1096.38 661.731 1095.55 680.794 1090.09 699.138C1092.18 696.35 1094.08 693.412 1095.75 690.347C1121.84 641.247 1085.98 599.458 1085.98 599.458L983.496 689.827C983.496 689.827 925.286 793.662 918.586 816.217C918.061 817.942 918.52 818.952 919.798 819.332Z" fill="#008ED0"/>
</g>
<path d="M1191.28 453.549C1227.66 390.289 1237.84 362.086 1239.8 355.773C1266.27 296.471 1261.01 95.3011 1258.3 81.5636C1256.16 70.7924 1249.23 65.7723 1246.28 64.0833C1243.45 62.1284 1235.99 58.0492 1225.41 60.8223C1211.98 64.3406 1029.91 147.308 988.455 197.144C983.652 201.687 962.899 223.213 922.22 283.734C875.686 353.004 780.33 543.991 780.191 627.894C780.191 627.894 806.132 656.069 858.497 687.259C909.175 721.111 945.689 732.332 945.689 732.332C1020.58 695.632 1149.7 525.916 1191.28 453.549Z" fill="#C2C4C6"/>
<path d="M894.334 596.256C908.829 571.11 921.345 543.926 938.433 520.239C932.193 525.4 923.752 535.091 913.123 553.203C903.423 569.733 886.843 603.281 872.888 633.092C880.042 620.803 887.249 608.588 894.334 596.256Z" fill="white"/>
<path d="M1246.28 64.0838C1243.45 62.1289 1235.99 58.0497 1225.41 60.8227C1212.33 64.2817 1039.42 142.97 992.08 193.134C1022.27 227.281 1061.02 260.33 1106.36 288.954C1151.71 317.579 1198.11 338.257 1241.84 350.76C1265.99 285.965 1260.93 94.9427 1258.3 81.5641C1256.15 70.7854 1249.23 65.7727 1246.28 64.0838Z" fill="url(#paint2_linear_270_5156)"/>
<path d="M1246.28 64.0838C1243.45 62.1289 1235.99 58.0497 1225.41 60.8227C1212.33 64.2817 1039.42 142.97 992.08 193.134C1022.27 227.281 1061.02 260.33 1106.36 288.954C1151.71 317.579 1198.11 338.257 1241.84 350.76C1265.99 285.965 1260.93 94.9427 1258.3 81.5641C1256.15 70.7854 1249.23 65.7727 1246.28 64.0838Z" fill="#FF0026"/>
<path d="M999.822 216.763C999.15 217.846 998.169 218.699 997.004 219.216C995.838 219.733 994.539 219.89 993.273 219.668C992.006 219.445 990.829 218.853 989.889 217.966C988.95 217.079 988.29 215.937 987.995 214.685C987.699 213.433 987.78 212.127 988.228 210.932C988.676 209.737 989.471 208.707 990.511 207.973C991.552 207.239 992.792 206.833 994.073 206.807C995.355 206.781 996.622 207.136 997.713 207.828C999.172 208.752 1000.21 210.212 1000.61 211.887C1001.01 213.562 1000.72 215.316 999.822 216.763V216.763Z" fill="white"/>
<path d="M1104.18 305.226C1103.51 306.307 1102.53 307.158 1101.36 307.674C1100.2 308.189 1098.9 308.345 1097.63 308.122C1096.36 307.899 1095.19 307.307 1094.25 306.42C1093.31 305.533 1092.65 304.392 1092.35 303.14C1092.05 301.888 1092.13 300.582 1092.58 299.386C1093.03 298.191 1093.82 297.16 1094.86 296.423C1095.9 295.686 1097.13 295.277 1098.42 295.247C1099.7 295.217 1100.96 295.568 1102.06 296.255C1103.52 297.183 1104.57 298.648 1104.97 300.329C1105.36 302.01 1105.08 303.771 1104.18 305.226V305.226Z" fill="white"/>
<path d="M1229.77 359.484C1229.1 360.564 1228.11 361.416 1226.95 361.93C1225.78 362.445 1224.48 362.6 1223.22 362.375C1221.95 362.151 1220.77 361.557 1219.84 360.669C1218.9 359.781 1218.24 358.639 1217.95 357.387C1217.65 356.135 1217.74 354.829 1218.18 353.635C1218.63 352.441 1219.43 351.412 1220.47 350.679C1221.51 349.946 1222.75 349.542 1224.03 349.517C1225.31 349.491 1226.58 349.847 1227.67 350.539C1228.39 350.997 1229.02 351.591 1229.52 352.289C1230.02 352.986 1230.37 353.773 1230.57 354.604C1230.76 355.434 1230.79 356.293 1230.66 357.13C1230.52 357.968 1230.22 358.767 1229.77 359.484V359.484Z" fill="white"/>
<path d="M1163.57 337.785C1162.9 338.87 1161.93 339.726 1160.76 340.246C1159.59 340.766 1158.3 340.925 1157.03 340.705C1155.76 340.484 1154.58 339.893 1153.64 339.006C1152.7 338.119 1152.04 336.977 1151.75 335.724C1151.45 334.471 1151.53 333.165 1151.98 331.97C1152.43 330.775 1153.23 329.745 1154.27 329.012C1155.31 328.279 1156.55 327.876 1157.83 327.853C1159.12 327.83 1160.38 328.188 1161.47 328.883C1162.19 329.337 1162.82 329.928 1163.32 330.621C1163.81 331.315 1164.17 332.098 1164.37 332.925C1164.56 333.752 1164.59 334.607 1164.46 335.441C1164.32 336.275 1164.02 337.072 1163.57 337.785Z" fill="white"/>
<path d="M1049.13 265.58C1048.22 267.029 1046.78 268.051 1045.11 268.422C1043.43 268.792 1041.67 268.482 1040.21 267.558C1038.75 266.634 1037.7 265.172 1037.31 263.495C1036.91 261.817 1037.2 260.061 1038.1 258.613C1038.54 257.895 1039.13 257.275 1039.82 256.788C1040.51 256.3 1041.29 255.955 1042.12 255.771C1042.95 255.588 1043.8 255.57 1044.64 255.718C1045.48 255.866 1046.29 256.178 1047.01 256.635C1047.74 257.093 1048.37 257.687 1048.87 258.384C1049.36 259.081 1049.72 259.868 1049.92 260.698C1050.11 261.529 1050.14 262.388 1050.01 263.225C1049.87 264.063 1049.57 264.863 1049.13 265.58V265.58Z" fill="white"/>
<g style="mix-blend-mode:screen">
<path d="M1084.98 695.79C1084.98 695.79 1020.99 771.512 938.121 809.08C938.136 809.065 1022.23 755.137 1084.98 695.79Z" fill="white"/>
</g>
<g style="mix-blend-mode:screen" opacity="0.7">
<path d="M1040.48 251.756C1038.17 249.907 1035.88 247.995 1033.64 246.016C1026.4 239.57 1019.81 232.43 1012.72 225.786C988.918 251.728 967.993 280.092 949.405 310.844C889.531 409.935 850.725 519.397 807.208 626.382C812.691 631.099 819.591 636.718 827.856 642.873C875.064 548.009 917.594 450.674 970.314 358.734C991.666 321.45 1014.7 285.65 1040.48 251.756Z" fill="#C9E9EB"/>
</g>
<g style="mix-blend-mode:multiply">
<path d="M1191.28 453.549C1227.66 390.29 1237.84 362.086 1239.8 355.773C1266.27 296.471 1261.01 95.3013 1258.3 81.5638C1256.16 70.7926 1249.23 65.7725 1246.28 64.0835C1246.06 63.9266 1245.83 63.7843 1245.59 63.6575C1240.53 94.5036 1233.87 125.041 1225.62 155.145C1168.22 364.747 1048.06 551.144 913.058 718.685C933.313 728.537 945.695 732.341 945.695 732.341C1020.58 695.632 1149.7 525.916 1191.28 453.549Z" fill="#DEDFE0"/>
</g>
<path opacity="0.5" d="M1040.63 231.082C1043.77 233.876 1047.05 236.465 1050.38 238.974C1059.69 227.237 1069.38 215.736 1079.47 204.471C1112.82 167.337 1148.63 132.521 1184.17 97.4604C1142.03 121.778 1100.47 147.476 1062.8 178.346C1049.21 189.484 1036.25 201.349 1023.95 213.891C1029.34 219.785 1034.63 225.809 1040.63 231.082Z" fill="#FFF2BB"/>
<defs>
<linearGradient id="paint0_linear_270_5156" x1="940.771" y1="662.518" x2="857.377" y2="838.468" gradientUnits="userSpaceOnUse">
<stop offset="0.46" stop-color="#E5E0DF"/>
<stop offset="1" stop-color="#8CA99C"/>
</linearGradient>
<linearGradient id="paint1_linear_270_5156" x1="842.84" y1="601.058" x2="759.445" y2="777.013" gradientUnits="userSpaceOnUse">
<stop offset="0.46" stop-color="#E5E0DF"/>
<stop offset="1" stop-color="#8CA99C"/>
</linearGradient>
<linearGradient id="paint2_linear_270_5156" x1="970.424" y1="42.6989" x2="1391.93" y2="303.435" gradientUnits="userSpaceOnUse">
<stop offset="0.46" stop-color="#E5E0DF"/>
<stop offset="1" stop-color="#8CA99C"/>
</linearGradient>
</defs>
</svg>
