<svg width="442" height="412" viewBox="0 0 442 412" fill="none" xmlns="http://www.w3.org/2000/svg">
<path style="mix-blend-mode:screen" d="M214.081 203.875L220.55 204.579C220.55 204.579 220.761 204.484 220.812 204.678C220.864 204.873 220.812 204.678 220.812 204.678L213.3 203.829L214.081 203.875Z" fill="url(#paint0_linear_216_1886)"/>
<path style="mix-blend-mode:screen" d="M238.547 222.706L245.016 223.41C245.016 223.41 245.197 223.328 245.278 223.509C245.36 223.69 245.278 223.509 245.278 223.509L237.736 222.673L238.547 222.706Z" fill="url(#paint1_linear_216_1886)"/>
<path style="mix-blend-mode:screen" d="M209.408 232.062L215.908 232.752C215.908 232.752 216.089 232.671 215.99 232.933C215.891 233.195 215.99 232.933 215.99 232.933L208.668 232.106L209.408 232.062Z" fill="url(#paint2_linear_216_1886)"/>
<path d="M144.679 227.759C157.197 230.374 169.517 233.874 181.545 238.231C187.524 240.172 193.566 242.012 199.43 244.258C204.68 245.773 209.792 247.735 214.709 250.122C215.243 250.288 215.722 250.599 216.092 251.02C216.16 251.171 216.201 251.261 215.993 251.282C205.866 251.215 194.673 246.625 185.064 243.858C171.323 239.875 156.952 236.902 144.016 230.778C142.284 229.747 142.167 227.406 144.679 227.759Z" fill="#DF726B"/>
<path d="M146.2 214.705C143.104 214.181 140.012 213.584 136.903 213.03C130.366 211.584 123.932 209.705 117.643 207.406C115.504 206.595 115.696 203.897 118.177 204.263C124.582 205.251 130.924 206.612 137.172 208.339L152.947 214.34C156.292 215.658 159.545 217.09 162.781 218.565C157.191 217.246 151.741 215.756 146.2 214.705Z" fill="#9AD4F6"/>
<path d="M37.3165 168.66C55.5443 172.32 73.8922 175.926 91.7683 181.051C107.805 185.629 125.009 189.426 140.026 196.713C140.026 196.713 139.944 196.533 140.026 196.713C140.107 196.894 140.288 196.813 140.716 197.199C141.144 197.586 140.784 197.35 140.716 197.199C134.654 197.399 128.099 195.066 122.195 193.852C112.558 191.824 103 189.251 93.6194 186.671C74.692 181.622 55.443 178.024 36.5763 172.548C33.7871 171.741 34.2841 168.035 37.3165 168.66Z" fill="#D22922"/>
<path d="M89.4235 202.855C83.3143 201.989 77.2352 201.108 71.1861 200.215L70.1297 200.039C63.4515 198.687 56.871 196.886 50.4329 194.649C48.4818 193.934 48.8017 191.759 50.9695 191.831C69.432 193.609 86.6242 199.623 104.222 204.692C99.2487 204.476 94.3001 203.862 89.4235 202.855Z" fill="#EEB633"/>
<path d="M95.3723 214.421C101.74 215.059 108.038 216.268 114.193 218.031L117.143 218.874C122.027 220.874 126.925 222.905 131.872 224.804C127.207 224.372 122.593 223.493 118.094 222.18C110.22 220.894 102.432 219.119 94.7763 216.866C93.2209 216.227 93.5323 214.273 95.3723 214.421Z" fill="#D22922"/>
<path d="M120.266 152.655C111.697 153.153 102.609 150.658 94.3261 149.867L90.5043 149.418C81.2997 148.027 72.1444 146.506 63.0713 144.766C61.6056 144.485 60.4569 142.103 62.6439 142.058C73.4533 142.258 84.2172 143.543 94.7743 145.893C100.523 146.922 106.405 148.327 112.172 149.638C113.913 150.048 115.373 150.477 117.109 151.034C116.561 150.702 118.88 151.83 120.266 152.655Z" fill="#9AD4F6"/>
<path d="M46.3474 152.684C40.148 151.858 33.9566 151.21 27.7873 150.37C18.8117 149.167 9.88044 147.58 0.87142 146.863C0.0889542 146.093 -0.026671 144.875 1.45046 144.861C10.9155 144.736 20.3766 145.373 29.742 146.767C30.9838 147.113 32.2721 147.401 33.4867 147.687C42.3652 149.877 51.5392 151.68 60.2856 154.62C55.5571 154.326 50.7968 153.321 46.3474 152.684Z" fill="#DF726B"/>
<path d="M90.1017 139.155C97.3959 139.247 104.655 140.204 111.727 142.006C118.524 143.134 125.14 145.17 131.398 148.06C131.494 148.271 131.562 148.422 131.28 148.44C117.407 147.374 103.64 145.188 90.114 141.905C88.621 141.564 88.1658 139.195 90.1017 139.155Z" fill="#D22922"/>
<path d="M125.093 131.941C142.715 134.269 160.145 137.885 177.243 142.762C184.465 144.649 191.651 146.698 198.853 148.703C205.16 150.568 210.979 153.596 217.245 155.371C216.23 155.286 215.214 155.201 214.215 155.072C210.555 154.26 206.914 153.329 203.289 152.755C194.552 151.117 185.847 149.392 177.118 147.533C159.395 144.217 141.863 139.933 124.603 134.701C122.636 134.031 122.961 131.708 125.093 131.941Z" fill="#DF726B"/>
<path d="M139.778 146.342C143.648 146.546 147.499 147.036 151.297 147.811C155.459 149.013 159.842 150.224 163.947 151.779C161.214 151.797 158.486 151.574 155.792 151.111C150.367 150.795 144.993 149.864 139.775 148.338C138.817 147.9 138.303 146.283 139.778 146.342Z" fill="#EEB633"/>
<path d="M227.67 140.398C233.393 140.835 239.068 141.766 244.632 143.18C252.465 145.726 260.112 148.815 267.518 152.425C262.433 151.651 257.409 150.515 252.484 149.026C244.04 147.074 235.32 146.118 227.111 143.407C225.043 142.673 225.445 140.279 227.67 140.398Z" fill="#D22922"/>
<path d="M167.95 134.448C180.897 136.371 193.722 139.055 206.357 142.484C212.975 144.317 219.561 146.238 226.028 148.538C229.292 149.675 232.529 150.752 235.759 151.976C237.315 152.615 238.9 153.241 240.289 153.991C241.677 154.742 243.503 155.658 241.222 154.295C242.06 154.58 242.863 154.96 243.615 155.426C243.847 155.539 243.765 155.758 243.751 155.727C239.97 155.368 236.431 154.102 232.945 153.356C230.434 152.604 228.008 151.96 225.541 151.225C218.93 149.569 212.381 147.487 205.74 145.845C193.013 142.746 180.1 140.275 167.513 136.604C166.056 136.102 166.277 134.189 167.95 134.448Z" fill="#EEB633"/>
<path d="M273.431 141.484C280.935 142.594 288.336 144.321 295.559 146.647C299.789 148 304.114 149.564 308.202 151.162C312.805 153.425 317.541 155.403 322.385 157.085C322.565 157.004 322.84 157.532 322.562 157.477C315.87 157.163 308.593 154.032 302.092 152.218C292.428 149.331 282.43 147.465 272.89 143.651C271.43 143.222 271.537 141.216 273.431 141.484Z" fill="#9AD4F6"/>
<path d="M290.433 156.288C293.1 156.584 295.741 157.076 298.335 157.76C301.272 158.573 303.596 160.352 306.631 160.902C306.871 160.794 307.127 161.44 306.849 161.384C304.342 161.225 301.864 160.748 299.476 159.964C296.455 159.044 293.332 158.46 290.377 157.366C289.441 157.136 289.552 156.179 290.433 156.288Z" fill="#DF726B"/>
<path d="M219.509 256.983C236.23 260.509 252.57 265.663 268.294 272.371L269.697 272.752C269.697 272.752 270.081 273.123 269.847 273.084C262.806 272.638 254.96 269.691 248.252 267.898C238.436 265.519 228.749 262.632 219.23 259.249C217.738 258.509 217.883 256.667 219.509 256.983Z" fill="#EEB633"/>
<path d="M189.133 254.387C185.093 253.456 181.067 252.554 177.028 251.623C174.512 250.62 171.969 249.557 169.513 248.526C167.901 247.84 167.972 245.596 169.981 245.958C178.732 248.025 187.241 250.599 195.739 253.47C199.969 254.823 203.827 256.634 207.948 258.145L215.018 260.499C215.018 260.499 216.655 261.319 217.828 261.913C208.172 259.603 198.792 256.623 189.133 254.387Z" fill="#D22922"/>
<path d="M62.9294 159.591C77.8526 160.102 92.4152 160.776 107.017 162.339C97.266 160.192 87.4534 158.231 77.5795 156.453C77.0363 156.373 76.2351 155.32 77.0216 155.219C83.0084 154.752 89.0303 154.989 94.9643 155.925C104.292 156.788 113.89 156.405 123.064 158.208C132.238 160.012 141.256 160.507 150.198 162.198C145.177 159.896 140.154 157.668 135.199 155.192C135.128 155.172 135.062 155.136 135.006 155.089C134.949 155.041 134.903 154.982 134.87 154.916C134.838 154.849 134.82 154.776 134.817 154.702C134.814 154.628 134.827 154.555 134.855 154.486C134.882 154.417 134.924 154.355 134.977 154.304C135.03 154.252 135.094 154.213 135.163 154.187C135.233 154.162 135.307 154.152 135.38 154.157C135.454 154.162 135.526 154.183 135.591 154.217C146.329 156.837 158.332 156.492 169.308 158.279C177.028 159.22 184.646 160.878 192.063 163.23C187.303 159.986 182.098 157.451 176.612 155.704C175.87 155.423 175.49 154.18 176.612 154.181C184.296 154.615 191.948 155.506 199.529 156.847C205.272 157.625 210.017 162.119 214.112 165.817C220.274 171.447 226.349 165.91 233.427 165.396C231.404 164.401 229.288 163.608 227.11 163.028C226.774 162.926 226.207 162.311 226.742 162.215C238.269 159.292 257.648 159.495 270.049 166.839C268.379 164.753 266.352 162.979 264.064 161.601C263.344 161.128 263.7 160.315 264.538 160.408C270.245 161.228 275.652 163.491 280.247 166.983C282.581 168.751 284.815 170.648 286.939 172.664C291.659 177.023 296.651 176.219 302.37 175.34C306.723 174.642 312.078 172.078 317.431 170.711C314.433 169.451 311.343 168.422 308.188 167.633C307.574 167.476 306.454 166.277 307.508 166.128C317.779 164.352 327.858 161.431 338.4 161.854C342.864 162.226 347.19 163.592 351.062 165.853C353.71 167.229 356.255 168.794 358.679 170.536C359.159 170.907 359.617 171.305 360.05 171.73C359.333 168.919 359.046 166.016 359.2 163.12C361.836 167.92 365.76 171.889 370.528 174.576C373.185 176.132 375.921 177.543 378.691 178.867C381.46 180.191 383.615 181.756 385.8 182.908C394.81 188.194 402.689 192.577 408.781 201.176C420.767 218.174 420.015 241.181 413.328 259.942C409.956 269.299 401.785 274.441 393.788 279.649C384.752 285.574 374.65 289.683 364.043 291.746C355.592 292.964 346.965 291.845 339.095 288.51C334.131 286.655 329.386 284.482 324.568 282.307C319.69 280.328 314.458 279.383 309.2 279.531C308.507 279.518 307.274 278.95 307.663 278.049C308.749 275.244 310.775 272.906 313.395 271.434C306.241 269.697 299.921 271.247 292.594 272.49C285.267 273.733 277.564 273.985 274.468 266.172C273.258 263.092 273.375 257.745 270.916 255.265C269.992 254.341 267.237 255.694 266.188 256.095C263.123 257.28 259.774 257.531 256.563 256.817C253.662 255.903 250.946 254.477 248.545 252.606C248.002 252.126 247.473 251.676 246.991 251.168C244.758 248.492 241.968 246.336 238.817 244.851C233.711 242.997 228.167 242.733 222.914 244.094C224.103 242.249 225.686 240.692 227.549 239.534C222.567 239.75 217.575 239.441 212.656 238.61C208.835 237.544 205.232 235.807 202.015 233.48C197.756 229.819 193.587 226.118 189.078 222.787C191.585 222.888 194.045 223.046 196.545 223.294C193.334 221.252 190.254 219.01 187.324 216.58C181.019 211.415 174.157 206.973 166.866 203.337C163.575 201.741 158.141 200.606 155.622 197.754C155.514 197.513 155.296 197.031 155.656 196.869C158.444 195.986 161.422 195.896 164.26 196.608C163.308 196.023 162.353 195.511 161.573 195.066C156.22 192.189 150.561 189.995 145.145 187.219C139.105 184.182 132.673 181.72 126.583 178.814C121.596 176.425 116.164 175.615 111.203 173.286C110.84 173.124 110.189 172.403 110.7 172.172C112.229 171.513 113.84 171.065 115.491 170.842C98.2022 166.498 80.6251 163.409 62.8964 161.6C62.094 161.346 61.4415 159.501 62.9294 159.591Z" fill="#D22922"/>
<path d="M233.381 242.992C236.002 242.384 238.723 242.339 241.364 242.858C244.006 243.377 246.509 244.449 248.71 246.003C255.123 250.106 261.017 252.738 268.472 249.696C268.863 249.52 268.817 249.178 268.531 248.944C257.738 240.1 247.616 230.466 238.247 220.121C245.257 222.902 251.72 226.873 258.538 230.03C258.958 230.24 259.898 229.996 259.388 229.429C254.615 223.448 249.135 218.069 243.068 213.41C239.935 211.149 236.66 209.091 233.264 207.249C230.441 205.805 227.335 204.778 224.604 203.219C232.893 203.764 241.076 205.395 248.943 208.072C249.628 208.306 250.421 207.658 249.551 207.253C241.695 203.803 234.22 199.673 226.233 196.572C219.333 194.177 212.686 191.106 206.386 187.405C214.522 187.791 222.189 191.145 230.36 191.77C230.846 191.804 231.292 191.349 230.73 190.986C220.868 185.178 209.832 181.496 199.653 176.266C208.224 177.117 216.847 177.295 225.443 176.801C234.377 176.391 243.905 175.133 252.331 178.725C252.738 178.904 253.751 178.663 253.211 178.109C250.224 175.351 246.775 173.14 243.023 171.578C250.317 172.097 257.487 173.752 264.274 176.484C269.524 179.433 275.145 181.663 280.985 183.115C281.411 183.176 282.113 182.968 281.66 182.447C279.921 180.44 277.923 178.659 276.107 176.723C280.174 177.715 284.12 179.16 288.335 179.758C288.982 179.829 289.537 179.215 288.737 178.887C282.112 176.078 279.51 168.876 273.787 164.86C270.956 162.949 267.935 161.337 264.774 160.047C270.492 160.85 275.911 163.11 280.512 166.609C282.846 168.378 285.08 170.274 287.204 172.29C291.924 176.65 296.916 175.845 302.635 174.966C306.988 174.269 312.343 171.704 317.697 170.337C314.698 169.078 311.608 168.049 308.454 167.26C307.84 167.102 306.719 165.904 307.773 165.754C318.045 163.978 328.124 161.057 338.665 161.481C343.129 161.853 347.456 163.219 351.328 165.479C353.976 166.855 356.521 168.42 358.944 170.162C359.424 170.533 359.882 170.931 360.316 171.356C359.546 168.679 359.17 165.904 359.2 163.12C361.836 167.92 365.76 171.889 370.528 174.576C373.185 176.132 375.921 177.543 378.691 178.867C381.46 180.191 383.615 181.756 385.8 182.908C394.81 188.194 402.689 192.577 408.781 201.176C420.767 218.174 420.015 241.181 413.328 259.942C409.956 269.299 401.785 274.441 393.788 279.649C384.752 285.574 374.65 289.683 364.043 291.746C355.592 292.964 346.965 291.845 339.095 288.51C334.131 286.655 329.386 284.482 324.568 282.307C319.69 280.328 314.458 279.383 309.2 279.531C308.507 279.518 307.274 278.95 307.663 278.049C308.749 275.244 310.775 272.906 313.395 271.434C306.241 269.697 299.921 271.247 292.594 272.49C285.267 273.733 277.564 273.985 274.468 266.172C273.258 263.092 273.375 257.745 270.916 255.265C269.992 254.341 267.237 255.694 266.188 256.095C263.123 257.28 259.774 257.531 256.563 256.817C253.662 255.903 250.946 254.477 248.545 252.606C248.002 252.126 247.473 251.676 246.991 251.168C244.758 248.492 241.968 246.336 238.817 244.851C236.599 244.005 234.258 243.531 231.887 243.449L233.381 242.992Z" fill="#D95226"/>
<path d="M224.699 183.084C223.846 182.636 224.335 181.798 225.16 181.861C237.201 182.953 249.181 184.658 261.051 186.971C267.677 188.201 274.187 189.991 280.513 192.322C279.584 191.596 278.753 190.752 278.04 189.813C277.768 189.21 278.393 189.073 278.773 189.192C280.773 189.775 282.826 190.153 284.919 190.622C283.921 189.941 282.982 189.176 282.113 188.335C281.59 187.738 282.028 187.105 282.776 187.238C290.968 188.199 299.213 188.629 307.459 188.526C309.034 188.649 310.899 188.532 312.758 188.562C310.125 187.832 307.66 186.592 305.501 184.914C305.144 184.604 305.079 183.98 305.704 183.843C313.699 181.96 321.878 180.964 330.093 180.875C332.11 180.943 334.111 181.257 336.052 181.81C334.822 178.696 334.218 175.37 334.273 172.024C335.52 174.12 337.341 175.814 339.519 176.907C340.531 177.307 341.596 177.559 342.679 177.655C343.206 177.835 343.771 177.868 344.315 177.751L344.525 177.656C346.036 177.597 347.535 177.369 348.996 176.978L354.725 176.203C360.157 175.008 365.755 174.748 371.277 175.434C377.847 176.456 384.048 179.149 389.286 183.256C388.729 181.189 387.843 179.226 386.66 177.443C388.458 179.821 394.585 181.768 397.056 183.553C400.092 185.6 402.884 187.99 405.376 190.674C410.198 196.387 413.912 202.95 416.326 210.026C419.717 218.949 421.176 228.488 420.607 238.012C420.037 247.536 417.451 256.827 413.02 265.267C408.22 273.666 401.655 280.918 393.779 286.524C385.902 292.13 376.903 295.955 367.4 297.736C363.45 298.506 359.435 298.899 355.41 298.91C350.146 297.922 344.94 296.642 339.817 295.075C336.66 294.122 333.376 293.661 330.08 293.707C328.387 293.821 326.705 294.06 325.047 294.422C327.382 293.1 329.633 291.635 331.786 290.035C332.358 289.777 331.419 289.222 331.171 289.153C328.323 289.097 325.502 289.501 322.597 289.399C319.369 289.494 316.203 288.48 313.627 286.525L312.967 286.025C312.446 285.354 311.939 284.712 311.43 284.145C309.829 282.387 307.754 281.132 305.456 280.533C303.887 279.465 302.292 278.336 300.715 277.489C302.67 275.37 305.088 273.732 307.78 272.702L308.711 272.281C306.751 271.082 304.445 270.578 302.166 270.849C301.262 270.931 300.383 271.147 299.476 271.303C294.978 270.545 290.93 268.111 288.147 264.49C287.711 263.925 282.465 257.519 279.338 253.963C282.698 253.506 286.113 253.659 289.421 254.412C286.097 251.381 282.932 248.06 279.994 244.6C275.349 239.445 270.05 235.166 265.279 230.213C265.107 230.108 264.983 229.939 264.936 229.743C264.888 229.547 264.92 229.34 265.024 229.167C265.129 228.995 265.297 228.872 265.493 228.824C265.689 228.776 265.895 228.809 266.067 228.914C273.549 230.769 280.813 233.421 287.735 236.823C285.965 235.229 284.162 233.722 282.008 232.157C276.085 228.333 270.464 224.058 265.194 219.371C264.782 218.941 264.98 218.416 265.602 218.353C267.809 218.19 270.578 219.913 272.619 220.586C273.858 221.006 275.157 221.398 276.456 221.79C270.956 218.509 265.454 215.301 259.667 212.584C258.753 212.163 258.697 210.918 259.915 211.13C267.427 212.378 274.903 214.187 282.368 215.493C278.941 213.995 275.563 212.365 272.123 210.837C267.552 208.731 262.457 207.225 258.029 204.874C257.306 204.475 257.471 203.639 258.258 203.537C262.224 203.336 266.198 203.715 270.057 204.662C262.449 199.925 254.513 195.742 246.308 192.145C239.227 188.888 231.501 186.685 224.699 183.084Z" fill="#E79732"/>
<path d="M311.96 248.473C311.622 240.356 302.777 236.156 307.453 227.443C309.329 223.985 308.038 219.926 309.587 216.868C311.683 212.295 316.612 210.068 318.191 205.474C319.201 202.51 321.248 200.014 323.954 198.446C326.047 197.541 328.08 196.501 330.039 195.334C331.359 194.02 332.763 192.792 334.241 191.659C336.676 190.16 340.286 189.98 342.304 188.198C345.653 185.198 350.904 186.089 354.978 184.212C361.139 181.429 370.203 183.789 376.341 185.441C382.479 187.092 389.749 189.647 392.651 195.589C393.372 197.186 397.561 198.448 398.979 199.984C400.671 201.995 401.851 204.387 402.417 206.953L402.99 208.943C405.469 216.672 412.028 221.579 411.854 230.325C411.791 234.27 411.275 238.094 410.873 242.011C410.471 245.928 411.785 249.396 409.876 253.341C408.134 255.779 405.636 257.57 402.77 258.438C399.193 260.053 400.342 263.959 398.168 266.355C396.177 268.575 393.875 270.494 391.334 272.054C389.717 272.805 388.002 273.323 386.24 273.594C382.949 274.319 383.153 276.693 380.715 278.266C374.176 281.707 366.682 282.887 359.397 281.623C351.604 280.393 345.481 287.185 337.545 282.356C330.993 278.426 328.908 270.047 322.057 266.977C313.866 263.424 312.338 256.679 311.96 248.473Z" fill="#8F573E"/>
<g style="mix-blend-mode:multiply" opacity="0.3">
<path d="M376.675 199.797C377.515 199.404 378.434 199.207 379.362 199.222C380.289 199.236 381.202 199.461 382.032 199.879C383.828 200.61 385.432 201.747 386.717 203.202C387.312 203.762 387.779 204.444 388.084 205.202C388.388 205.96 388.525 206.775 388.483 207.591C388.684 208.295 388.606 209.05 388.265 209.698C387.924 210.345 387.345 210.836 386.651 211.066C385.075 211.451 383.424 211.41 381.867 210.948C380.31 210.485 378.903 209.617 377.79 208.432C375.316 206.322 373.231 202.187 376.675 199.797Z" fill="#2A1201"/>
<path d="M402.392 236.776C401.477 236.25 400.748 235.45 400.309 234.489C399.778 233.444 399.5 232.289 399.499 231.117C399.498 229.945 399.773 228.79 400.303 227.746C401.613 225.921 404.016 227.955 404.669 229.4C405.413 230.831 405.774 232.43 405.716 234.041C405.815 234.685 405.707 235.343 405.407 235.921C405.22 236.313 404.9 236.626 404.504 236.805C404.108 236.983 403.662 237.017 403.244 236.899C403.053 236.859 402.867 236.797 402.69 236.714C402.592 236.741 402.492 236.762 402.392 236.776Z" fill="#2A1201"/>
<path d="M373.633 235.516C373.492 235.163 373.466 234.776 373.557 234.408C373.648 234.04 373.851 233.709 374.139 233.463C374.427 233.217 374.785 233.068 375.162 233.036C375.539 233.004 375.917 233.091 376.243 233.285C376.598 233.336 376.938 233.464 377.239 233.66C377.54 233.856 377.795 234.115 377.986 234.419C378.621 235.003 379.127 235.714 379.471 236.505C379.619 236.838 379.645 237.212 379.545 237.562C379.446 237.912 379.226 238.216 378.925 238.42C377.112 240.653 374.07 237.204 373.633 235.516Z" fill="#2A1201"/>
<path d="M391.918 253.802C391.972 253.763 392.033 253.735 392.098 253.721C392.35 253.317 393.032 253.625 393.272 253.916C393.505 254.133 393.643 254.433 393.659 254.751C393.674 255.07 393.565 255.381 393.354 255.619C392.813 255.864 392.302 256.095 391.956 255.489C391.802 255.236 391.718 254.947 391.711 254.651C391.704 254.354 391.776 254.062 391.918 253.802Z" fill="#2A1201"/>
<path d="M364.917 269.41C365.067 269.047 365.325 268.738 365.654 268.524C365.984 268.31 366.371 268.202 366.764 268.213C367.743 268.238 368.681 268.611 369.411 269.265C369.643 269.492 369.861 269.732 370.062 269.986C370.062 269.986 370.684 270.721 370.198 270.288C370.464 270.535 370.677 270.833 370.827 271.164C370.976 271.495 371.059 271.852 371.069 272.215C371.034 272.574 370.876 272.909 370.621 273.163C370.366 273.418 370.03 273.575 369.672 273.608C368.404 274.725 366.551 273.749 365.605 272.617C365.25 272.172 365.003 271.651 364.883 271.094C364.764 270.537 364.775 269.961 364.917 269.41Z" fill="#2A1201"/>
<path d="M346.02 258.581C345.995 258.191 346.104 257.805 346.329 257.486C346.553 257.167 346.879 256.935 347.254 256.827C348.282 256.634 349.346 256.841 350.229 257.405C350.95 257.727 351.588 258.211 352.094 258.818C352.601 259.425 352.962 260.14 353.15 260.908C353.351 262.232 351.488 262.675 350.565 262.475C349.937 262.411 349.328 262.221 348.774 261.917C348.22 261.612 347.733 261.2 347.341 260.704C347.325 260.628 347.292 260.556 347.245 260.493C346.606 260.038 346.166 259.353 346.02 258.581Z" fill="#2A1201"/>
<path d="M345.461 231.633C345.461 231.633 345.366 231.422 345.325 231.332C345.273 231.113 345.257 230.888 345.277 230.664C345.242 230.394 345.227 230.122 345.235 229.849C345.234 229.601 345.288 229.355 345.392 229.13C345.496 228.904 345.647 228.704 345.836 228.543C346.025 228.382 346.246 228.264 346.485 228.197C346.724 228.13 346.974 228.116 347.219 228.155L348.011 228.305C348.244 228.207 348.498 228.173 348.749 228.206C348.999 228.24 349.237 228.34 349.436 228.495C350.318 229.063 350.988 229.906 351.343 230.894C351.697 231.881 351.716 232.958 351.396 233.956C351.416 234.516 351.239 235.063 350.895 235.504C350.551 235.944 350.064 236.249 349.517 236.365C349.021 236.39 348.527 236.296 348.075 236.09C347.623 235.884 347.227 235.572 346.92 235.181C346.15 234.136 345.649 232.917 345.461 231.633Z" fill="#2A1201"/>
<path d="M350.319 214.351L350.251 214.201C350.21 214.148 350.183 214.086 350.17 214.02C350.069 213.76 350.065 213.472 350.159 213.209C350.253 212.947 350.439 212.727 350.682 212.591C351.081 212.414 351.519 212.34 351.954 212.378C352.389 212.417 352.807 212.565 353.169 212.81C353.446 212.961 353.68 213.179 353.85 213.444C354.02 213.71 354.122 214.013 354.145 214.328C354.134 214.582 354.044 214.826 353.889 215.026C353.733 215.227 353.518 215.373 353.275 215.446C353.223 215.532 353.146 215.6 353.055 215.641C352.964 215.682 352.862 215.695 352.764 215.677C352.504 215.734 352.235 215.724 351.979 215.649C351.724 215.575 351.492 215.437 351.304 215.248C350.911 215.029 350.574 214.722 350.319 214.351Z" fill="#2A1201"/>
<path d="M345.947 200.188C346.275 200.021 346.647 199.961 347.011 200.018C347.374 200.076 347.711 200.246 347.973 200.506C348.371 200.906 348.703 201.481 348.241 201.98C347.779 202.479 346.471 202.308 345.915 201.798C345.359 201.288 345.283 200.56 345.947 200.188Z" fill="#2A1201"/>
<path d="M320.675 235.723C321.175 235.693 321.676 235.777 322.14 235.97C322.603 236.163 323.017 236.459 323.349 236.836C323.875 237.384 324.197 238.096 324.261 238.854C324.464 239.393 324.462 239.987 324.255 240.524C324.229 240.824 324.121 241.112 323.943 241.354C323.675 241.802 322.981 241.789 322.525 241.741C321.726 241.599 321.001 241.183 320.474 240.564C320.219 240.315 319.988 240.043 319.782 239.753C320.027 240.295 319.645 239.452 319.564 239.271C318.536 237.958 318.632 235.848 320.675 235.723Z" fill="#2A1201"/>
<path d="M313.636 234.079C313.636 234.079 313.704 234.23 313.731 234.29C313.758 234.35 314.143 234.721 314.017 234.923C313.891 235.125 313.001 234.837 312.72 234.457C312.44 234.076 313.352 233.772 313.636 234.079Z" fill="#2A1201"/>
<path d="M324.731 260.401C324.9 260.615 324.927 260.675 324.731 260.401V260.401Z" fill="#2A1201"/>
<path d="M323.918 258.121C324.286 257.012 325.752 257.293 326.668 257.64C327.102 257.742 327.507 257.944 327.849 258.23C328.192 258.516 328.464 258.878 328.643 259.287C328.699 259.496 328.735 259.711 328.751 259.927C329.078 260.65 329.391 261.343 328.53 261.84C327.669 262.338 326.111 261.772 325.187 260.848C325.034 260.731 324.891 260.601 324.758 260.461C324.663 260.25 324.527 259.949 324.473 259.829C324.411 259.736 324.365 259.635 324.337 259.528C324.166 259.34 324.039 259.116 323.967 258.872C323.894 258.628 323.878 258.372 323.918 258.121Z" fill="#2A1201"/>
<path d="M368.358 218.714L368.593 218.354C368.782 218.2 369.009 218.102 369.25 218.07C369.491 218.038 369.736 218.073 369.958 218.172C370.496 218.401 371.126 218.914 370.879 219.569C370.547 220.916 367.971 219.94 368.358 218.714Z" fill="#2A1201"/>
<path d="M393.792 218.14C393.601 217.718 394.393 217.868 394.548 218.052C394.586 218.167 394.636 218.278 394.698 218.383C394.943 218.925 393.979 219.034 393.837 218.482C393.807 218.37 393.791 218.255 393.792 218.14Z" fill="#2A1201"/>
<path d="M393.844 221.779C394.323 221.569 394.856 221.508 395.371 221.605C395.886 221.703 396.36 221.953 396.731 222.324C397.345 222.881 397.534 224.101 396.706 224.511C396.229 224.731 395.696 224.8 395.177 224.711C394.659 224.622 394.18 224.377 393.802 224.01C393.205 223.409 392.895 222.244 393.844 221.779Z" fill="#2A1201"/>
<path d="M397.545 240.706C397.62 240.31 398.146 240.435 398.362 240.591C398.577 240.748 398.362 240.591 398.43 240.742C399.284 241.19 397.451 241.619 397.545 240.706Z" fill="#2A1201"/>
<path d="M402.827 248.873C402.919 248.79 403.035 248.738 403.158 248.724C402.913 248.182 403.809 247.922 404.3 248.208C404.782 248.462 405.165 248.87 405.389 249.366C405.614 249.863 405.666 250.42 405.538 250.949C405.412 251.155 405.213 251.305 404.98 251.37C404.748 251.435 404.499 251.409 404.285 251.298C403.42 250.746 402.438 249.775 402.827 248.873Z" fill="#2A1201"/>
<path d="M361.625 259.4C362.083 259.186 362.595 259.117 363.093 259.204C363.591 259.29 364.052 259.526 364.412 259.882C365.025 260.439 365.188 261.599 364.39 261.996C363.933 262.215 363.42 262.286 362.92 262.2C362.421 262.114 361.96 261.874 361.603 261.514C361.019 260.943 360.737 259.838 361.625 259.4Z" fill="#2A1201"/>
<path d="M349.871 270.151C349.852 270.053 349.86 269.953 349.895 269.86C349.93 269.767 349.99 269.686 350.069 269.626C350.369 269.49 350.76 269.314 351.063 269.504C351.275 269.54 351.476 269.628 351.648 269.758C351.821 269.889 351.959 270.058 352.053 270.253C352.311 270.825 351.617 271.211 351.145 271.207C350.672 271.203 349.963 270.834 349.691 270.232C349.419 269.63 349.871 270.151 349.871 270.151Z" fill="#2A1201"/>
</g>
<g style="mix-blend-mode:multiply">
<path d="M313.103 256.769C314.519 259.545 316.592 261.933 319.14 263.725C320.108 264.121 321.165 264.246 322.198 264.084C326.343 263.808 326.843 266.918 328.6 269.606C329.346 270.578 330.377 271.292 331.549 271.646C333.484 272.478 335.079 273.945 336.069 275.806C337.06 277.535 338.676 278.817 340.583 279.388C344.069 280.135 347.7 279.764 350.96 278.327C353.081 277.266 355.356 276.545 357.701 276.188C360.216 276.067 360.907 277.677 362.899 278.481C364.3 278.737 365.743 278.611 367.077 278.117C368.693 277.9 370.296 277.599 371.881 277.216C373.027 276.847 374.077 276.228 374.957 275.404C375.836 274.581 376.522 273.573 376.967 272.452C377.891 272.98 378.776 273.574 379.615 274.23C379.751 274.339 379.917 274.403 380.091 274.416C380.264 274.428 380.437 274.387 380.587 274.298C384.031 271.509 389.474 270.9 392.452 267.56C395.43 264.22 393.949 259.34 398.747 257.463C400.339 256.743 404.77 255.177 404.012 252.618C403.685 251.656 403.266 250.728 402.76 249.847C401.822 247.768 404.751 248.005 406.13 247.454C408.986 246.164 408.991 244.493 408.064 241.721C407.183 240.073 406.736 238.228 406.764 236.36C407.283 234.472 407.982 232.639 408.85 230.884C409.582 229.175 409.945 227.328 409.914 225.467C409.884 223.606 409.462 221.771 408.674 220.084L408.552 219.813C410.688 223.046 411.855 226.823 411.913 230.697C411.85 234.642 411.334 238.466 410.932 242.383C410.531 246.3 411.844 249.768 409.936 253.713C408.194 256.151 405.695 257.943 402.829 258.81C399.253 260.426 400.402 264.331 398.228 266.728C396.236 268.947 393.934 270.867 391.394 272.426C389.776 273.177 388.062 273.695 386.299 273.966C383.008 274.691 383.212 277.065 380.774 278.638C374.236 282.079 366.742 283.259 359.457 281.995C351.663 280.765 345.54 287.557 337.605 282.728C331.052 278.798 328.968 270.419 322.116 267.349C319.873 266.445 317.881 265.011 316.311 263.168C314.741 261.325 313.64 259.13 313.103 256.769Z" fill="#8F573E"/>
</g>
<g style="mix-blend-mode:screen">
<path d="M322.589 226.263C321.748 226.244 314.795 227.354 314.822 227.414C314.196 226.029 313.57 224.643 313.095 223.19C314.665 219.616 318.539 217.539 319.913 213.69C320.799 211.144 321.29 208.476 321.369 205.779C324.371 203.314 327.526 201.041 330.815 198.973C332.736 196.137 335.257 193.76 338.2 192.01C345.283 189.826 353.716 188.627 360.421 185.126C363.902 183.299 371.468 186.591 375.159 186.99C377.762 187.565 380.036 189.144 381.487 191.385C383.391 193.113 384.995 195.146 386.232 197.401C384.812 196.587 383.346 195.857 381.842 195.214C380.657 194.392 379.231 193.994 377.794 194.084C376.358 194.174 374.994 194.746 373.923 195.709C370.228 198.503 366.739 200.151 367.684 205.527C367.945 206.945 368.321 208.34 368.808 209.698C366.422 207.902 363.663 206.669 360.737 206.091C358.261 205.577 355.747 205.299 353.219 204.99C352.261 202.177 351.484 199.306 350.892 196.394C350.809 196.188 350.649 196.021 350.446 195.931C350.242 195.84 350.012 195.831 349.803 195.907C344.99 197.429 339.305 197.821 334.949 200.514C334.294 200.925 333.687 201.407 333.137 201.95L332.956 202.031C331.218 204.384 330.111 207.144 329.739 210.049C329.569 210.633 330.494 210.759 330.822 210.684C334.002 209.739 337.314 209.308 340.631 209.407C345.264 209.889 343.138 216.399 346.314 218.301C349.489 220.203 354.179 220.731 354.724 225.381C354.86 226.423 354.923 227.473 354.913 228.523C354.266 228.438 353.667 228.132 353.219 227.657C350.853 224.828 347.724 222.741 344.206 221.646C344.73 221.845 342.175 227.242 341.986 227.545C337.621 234.704 345.075 238.227 345.982 244.961C344.35 243.789 342.555 242.865 340.654 242.219C338.703 241.799 336.68 241.855 334.756 242.381C333.438 242.721 332.096 242.963 330.742 243.106C327.959 243.276 327.566 241.204 327.198 239.267C327.102 239.081 327.015 238.89 326.939 238.695C326.822 236.854 326.587 235.022 326.235 233.211C326.187 232.686 326.109 232.164 325.999 231.649C325.755 228.785 325.792 226.303 322.589 226.263Z" fill="#8F573E"/>
</g>
<g style="mix-blend-mode:screen">
<path d="M354.366 238.127C357.085 233.277 360.478 228.839 364.441 224.944C365.226 224.118 366.74 225.066 367.815 225.922C369.612 223.333 373.397 219.375 375.659 220.057C379.835 221.29 383.129 225.858 387.244 227.517C386.638 230.212 386.403 232.979 386.544 235.739C387.058 238.375 388.476 240.75 390.553 242.451C388.551 242.666 386.693 243.759 384.757 243.8C385.593 241.225 385.927 238.513 385.744 235.811C385.252 233.774 384.264 231.89 382.869 230.328C381.332 228.447 376.822 222.47 373.792 225.216C371.856 227.093 370.176 229.218 368.795 231.536C368.009 232.761 365.781 234.638 365.902 236.107C366.107 237.519 366.706 238.845 367.63 239.932C368.358 240.982 371.524 243.504 370.667 245.052C369.123 247.962 368.348 251.213 366.656 254.117C364.657 252.608 363.073 250.616 362.051 248.328C361.57 246.623 364.505 244.789 361.591 243.386C359.373 242.321 357.459 240.647 355.238 239.656C354.782 239.209 354.109 238.679 354.366 238.127Z" fill="#8F573E"/>
</g>
<g style="mix-blend-mode:overlay" opacity="0.5">
<path d="M327.848 276.111C336.355 278.406 345.151 279.442 353.954 279.186L343.324 273.761C343.324 273.761 343.996 273.966 345.167 274.234C349.338 276.329 353.814 277.747 358.427 278.435C368.898 279.753 379.463 276.944 387.891 270.6C401.474 259.495 400.72 241.085 394.588 225.831C399.476 232.081 402.235 239.732 402.461 247.661C403.933 240.523 403.796 233.144 402.061 226.061C400.325 218.977 397.035 212.368 392.43 206.714C392.43 206.714 409.77 217.703 410.747 249.902C410.747 249.902 422.573 213.841 394.592 184.667C401.527 189.749 407.229 196.332 411.273 203.924C415.317 211.516 417.599 219.922 417.948 228.515C419.804 258.576 405.501 278.42 382.771 289.305C382.771 289.305 362.404 299.413 343.218 291.87C343.218 291.87 363.541 292.879 373.235 288.464C373.29 288.584 352.648 292.796 327.848 276.111Z" fill="#FFF9C5"/>
</g>
<g style="mix-blend-mode:overlay" opacity="0.5">
<path d="M266.75 193.898C266.171 193.579 266.355 193.025 267.048 193.038C273.982 193.967 280.98 193.997 287.982 194.678C292.694 195.015 297.352 195.232 302.078 195.2C304.456 195.178 308.578 195.891 304.723 194.006C304.172 193.747 303.529 192.804 304.498 192.548C314.593 189.981 325.31 191.595 335.493 192.507C333.523 191.288 331.473 190.202 329.357 189.259C328.315 188.715 327.502 186.834 329.344 186.908C333.68 187.052 337.906 187.755 342.307 187.725L345.201 187.723C342.38 186.205 339.916 184.997 339.18 184.568C338.443 184.139 338.482 183.505 339.165 183.414C346.886 181.882 354.852 182.076 362.495 183.983C370.138 185.891 377.268 189.464 383.377 194.448C384.28 195.164 383.113 195.945 382.374 195.59C378.569 194.05 374.653 192.801 370.661 191.851C372.562 193.055 374.241 194.579 375.626 196.354C375.659 196.455 375.666 196.563 375.646 196.667C375.625 196.772 375.579 196.869 375.511 196.951C375.443 197.032 375.355 197.095 375.256 197.133C375.157 197.171 375.05 197.184 374.945 197.169C372.729 196.987 370.542 196.552 368.424 195.872C370.721 197.985 372.549 200.557 373.789 203.422C375.574 205.97 376.866 208.831 377.599 211.855C377.647 212.522 376.637 212.289 376.332 212.174C368.053 206.591 358.907 202.426 349.268 199.848C349.268 199.848 342.622 198.354 346.062 199.882C348.791 201.115 351.697 201.942 354.494 203.326C358.104 204.599 361.499 206.416 364.564 208.714C365.106 209.194 364.581 209.794 363.951 209.68C357.29 208.554 351.533 206.223 344.483 205.999C343.85 205.959 340.553 205.309 341.827 205.966C344.569 207.23 347.579 208.046 350.349 209.369C355.272 211.656 360.059 214.228 364.685 217.073C368.059 219.175 373.388 221.518 375.499 224.989C375.758 225.562 375.345 225.929 374.788 225.818C361.389 223.313 348.162 218.626 334.878 215.416C330.852 214.515 326.894 213.764 322.95 213.044C321.689 212.815 311.804 211.442 316.671 214.285C320.976 216.764 327.408 218.827 330.58 222.725C331.03 223.32 330.229 223.79 329.716 223.696C326.414 223.164 323.144 222.45 319.92 221.557C318.657 220.604 319.129 221.008 321.289 222.824C323.449 224.641 325.145 226.232 327.193 227.882C332.649 232.67 340.029 236.19 344.704 241.731C345.2 242.268 344.819 242.948 344.088 242.771C339.169 241.656 334.71 238.594 329.885 236.965C327.031 235.934 324.213 234.342 321.501 233.065C319.769 232.112 318.089 231.067 316.468 229.935C318.129 232.811 320.391 235.416 322.113 238.265C325.283 243.36 328.457 248.382 331.657 253.464C332.426 254.604 330.653 255.006 329.876 254.486C327.372 252.789 324.57 249.63 321.763 247.743C326.623 252.97 330.997 258.63 334.83 264.651C334.952 264.859 335.006 265.1 334.984 265.34C334.963 265.58 334.867 265.807 334.711 265.99C334.554 266.173 334.344 266.302 334.111 266.359C333.877 266.416 333.631 266.399 333.408 266.309C327.547 264.945 322.034 262.372 317.22 258.753C310.789 253.571 306.552 246.274 300.963 240.312C300.069 239.374 301.179 238.547 302.197 238.957C305.773 240.855 309.113 243.168 312.149 245.848C309.893 243.082 307.491 240.439 304.953 237.929C300.533 232.31 295.831 227.109 291.194 221.733C290.671 221.135 291.076 220.589 291.796 220.663C293.957 220.994 296.064 221.616 298.06 222.511C300.636 223.487 308.549 228.907 302.426 224.166C296.656 219.216 290.277 215.029 283.444 211.706C282.339 211.263 282.709 210.08 283.937 210.396C286.969 211.419 290.251 211.714 293.272 212.634C295.316 213.234 297.239 214.287 299.283 214.887C297.739 214.183 296.319 213.232 295.08 212.071C288.625 207.154 280.822 205.021 273.904 201.002C273.543 200.766 273.591 200.309 274.049 200.284C276.098 200.241 278.138 200.012 280.144 199.597C275.727 197.349 271.049 196.126 266.75 193.898Z" fill="#FFF9C5"/>
</g>
<g style="mix-blend-mode:overlay" opacity="0.8">
<path d="M147.221 177.396C154.989 179.291 162.754 181.259 170.396 183.355C174.121 184.392 177.706 186 181.33 187.373C178.623 186.348 174.651 184.044 171.462 182.511C164.539 179.817 157.766 176.751 151.172 173.326L155.038 173.393C159.054 173.461 163.062 173.795 167.034 174.393C169.253 175.059 171.264 175.746 173.21 176.209C180.822 178.319 188.592 180.139 196.032 182.508C198.116 183.51 200.125 184.664 202.042 185.959C199.788 185.725 197.55 185.369 195.335 184.89C194.909 184.829 187.112 182.15 191.241 183.839C196.284 185.49 201.098 187.775 205.568 190.64C206.184 191.123 205.528 191.673 204.998 191.622C200.339 191.08 194.845 191.096 190.38 190.103C194.166 190.976 197.811 192.382 201.205 194.279C204.241 195.954 207.327 197.497 210.333 199.185C214.609 202.802 218.792 206.534 222.975 210.266C221.763 209.907 220.614 209.446 219.362 208.997C218.109 208.547 207.512 205.356 211.228 207.014C212.767 207.697 214.066 208.089 215.594 208.668C220.488 210.875 225.202 213.463 229.693 216.406C225.878 215.41 221.974 214.78 218.057 214.119C217.877 214.201 216.976 214.209 217.327 214.667C220.856 219.673 225.355 225.547 231.224 228.045C235.275 229.411 238.913 231.786 241.797 234.946C243.372 236.825 244.85 238.785 246.222 240.817C243.635 238.374 240.622 236.428 237.333 235.077C237.047 234.969 236.755 234.884 236.456 234.82C236.412 234.744 236.376 234.663 236.348 234.579L235.889 234.605C230.862 233.25 226.043 234.52 220.906 234.121C218.674 234.059 216.533 233.222 214.847 231.755C213.161 230.287 212.035 228.28 211.662 226.076C211.429 224.948 210.976 223.877 210.328 222.924C209.681 221.972 208.851 221.157 207.888 220.527C204.792 218.879 201.226 218.677 198.07 217.057C196.204 216.05 194.365 215.104 192.521 213.906C195.085 213.654 197.625 213.268 200.154 212.779C200.574 212.588 200.763 212.286 200.346 212.003C191.117 205.111 179.808 203.148 169.117 198.948C172.296 197.964 175.58 197.356 178.902 197.138C173.886 193.265 168.404 190.04 162.586 187.536C162.002 187.365 161.465 187.136 160.941 186.938C158.284 185.382 155.657 183.813 152.95 182.388C147.99 179.793 142.974 177.393 137.9 175.188C141.057 175.691 144.173 176.429 147.221 177.396Z" fill="#FFF9C5"/>
</g>
<path d="M211.126 237.705C211.267 237.718 211.405 237.753 211.535 237.811L211.685 237.743L211.32 237.654L210.897 237.519L211.126 237.705Z" fill="#DF726B"/>
<path d="M209.969 237.067L210.57 237.195C210.746 237.229 210.918 237.285 211.08 237.363L210.788 237.278L210.144 237.134C210.144 237.134 209.925 237.051 209.969 237.067Z" fill="#D22922"/>
<path d="M210.531 237.43C210.531 237.43 210.531 237.43 210.313 237.347C210.094 237.265 210.313 237.347 210.313 237.347L210.897 237.519L210.531 237.43Z" fill="#EEB633"/>
<path d="M210.862 236.882L210.652 236.977L210.343 236.935L210.725 236.98L210.862 236.882Z" fill="#9AD4F6"/>
<path d="M210.065 236.879L209.756 236.837L209.997 236.728L210.289 236.814L210.065 236.879Z" fill="#DF726B"/>
<path d="M210.543 236.736L210.723 236.654C210.767 236.619 210.818 236.596 210.873 236.586C210.729 236.589 210.585 236.568 210.448 236.525C210.448 236.525 210.513 236.749 210.543 236.736Z" fill="#D22922"/>
<path d="M210.944 236.663L211.501 236.774L211.651 236.706L211.441 236.801L210.871 236.66L210.944 236.663Z" fill="#DF726B"/>
<path d="M212.034 236.751L212.296 236.85L212.085 236.945L212.034 236.751Z" fill="#D22922"/>
<path d="M211.477 236.64L211.916 236.732L212.066 236.664L211.657 236.559L211.477 236.64Z" fill="#EEB633"/>
<path d="M212.55 236.772L212.73 236.69L212.394 236.588L212.55 236.772Z" fill="#9AD4F6"/>
<path d="M212.13 238.086C212.316 238.115 212.497 238.167 212.67 238.241L212.13 238.086Z" fill="#EEB633"/>
<path d="M211.617 237.991L211.879 238.091L211.617 237.991Z" fill="#D22922"/>
<path d="M210.24 236.945L210.725 236.98L210.417 236.938C210.489 236.885 210.571 236.849 210.657 236.829L210.898 236.72L211.236 236.749L211.447 236.654L211.657 236.559C211.657 236.559 211.657 236.559 211.837 236.477C211.998 236.444 212.165 236.472 212.307 236.555L212.607 236.419C212.618 236.474 212.642 236.526 212.676 236.57C212.732 236.653 212.773 236.744 212.798 236.841C212.847 236.939 212.876 237.046 212.882 237.156C212.888 237.266 212.871 237.376 212.833 237.478C212.758 237.548 212.663 237.591 212.562 237.6C212.478 237.675 212.373 237.722 212.262 237.736L212.051 237.831C212.051 237.831 212.051 237.831 211.871 237.913C211.69 237.994 211.871 237.913 211.871 237.913L211.789 237.732L211.202 237.634L210.24 236.945Z" fill="#D22922"/>
<path d="M212.048 237.905C212.082 237.906 212.116 237.899 212.148 237.885C212.179 237.871 212.206 237.85 212.229 237.824C212.153 237.701 212.093 237.57 212.052 237.432L212.133 237.613L212.038 237.402C212.038 237.402 212.188 237.334 212.286 237.471L212.024 237.372L211.943 237.191L212.191 237.26L211.858 237.084L212.099 236.976L212.339 236.867C212.383 236.832 212.434 236.809 212.489 236.799C212.489 236.799 212.489 236.799 212.408 236.618C212.326 236.438 212.408 236.618 212.408 236.618L212.708 236.483C212.719 236.537 212.742 236.589 212.776 236.633C212.833 236.716 212.874 236.808 212.899 236.904C212.948 237.002 212.977 237.11 212.983 237.219C212.989 237.329 212.972 237.439 212.933 237.541C212.859 237.611 212.764 237.654 212.663 237.664C212.579 237.738 212.474 237.785 212.362 237.799L212.152 237.894C212.152 237.894 212.152 237.894 211.972 237.976C211.791 238.057 211.972 237.976 211.972 237.976L212.048 237.905Z" fill="#D95226"/>
<path d="M212.017 237.194L212.412 237.269L212.653 237.161L212.893 237.052L213.043 236.984C213.094 237.057 213.131 237.139 213.152 237.225C213.209 237.426 213.19 237.641 213.1 237.829C213.037 237.911 212.954 237.977 212.86 238.02C212.766 238.062 212.662 238.081 212.559 238.073L212.477 237.893C212.51 237.938 212.533 237.989 212.545 238.043L212.463 237.863L212.674 237.768L212.578 237.557L212.017 237.194Z" fill="#E79732"/>
<g style="mix-blend-mode:multiply" opacity="0.3">
<path d="M213.817 237.976L213.861 237.993L213.831 238.006L213.817 237.976Z" fill="#2A1201"/>
<path d="M213.376 237.559L213.362 237.529L213.406 237.546L213.419 237.576L213.376 237.559Z" fill="#2A1201"/>
<path d="M213.338 237.395L213.351 237.425L213.321 237.439L213.338 237.395Z" fill="#2A1201"/>
<path d="M213.845 237.637L213.889 237.654L213.859 237.667L213.845 237.637Z" fill="#2A1201"/>
<path d="M213.938 237.922L213.968 237.908L213.981 237.938L213.951 237.952L213.938 237.922Z" fill="#2A1201"/>
<path d="M213.49 238.052L213.52 238.038L213.533 238.068L213.503 238.082L213.49 238.052Z" fill="#2A1201"/>
<path d="M213.367 238.18L213.383 238.136L213.397 238.166L213.367 238.18Z" fill="#2A1201"/>
</g>
<g style="mix-blend-mode:screen">
<path d="M213.062 237.665C213.101 237.664 213.14 237.655 213.176 237.639C213.213 237.622 213.245 237.599 213.272 237.57C213.272 237.57 213.272 237.57 213.092 237.651C213.092 237.651 213.092 237.651 213.16 237.802C213.16 237.802 213.092 237.651 213.062 237.665Z" fill="#8F573E"/>
</g>
<g style="mix-blend-mode:overlay" opacity="0.5">
<path d="M213.129 238.215C213.218 238.249 213.312 238.268 213.407 238.27C213.464 238.271 213.521 238.259 213.573 238.235C213.624 238.212 213.671 238.177 213.708 238.134C213.77 238.069 213.809 237.985 213.821 237.895C213.832 237.805 213.815 237.714 213.772 237.634C213.821 237.708 213.857 237.79 213.88 237.875C213.88 237.795 213.863 237.717 213.83 237.644C213.798 237.571 213.75 237.506 213.69 237.454C213.765 237.508 213.825 237.581 213.863 237.665C213.901 237.75 213.917 237.843 213.908 237.935C213.924 237.808 213.904 237.679 213.851 237.562C213.799 237.445 213.714 237.345 213.608 237.273C213.677 237.333 213.733 237.407 213.77 237.49C213.808 237.573 213.827 237.663 213.826 237.755C213.843 237.894 213.815 238.035 213.747 238.157C213.678 238.279 213.573 238.376 213.445 238.434C213.301 238.498 213.138 238.507 212.987 238.46C213.094 238.433 213.196 238.387 213.287 238.325C213.229 238.297 213.176 238.26 213.129 238.215Z" fill="#FFF9C5"/>
</g>
<g style="mix-blend-mode:overlay" opacity="0.5">
<path d="M212.47 237.316L212.65 237.234L212.951 237.099C213.119 237.077 213.29 237.115 213.434 237.207C213.349 237.134 213.251 237.079 213.144 237.047L212.994 237.115L212.541 236.993L212.623 237.174L212.745 237.445C212.781 237.514 212.813 237.584 212.84 237.656C212.84 237.656 212.759 237.475 212.732 237.415C212.718 237.338 212.685 237.265 212.636 237.204L212.555 237.023C212.555 237.023 212.555 237.023 212.473 236.843L212.47 237.316Z" fill="#FFF9C5"/>
</g>
<defs>
<linearGradient id="paint0_linear_216_1886" x1="220.624" y1="204.582" x2="211.33" y2="203.576" gradientUnits="userSpaceOnUse">
<stop stop-color="white"/>
<stop offset="0.02" stop-color="#F0F0F0"/>
<stop offset="0.09" stop-color="#BEBEBE"/>
<stop offset="0.17" stop-color="#919191"/>
<stop offset="0.25" stop-color="#6A6A6A"/>
<stop offset="0.34" stop-color="#494949"/>
<stop offset="0.43" stop-color="#2E2E2E"/>
<stop offset="0.53" stop-color="#1A1A1A"/>
<stop offset="0.65" stop-color="#0B0B0B"/>
<stop offset="0.78" stop-color="#030303"/>
<stop offset="1"/>
</linearGradient>
<linearGradient id="paint1_linear_216_1886" x1="245.09" y1="223.413" x2="235.796" y2="222.406" gradientUnits="userSpaceOnUse">
<stop stop-color="white"/>
<stop offset="0.02" stop-color="#F0F0F0"/>
<stop offset="0.09" stop-color="#BEBEBE"/>
<stop offset="0.17" stop-color="#919191"/>
<stop offset="0.25" stop-color="#6A6A6A"/>
<stop offset="0.34" stop-color="#494949"/>
<stop offset="0.43" stop-color="#2E2E2E"/>
<stop offset="0.53" stop-color="#1A1A1A"/>
<stop offset="0.65" stop-color="#0B0B0B"/>
<stop offset="0.78" stop-color="#030303"/>
<stop offset="1"/>
</linearGradient>
<linearGradient id="paint2_linear_216_1886" x1="215.925" y1="232.708" x2="206.647" y2="231.658" gradientUnits="userSpaceOnUse">
<stop stop-color="white"/>
<stop offset="0.02" stop-color="#F0F0F0"/>
<stop offset="0.09" stop-color="#BEBEBE"/>
<stop offset="0.17" stop-color="#919191"/>
<stop offset="0.25" stop-color="#6A6A6A"/>
<stop offset="0.34" stop-color="#494949"/>
<stop offset="0.43" stop-color="#2E2E2E"/>
<stop offset="0.53" stop-color="#1A1A1A"/>
<stop offset="0.65" stop-color="#0B0B0B"/>
<stop offset="0.78" stop-color="#030303"/>
<stop offset="1"/>
</linearGradient>
</defs>
</svg>
