<svg width="239" height="1895" viewBox="0 0 239 1895" fill="none" xmlns="http://www.w3.org/2000/svg">
<path d="M112.661 1C150.067 18.2351 225.18 58.6714 226.377 82.5354C227.873 112.365 42.8355 181.472 83.7332 249.584C124.631 317.696 258.297 370.892 226.377 407.683C194.456 444.473 108.664 488.49 91.2145 531.975C72.2619 579.206 60.7905 654.775 91.2145 692.063C121.638 729.35 226.377 730.344 226.377 751.723C226.377 773.101 251.813 867.065 212.411 899.381C173.01 931.697 100.198 935.015 91.2145 956.058C81.2394 979.425 45.8279 1053.5 96.202 1093.77C125.88 1117.5 217.399 1103.22 226.377 1131.56C234.27 1156.47 244.332 1239.94 209.419 1267.29C174.506 1294.63 119.643 1271.76 101.688 1299.1C88.5773 1319.07 50.8155 1386.61 91.2145 1434.83C123.7 1473.61 215.903 1434.83 226.377 1473.61C233.25 1499.06 225.878 1518.35 204.93 1543.71C183.983 1569.07 121.446 1554.92 91.2145 1603.37C65.7781 1644.14 83.2344 1712.25 110.167 1729.65C137.1 1747.05 212.91 1735.66 226.377 1764C237.454 1787.31 253.309 1828.59 204.93 1874.33C166.227 1910.92 32.6941 1887.75 -23 1874.33" stroke="white" stroke-dasharray="6 6"/>
</svg>
