<svg width="252" height="251" viewBox="0 0 252 251" fill="none" xmlns="http://www.w3.org/2000/svg">
<path d="M133.601 79.3497C122.225 70.4019 110.488 66.5821 98.6772 68.0026C79.2629 70.3539 65.1163 86.3177 61.2792 91.0952C77.6745 88.7841 88.4293 93.864 93.7904 97.4914C98.7722 92.9056 112.18 84.1787 133.601 79.3497Z" fill="#5598D1"/>
<path d="M95.0093 161.561C89.8239 165.392 79.2039 170.943 62.6277 169.154L63.0519 169.566C72.0286 178.286 103.175 203.7 137.275 176.455C117.339 173.254 101.469 165.678 95.0093 161.561Z" fill="#5598D1"/>
<path d="M80.3265 133.517C70.9213 132.119 63.6412 130.428 62.1842 129.399C62.1172 129.352 62.0538 129.299 61.9945 129.242C61.795 129.059 61.6725 128.807 61.6518 128.536C61.6312 128.266 61.7139 127.998 61.8832 127.786C62.9619 126.296 70.4756 124.224 80.3114 122.527C80.3847 115.359 80.6492 105.821 81.4864 101.194C76.7614 100.025 68.7472 99.2944 61.4618 104.55C61.8974 105.511 63.3626 107.947 67.7417 109.912C67.8678 109.97 67.9737 110.064 68.0455 110.183C68.1173 110.302 68.1518 110.439 68.1444 110.578C68.1371 110.716 68.0883 110.85 68.0043 110.96C67.9203 111.07 67.8051 111.153 67.6735 111.197C67.4128 111.286 42.2859 119.655 36.531 129.46C39.1772 131.719 54.1515 143.93 70.0194 145.461C70.1794 145.477 70.3289 145.548 70.4419 145.663C70.555 145.777 70.6245 145.927 70.6386 146.087C70.6526 146.247 70.6103 146.407 70.5189 146.54C70.4274 146.672 70.2927 146.768 70.1379 146.811C70.0705 146.832 63.4239 148.743 61.4005 153.538C63.4286 154.824 72.1145 159.881 81.4607 157.924C80.845 153.994 80.4428 143.589 80.3265 133.517Z" fill="#FDBD30"/>
<path d="M91.4413 157.955C90.7867 154.815 90.5357 145.272 90.5318 134.809C87.4868 134.489 84.5139 134.119 81.7072 133.719C81.8566 146.317 82.4263 157.257 83.0609 158.777C83.1039 158.884 83.1685 158.98 83.2507 159.061C84.3208 160.1 87.8007 159.29 91.4413 157.955Z" fill="#F05B6C"/>
<path d="M81.6965 122.302C84.5444 121.836 87.5576 121.396 90.6532 121.017C90.827 111.202 91.1611 102.755 91.5141 100.528C88.3135 99.7694 84.8841 99.151 83.3983 99.4866C82.6264 100.468 81.851 107.926 81.6965 122.302Z" fill="#F05B6C"/>
<path d="M164.594 176.173C184.248 174.423 204.594 162.344 216.54 154.006C205.138 126.986 211.399 106.849 216.445 96.8996C200.248 86.1942 179.234 76.5773 158.881 77.4411C117.181 79.2144 93.9671 97.588 92.906 100.533C92.3722 102.019 92.0482 110.685 91.9336 120.871C107.404 119.065 124.482 118.71 131.714 122.486C132.104 122.688 132.462 122.945 132.777 123.251C134.687 125.106 134.708 128.356 132.825 130.65C127.951 136.579 108.993 136.64 91.9032 134.958C91.9803 146.634 92.3201 157.04 92.925 158.189C93.0168 158.337 93.1305 158.47 93.2622 158.585C97.0956 162.302 129.115 179.333 164.594 176.173ZM154.657 102.795C159.964 99.3294 168.883 96.2276 181.245 101.135C184.561 102.414 187.59 104.338 190.157 106.795C196.893 113.339 199.291 123.298 196.577 133.439C193.719 144.129 185.821 152.308 175.98 154.793C162.585 158.178 154.414 153.685 149.918 149.318C144.303 143.864 141.143 135.319 141.452 126.475C141.79 117.111 146.971 107.82 154.657 102.795Z" fill="#CE8732"/>
<path d="M150.881 148.324C155.124 152.446 162.861 156.681 175.639 153.453C184.997 151.089 192.507 143.284 195.242 133.08C197.827 123.429 195.566 113.972 189.194 107.782C186.755 105.45 183.879 103.624 180.731 102.407C168.915 97.7193 160.436 100.653 155.405 103.942C148.081 108.726 143.146 117.586 142.825 126.512C142.535 134.988 145.544 143.139 150.881 148.324ZM159.061 110.036C162.8 107.595 169.085 105.405 177.782 108.862C180.118 109.764 182.253 111.12 184.061 112.851C188.814 117.468 190.505 124.482 188.592 131.621C186.578 139.142 181.02 144.903 174.088 146.653C164.658 149.035 158.899 145.863 155.729 142.784C151.774 138.941 149.544 132.929 149.766 126.703C149.999 120.114 153.647 113.573 159.061 110.036Z" fill="#F05B6C"/>
<path d="M149.92 149.313C154.415 153.68 162.583 158.176 175.981 154.787C185.823 152.302 193.715 144.118 196.578 133.434C199.293 123.293 196.895 113.334 190.159 106.79C187.591 104.333 184.562 102.409 181.247 101.13C168.883 96.2204 159.964 99.3222 154.659 102.79C146.973 107.814 141.785 117.099 141.459 126.468C141.143 135.323 144.309 143.862 149.92 149.313ZM155.413 103.95C160.445 100.662 168.923 97.7279 180.74 102.416C183.888 103.632 186.764 105.459 189.203 107.791C195.575 113.981 197.836 123.437 195.251 133.089C192.52 143.296 185.006 151.097 175.648 153.461C162.87 156.69 155.133 152.455 150.89 148.332C145.549 143.144 142.54 134.994 142.839 126.526C143.154 117.594 148.09 108.735 155.413 103.95Z" fill="#2C2C3A"/>
<path d="M156.688 141.796C159.607 144.631 164.937 147.544 173.748 145.317C180.195 143.688 185.374 138.304 187.257 131.266C189.04 124.613 187.485 118.1 183.101 113.841C181.421 112.236 179.441 110.979 177.273 110.144C169.124 106.911 163.279 108.927 159.813 111.191C154.761 114.494 151.359 120.598 151.143 126.755C150.926 132.606 153.008 138.221 156.688 141.796Z" fill="#C0E6F1"/>
<path d="M155.727 142.785C158.896 145.863 164.656 149.037 174.086 146.655C181.018 144.904 186.577 139.144 188.59 131.623C190.505 124.482 188.809 117.466 184.06 112.853C182.251 111.121 180.117 109.765 177.781 108.864C169.082 105.408 162.796 107.595 159.059 110.037C153.646 113.574 149.997 120.116 149.763 126.707C149.542 132.931 151.778 138.948 155.727 142.785ZM159.822 111.182C163.288 108.918 169.131 106.9 177.282 110.135C179.449 110.97 181.43 112.227 183.109 113.832C187.494 118.091 189.058 124.612 187.266 131.257C185.382 138.295 180.204 143.679 173.756 145.308C164.937 147.544 159.603 144.628 156.688 141.796C153.008 138.221 150.934 132.597 151.143 126.754C151.361 120.599 154.764 114.49 159.813 111.191L159.822 111.182Z" fill="#2C2C3A"/>
<path d="M217.603 97.662C212.705 107.402 206.709 126.95 217.685 153.193C235.296 140.7 246.422 128.19 246.379 124.987C246.359 123.599 243.625 119.574 237.581 113.703C232.001 108.268 224.927 102.594 217.603 97.662Z" fill="#5598D1"/>
<path d="M247.725 125.374C247.747 125.241 247.756 125.106 247.754 124.971C247.728 122.856 244.274 118.258 238.524 112.672C236.533 110.738 234.189 108.625 231.563 106.43L231.203 106.132C230.557 105.593 229.894 105.052 229.213 104.507L228.637 104.043C227.911 103.467 227.168 102.887 226.41 102.303C225.938 101.94 225.457 101.583 224.98 101.225L224.15 100.608C223.552 100.167 222.933 99.7158 222.321 99.2752L222.042 99.0762C220.613 98.054 219.172 97.044 217.718 96.0759C217.705 96.0639 217.683 96.066 217.667 96.0541C201.211 85.1078 179.695 75.177 158.817 76.0589C150.922 76.3787 143.068 77.3538 135.335 78.9741C123.383 69.2797 111 65.1223 98.4909 66.6379C75.1337 69.4697 59.2692 91.4281 59.1093 91.649C59.031 91.7604 58.9871 91.8924 58.9832 92.0286C58.9794 92.1647 59.0156 92.2989 59.0874 92.4147C59.1174 92.4612 59.1524 92.5043 59.1916 92.5433C59.2696 92.6187 59.3642 92.6747 59.4677 92.707C59.5712 92.7392 59.6809 92.7468 59.7878 92.729C76.483 89.9121 87.3802 94.8737 92.7826 98.4831C92.5176 98.756 92.2855 99.0266 92.1185 99.2442C88.7436 98.4323 84.7675 97.6898 82.9593 98.1707C82.6084 98.2643 82.3311 98.5321 82.1035 98.9918C81.9735 99.2703 81.8685 99.5599 81.7898 99.857C76.6888 98.6103 68.034 97.8592 60.2269 103.761C60.1202 103.842 60.0393 103.953 59.994 104.079C59.9487 104.205 59.941 104.341 59.9717 104.471C60.005 104.617 60.8055 107.762 65.6824 110.433C59.8433 112.503 39.8064 120.165 35.0502 129.304C34.9788 129.44 34.9549 129.595 34.9823 129.746C35.0096 129.896 35.0866 130.034 35.201 130.135C35.3542 130.284 50.38 143.653 67.1796 146.49C64.699 147.635 61.1773 149.872 59.9054 153.601C59.8634 153.725 59.8573 153.858 59.8877 153.985C59.9181 154.112 59.9838 154.227 60.0772 154.319C60.0993 154.345 60.124 154.369 60.1511 154.39C60.2704 154.475 70.5279 161.645 81.7495 159.293L81.7639 159.331C81.8792 159.61 82.0506 159.863 82.2675 160.073C83.8393 161.6 87.9168 160.713 91.9595 159.225C92.0642 159.351 92.1754 159.471 92.2927 159.586C92.7617 160.015 93.2616 160.409 93.7883 160.765C88.4932 164.571 77.7243 169.905 60.8572 167.564C60.7173 167.544 60.5745 167.567 60.4484 167.631C60.3223 167.695 60.219 167.797 60.1527 167.922C60.0863 168.047 60.0601 168.189 60.0777 168.329C60.0953 168.47 60.1557 168.601 60.2508 168.706C60.2789 168.733 60.9087 169.437 62.0774 170.573C66.0518 174.434 76.8504 183.864 91.2394 188.002C108.122 192.864 124.206 189.077 139.108 176.762C147.582 178.023 156.174 178.294 164.71 177.568C189.636 175.343 217.942 156.545 234.233 141.762C242.009 134.782 247.327 128.501 247.725 125.374ZM63.0503 169.568L62.6261 169.156C79.2023 170.944 89.8223 165.394 95.0077 161.563C101.467 165.68 117.338 173.256 137.272 176.459C103.173 203.701 72.0357 178.297 63.0503 169.568ZM93.2656 158.581C93.1339 158.467 93.0202 158.333 92.9284 158.185C92.3339 157.036 91.9888 146.625 91.9066 134.954C108.997 136.637 127.96 136.581 132.829 130.647C134.713 128.355 134.69 125.103 132.781 123.248C132.466 122.942 132.108 122.684 131.718 122.482C124.484 118.705 107.413 119.056 91.937 120.868C92.0516 110.681 92.3756 102.015 92.9094 100.529C93.9619 97.5932 117.176 79.2196 158.875 77.4463C179.222 76.5756 200.243 86.1994 216.44 96.9048C211.399 106.849 205.137 126.986 216.54 154.006C204.599 162.339 184.248 174.423 164.594 176.173C129.115 179.333 97.0956 162.302 93.2656 158.581ZM83.0609 158.777C82.4263 157.258 81.8567 146.317 81.7073 133.719C84.514 134.119 87.4868 134.489 90.5318 134.809C90.5446 145.281 90.7867 154.815 91.4413 157.955C87.8007 159.29 84.3209 160.101 83.2507 159.061C83.1685 158.98 83.1039 158.884 83.0609 158.777ZM61.4075 153.544C63.4309 148.75 70.0775 146.838 70.1449 146.818C70.2997 146.775 70.4344 146.679 70.5259 146.547C70.6173 146.414 70.6596 146.254 70.6456 146.094C70.6315 145.934 70.562 145.784 70.4489 145.67C70.3359 145.555 70.1864 145.484 70.0264 145.468C54.1585 143.937 39.1842 131.726 36.538 129.467C42.2964 119.665 67.4232 111.289 67.6805 111.204C67.8121 111.16 67.9273 111.077 68.0113 110.967C68.0953 110.856 68.1441 110.723 68.1514 110.585C68.1588 110.446 68.1243 110.309 68.0525 110.19C67.9807 110.071 67.8748 109.977 67.7487 109.919C63.3697 107.954 61.8974 105.511 61.4688 104.557C68.7457 99.3101 76.765 100.036 81.4934 101.201C80.6562 105.828 80.3917 115.366 80.3184 122.534C70.4808 124.229 62.9706 126.304 61.8902 127.793C61.7209 128.005 61.6382 128.273 61.6588 128.543C61.6795 128.813 61.802 129.066 62.0015 129.249C62.0608 129.306 62.1242 129.359 62.1912 129.406C63.6482 130.435 70.9283 132.126 80.3335 133.524C80.4498 143.596 80.852 154.001 81.4748 157.938C72.1215 159.888 63.4305 154.836 61.4075 153.544ZM83.4017 99.4832C84.8841 99.1511 88.3135 99.7696 91.5175 100.525C91.1645 102.751 90.8304 111.199 90.6566 121.013C87.5557 121.388 84.5443 121.829 81.6999 122.299C81.851 107.926 82.6264 100.468 83.4017 99.4832ZM131.086 123.699C131.357 123.84 131.606 124.019 131.825 124.232C133.201 125.569 133.175 128.051 131.766 129.765C123.521 139.802 68.7566 131.473 63.1884 128.401C67.1436 124.942 117.449 116.582 131.086 123.699ZM61.2723 91.1023C65.1095 86.3248 79.2612 70.3558 98.6704 68.0097C110.488 66.5822 122.225 70.402 133.594 79.3568C112.173 84.1858 98.7654 92.9127 93.7767 97.5056C88.4293 93.8641 77.6662 88.8068 61.2723 91.1023ZM217.685 153.193C206.709 126.95 212.705 107.402 217.603 97.6619C224.927 102.594 232.001 108.268 237.588 113.696C243.632 119.567 246.364 123.59 246.386 124.98C246.426 128.193 235.294 140.698 217.685 153.193Z" fill="#2C2C3A"/>
<path d="M63.1883 128.401C68.7565 131.473 123.522 139.8 131.766 129.765C133.173 128.052 133.201 125.569 131.825 124.231C131.606 124.019 131.357 123.84 131.086 123.699C117.449 116.582 67.1435 124.942 63.1883 128.401Z" fill="#5598D1"/>
<path d="M173.748 145.317C178.897 144.017 183.23 140.317 185.73 135.297C178.504 137.46 171.64 137.675 163.677 132.334C161.008 130.546 154.542 125.749 152.242 121.034C151.584 122.873 151.211 124.801 151.134 126.753C150.929 132.599 152.998 138.218 156.68 141.795C159.603 144.628 164.937 147.544 173.748 145.317Z" fill="#92D7EF"/>
<path d="M211.556 138.073C205.248 140.092 198.82 141.712 192.309 142.924C188.388 148.824 182.633 153.114 175.985 154.798C162.59 158.183 154.419 153.69 149.923 149.323C148.401 147.83 147.072 146.151 145.967 144.327C141.015 143.697 136.099 142.804 131.24 141.653C122.812 139.647 114.72 137.954 106.709 135.878C101.871 135.78 96.8143 135.442 91.9084 134.959C91.9854 146.636 92.3252 157.041 92.9301 158.19C93.0219 158.338 93.1356 158.472 93.2673 158.586C97.0974 162.307 129.117 179.338 164.596 176.178C184.25 174.428 204.596 162.349 216.541 154.011C214.351 148.878 212.681 143.539 211.556 138.073Z" fill="#845523"/>
<path d="M245.438 122.758C235.167 128.913 224.243 133.907 212.868 137.647C213.954 142.977 215.567 148.185 217.684 153.194C235.294 140.702 246.42 128.192 246.378 124.989C246.371 124.527 246.067 123.763 245.438 122.758Z" fill="#3E7DB6"/>
<path d="M93.7835 97.4986C96.0321 95.427 100.009 92.5165 105.652 89.5072C103.727 88.5772 101.808 87.6713 99.9704 86.7243C90.3687 81.8238 81.1301 80.5397 71.2824 80.9391C67.6352 84.0066 64.286 87.4117 61.2794 91.1092C77.6662 88.8069 88.4293 93.8642 93.7835 97.4986Z" fill="#3E7DB6"/>
<path d="M104.58 166.613C101.281 165.145 98.085 163.456 95.0128 161.558C89.8274 165.388 79.2074 170.939 62.6312 169.15L63.0554 169.562C66.9097 173.288 71.1372 176.607 75.671 179.468C86.3986 177.634 97.3712 172.224 104.58 166.613Z" fill="#3E7DB6"/>
<path d="M93.4512 122.253L93.286 122.11L93.1751 122.122C93.2694 122.162 93.362 122.204 93.4512 122.253Z" fill="#3E7DB6"/>
<path d="M86.442 129.683C83.9484 126.816 85.6359 124.11 88.1445 122.74C75.5785 124.412 64.9226 126.883 63.1884 128.401C65.9786 129.941 81.1335 132.802 96.5923 134.008C92.7592 132.95 88.1838 131.687 86.442 129.683Z" fill="#3E7DB6"/>
<path d="M176.345 115.653C175.626 113.244 173.237 112.397 170.927 112.2C169.282 112.059 166.643 112.458 165.806 114.087C165.663 114.355 165.63 114.669 165.715 114.96C165.8 115.252 165.996 115.499 166.261 115.648C167.361 116.276 168.848 116.136 170.043 116.586C171.375 117.082 172.363 118.072 173.811 118.261C175.309 118.451 176.83 117.301 176.345 115.653Z" fill="#F1F8F4"/>
<path d="M182.557 121.373C182.285 120.804 182.073 120.219 181.614 119.773C181.155 119.326 180.48 119.109 179.868 118.911C179.073 118.652 178.203 119.548 178.485 120.335C178.7 120.941 178.919 121.592 179.398 122.054C179.877 122.516 180.443 122.7 181.025 122.95C181.244 123.056 181.491 123.09 181.731 123.048C181.97 123.006 182.191 122.889 182.36 122.715C182.53 122.54 182.64 122.316 182.675 122.076C182.711 121.835 182.669 121.589 182.557 121.373Z" fill="#F1F8F4"/>
<path d="M147.016 128.154C145.754 126.928 143.851 128.887 145.113 130.113C146.375 131.339 148.279 129.382 147.016 128.154Z" fill="#2C2C3A"/>
<path d="M150.254 115.914C148.99 114.686 147.087 116.646 148.351 117.873C149.614 119.101 151.516 117.14 150.254 115.914Z" fill="#2C2C3A"/>
<path d="M160.005 104.556C158.743 103.33 156.842 105.287 158.104 106.513C159.366 107.739 161.267 105.782 160.005 104.556Z" fill="#2C2C3A"/>
<path d="M173.312 102.737C172.048 101.509 170.145 103.468 171.409 104.696C172.673 105.924 174.574 103.963 173.312 102.737Z" fill="#2C2C3A"/>
<path d="M185.246 107.279C183.982 106.051 182.079 108.01 183.343 109.238C184.607 110.466 186.508 108.505 185.246 107.279Z" fill="#2C2C3A"/>
<path d="M193.533 118.857C192.271 117.631 190.37 119.589 191.632 120.815C192.894 122.041 194.804 120.092 193.533 118.857Z" fill="#2C2C3A"/>
<path d="M193.07 131.227C191.808 130.001 189.905 131.96 191.167 133.186C192.429 134.412 194.332 132.453 193.07 131.227Z" fill="#2C2C3A"/>
<path d="M184.313 143.873C183.049 142.645 181.146 144.604 182.41 145.832C183.673 147.059 185.575 145.099 184.313 143.873Z" fill="#2C2C3A"/>
<path d="M172.364 149.573C171.1 148.345 169.197 150.304 170.461 151.532C171.725 152.76 173.626 150.799 172.364 149.573Z" fill="#2C2C3A"/>
<path d="M158.836 147.992C157.572 146.764 155.671 148.721 156.935 149.949C158.199 151.177 160.098 149.218 158.836 147.992Z" fill="#2C2C3A"/>
<path d="M150.748 139.491C149.484 138.263 147.581 140.222 148.845 141.45C150.108 142.678 152.01 140.717 150.748 139.491Z" fill="#2C2C3A"/>
<path d="M81.2682 156.379C80.7577 151.682 80.4317 142.47 80.3264 133.517C70.9212 132.119 63.6411 130.428 62.1841 129.399C62.1171 129.352 62.0537 129.299 61.9945 129.242C61.7949 129.059 61.6724 128.807 61.6517 128.536C61.6311 128.266 61.7138 127.998 61.8831 127.786C62.9618 126.296 70.4755 124.224 80.3113 122.527C80.3737 116.405 80.576 108.562 81.1623 103.51C78.4782 102.709 71.721 105.249 69.4632 106.326C71.2361 108.798 73.5038 110.686 75.5541 112.897C71.7698 117.014 64.6104 118.742 59.9448 121.801C56.2833 124.204 52.6833 126.667 49.057 129.107C55.8224 136.364 66.6764 140.982 75.9756 143.81C73.6076 147.107 71.4365 150.69 68.4979 153.525C72.6538 154.882 76.9301 155.837 81.2682 156.379Z" fill="#F79731"/>
<path d="M80.3265 133.517C70.9213 132.119 63.6412 130.428 62.1842 129.399C62.1172 129.352 62.0538 129.299 61.9945 129.242C61.9349 129.179 61.8832 129.108 61.8405 129.031C61.3036 129.584 60.7718 130.131 60.2627 130.684C63.3282 134.219 68.8149 136.819 72.8636 139.097C74.5556 140.056 76.2321 141.264 77.9292 142.098C76.4582 145.254 76.5854 149.37 74.9026 152.282C76.5112 153.472 79.0624 153.244 81.0094 153.479C80.6482 148.424 80.4124 140.891 80.3265 133.517Z" fill="#F37530"/>
<path d="M64.6033 126.279C67.8221 125.061 73.5119 123.705 80.3184 122.534C80.3692 117.53 80.5252 111.403 80.8872 106.562C79.0341 107.061 77.0801 107.417 75.4257 108.458C76.0155 110.002 78.6115 112.747 78.6112 114.166C78.6114 116.219 73.8793 118.396 72.3687 119.536C69.6456 121.623 67.0523 123.875 64.6033 126.279Z" fill="#F37530"/>
<path d="M197.793 91.2015C194.4 88.8194 190.161 88.1397 186.22 87.0792C182.466 86.0628 178.468 84.6422 174.55 84.829C173.954 84.8585 173.528 85.6594 174.048 86.0927C177.036 88.5918 180.987 89.8674 184.567 91.3166C188.549 92.9302 192.457 94.9925 196.81 95.1464C199.125 95.2292 199.36 92.3034 197.793 91.2015Z" fill="#845523"/>
<path d="M209.05 98.2821C207.954 97.0294 206.054 95.5836 204.268 95.809C203.79 95.8715 203.381 96.2713 203.526 96.7985C204.073 98.644 206.227 99.7651 207.927 100.287C209.162 100.656 209.766 99.1047 209.05 98.2821Z" fill="#845523"/>
<path d="M231.38 113.679C229.209 110.318 224.777 106.115 220.653 105.521C219.989 105.426 219.234 106.119 219.703 106.794C220.77 108.334 222.367 109.381 223.762 110.614C225.564 112.228 227.238 113.936 229.139 115.437C230.334 116.383 232.319 115.136 231.38 113.679Z" fill="#7AAEDD"/>
<path d="M51.5867 105.816C47.6128 105.945 43.6615 105.955 39.7274 106.55C38.9914 106.66 39.2244 107.772 39.9013 107.78C43.8197 107.891 47.6984 107.417 51.6014 107.069C52.4022 107.002 52.4072 105.789 51.5867 105.816Z" fill="#484859"/>
<path d="M41.2997 113.514C31.2408 113.951 21.0958 114.072 11.0833 115.071C9.94651 115.184 9.93255 116.857 11.1092 116.865C21.1772 116.932 31.2789 116.099 41.3298 115.596C42.6703 115.53 42.6472 113.455 41.2997 113.514Z" fill="#484859"/>
<path d="M26.8659 127.245C18.7515 127.026 10.5884 126.554 2.4713 126.743C1.45991 126.766 1.51728 128.211 2.49366 128.287C10.5945 128.893 18.7708 128.837 26.8901 129.041C28.0532 129.069 28.0203 127.275 26.8659 127.245Z" fill="#484859"/>
<path d="M39.3852 138.175C36.4578 138.311 33.5224 138.368 30.6138 138.717C29.732 138.822 29.7123 140.103 30.6339 140.105C33.5604 140.153 36.4844 139.908 39.4113 139.737C40.419 139.703 40.3998 138.135 39.3852 138.175Z" fill="#484859"/>
<path d="M54.8175 149.062C49.0492 149.305 43.0875 149.141 37.3729 149.981C36.3044 150.137 36.6706 151.693 37.6275 151.744C43.3038 152.095 49.1666 151.421 54.8482 151.182C56.2233 151.112 56.1876 149 54.8175 149.062Z" fill="#484859"/>
<path d="M59.0299 159.897C57.2254 159.595 55.3974 159.455 53.5679 159.48C51.89 159.499 49.9699 159.567 48.4524 160.347C47.789 160.678 48.1535 161.638 48.8166 161.652C50.3998 161.692 52.0098 161.183 53.5921 161.033C55.3548 160.873 57.129 160.887 58.889 161.074C59.5667 161.13 59.691 160.009 59.0299 159.897Z" fill="#484859"/>
</svg>
